SplineFontDB: 3.2
FontName: Gotham-Medium
FullName: Gotham-Medium
FamilyName: Gotham
Weight: Medium
Copyright: HTF Gotham\\252 Copr. 2000 The Hoefler Type Foundry, Inc. Info: www.typography.com
Version: 001.000
ItalicAngle: 0
UnderlinePosition: -143
UnderlineWidth: 20
Ascent: 800
Descent: 200
InvalidEm: 0
sfntRevision: 0x00010000
LayerCount: 2
Layer: 0 1 "Back" 1
Layer: 1 1 "Fore" 0
XUID: [1021 141 1542915741 12198263]
StyleMap: 0x0040
FSType: 0
OS2Version: 0
OS2_WeightWidthSlopeOnly: 0
OS2_UseTypoMetrics: 0
CreationTime: 1137916849
ModificationTime: 1721054189
PfmFamily: 17
TTFWeight: 500
TTFWidth: 5
LineGap: 0
VLineGap: 0
Panose: 2 0 6 4 4 0 0 2 0 4
OS2TypoAscent: 730
OS2TypoAOffset: 0
OS2TypoDescent: -160
OS2TypoDOffset: 0
OS2TypoLinegap: 67
OS2WinAscent: 922
OS2WinAOffset: 0
OS2WinDescent: 165
OS2WinDOffset: 0
HheadAscent: 0
HheadAOffset: 0
HheadDescent: 0
HheadDOffset: 0
OS2SubXSize: 204
OS2SubYSize: 204
OS2SubXOff: 0
OS2SubYOff: 286
OS2SupXSize: 204
OS2SupYSize: 204
OS2SupXOff: 0
OS2SupYOff: 286
OS2StrikeYSize: 50
OS2StrikeYPos: 250
OS2Vendor: 'pyrs'
OS2UnicodeRanges: 80000027.00000000.00000000.00000000
Lookup: 258 0 0 "'kern' Horizontal Kerning lookup 0" { "'kern' Horizontal Kerning lookup 0 subtable"  } ['kern' ('DFLT' <'dflt' > 'grek' <'dflt' > 'latn' <'dflt' > ) ]
DEI: 91125
TtTable: prep
PUSHW_1
 0
CALL
SVTCA[y-axis]
PUSHW_3
 1
 2
 2
CALL
SVTCA[x-axis]
PUSHW_3
 3
 2
 2
CALL
PUSHW_7
 3
 46
 38
 29
 22
 14
 8
CALL
PUSHW_7
 4
 42
 38
 29
 22
 14
 8
CALL
PUSHW_7
 1
 54
 44
 34
 22
 14
 8
CALL
PUSHW_7
 2
 50
 38
 29
 22
 14
 8
CALL
SVTCA[y-axis]
PUSHW_3
 5
 4
 7
CALL
PUSHW_1
 0
DUP
RCVT
RDTG
ROUND[Black]
RTG
WCVTP
EndTTInstrs
TtTable: fpgm
PUSHW_1
 0
FDEF
MPPEM
PUSHW_1
 9
LT
IF
PUSHB_2
 1
 1
INSTCTRL
EIF
PUSHW_1
 511
SCANCTRL
PUSHW_1
 68
SCVTCI
PUSHW_2
 9
 3
SDS
SDB
ENDF
PUSHW_1
 1
FDEF
DUP
DUP
RCVT
ROUND[Black]
WCVTP
PUSHB_1
 1
ADD
ENDF
PUSHW_1
 2
FDEF
PUSHW_1
 1
LOOPCALL
POP
ENDF
PUSHW_1
 3
FDEF
DUP
GC[cur]
PUSHB_1
 3
CINDEX
GC[cur]
GT
IF
SWAP
EIF
DUP
ROLL

StartChar: exclam
Encoding: 33 33 4
Width: 302
VWidth: 960
Flags: W
LayerCount: 2
Fore
SplineSet
80 660 m 1,0,-1
 222 660 l 1,1,-1
 222 625 l 1,2,-1
 185 181 l 1,3,-1
 118 181 l 1,4,-1
 80 625 l 1,5,-1
 80 660 l 1,0,-1
218 -40 m 1,6,-1
 85 -40 l 1,7,-1
 85 97 l 1,8,-1
 218 97 l 1,9,-1
 218 -40 l 1,6,-1
EndSplineSet
EndChar

StartChar: quotedbl
Encoding: 34 34 5
Width: 487
VWidth: 960
Flags: W
LayerCount: 2
Fore
SplineSet
279 361 m 1,0,-1
 303 660 l 1,1,-1
 440 660 l 1,2,-1
 440 655 l 1,3,-1
 342 361 l 1,4,-1
 279 361 l 1,0,-1
60 361 m 1,5,-1
 83 660 l 1,6,-1
 220 660 l 1,7,-1
 220 655 l 1,8,-1
 123 361 l 1,9,-1
 60 361 l 1,5,-1
EndSplineSet
EndChar

StartChar: numbersign
Encoding: 35 35 6
Width: 700
VWidth: 960
Flags: W
LayerCount: 2
Fore
SplineSet
660 399 m 1,0,-1
 553 399 l 1,1,-1
 524 225 l 1,2,-1
 624 225 l 1,3,-1
 624 121 l 1,4,-1
 506 121 l 1,5,-1
 478 -40 l 1,6,-1
 371 -40 l 1,7,-1
 399 121 l 1,8,-1
 235 121 l 1,9,-1
 208 -40 l 1,10,-1
 101 -40 l 1,11,-1
 129 121 l 1,12,-1
 39 121 l 1,13,-1
 39 225 l 1,14,-1
 147 225 l 1,15,-1
 176 399 l 1,16,-1
 76 399 l 1,17,-1
 76 503 l 1,18,-1
 194 503 l 1,19,-1
 221 660 l 1,20,-1
 328 660 l 1,21,-1
 301 503 l 1,22,-1
 465 503 l 1,23,-1
 491 660 l 1,24,-1
 598 660 l 1,25,-1
 571 503 l 1,26,-1
 660 503 l 1,27,-1
 660 399 l 1,0,-1
447 399 m 1,28,-1
 283 399 l 1,29,-1
 253 225 l 1,30,-1
 417 225 l 1,31,-1
 447 399 l 1,28,-1
EndSplineSet
EndChar

StartChar: dollar
Encoding: 36 36 7
Width: 642
VWidth: 960
Flags: W
LayerCount: 2
Fore
SplineSet
585 155 m 0,0,1
 585 114 585 114 569.5 80 c 128,-1,2
 554 46 554 46 526 21 c 128,-1,3
 498 -4 498 -4 459 -19.5 c 128,-1,4
 420 -35 420 -35 372 -39 c 1,5,-1
 372 -138 l 1,6,-1
 285 -138 l 1,7,-1
 285 -38 l 1,8,9
 219 -30 219 -30 159.5 -5 c 128,-1,10
 100 20 100 20 49 61 c 1,11,-1
 113 152 l 1,12,13
 156 117 156 117 198 95.5 c 128,-1,14
 240 74 240 74 289 66 c 1,15,-1
 289 262 l 1,16,17
 234 276 234 276 194 294 c 128,-1,18
 154 312 154 312 127.5 336.5 c 128,-1,19
 101 361 101 361 88 393.5 c 128,-1,20
 75 426 75 426 75 468 c 0,21,22
 75 508 75 508 90 542 c 128,-1,23
 105 576 105 576 133 601 c 128,-1,24
 161 626 161 626 199.5 641 c 128,-1,25
 238 656 238 656 285 660 c 1,26,-1
 285 718 l 1,27,-1
 372 718 l 1,28,-1
 372 658 l 1,29,30
 427 651 427 651 472.5 632 c 128,-1,31
 518 613 518 613 560 582 c 1,32,-1
 504 488 l 1,33,34
 439 537 439 537 368 552 c 1,35,-1
 368 362 l 1,36,37
 482 333 482 333 533.5 284.5 c 128,-1,38
 585 236 585 236 585 155 c 0,0,1
289 383 m 1,39,40
 289 559 l 1,41,42
 241 555 241 555 217 531.5 c 128,-1,43
 193 508 193 508 193 475 c 0,44,45
 193 443 193 443 212 421.5 c 128,-1,46
 231 400 231 400 289 383 c 1,39,40
467 148 m 0,47,48
 467 165 467 165 462.5 178.5 c 128,-1,49
 458 192 458 192 446.5 203.5 c 128,-1,50
 435 215 435 215 416 224.5 c 128,-1,51
 397 234 397 234 368 243 c 1,52,-1
 368 62 l 1,53,54
 416 66 416 66 441.5 89 c 128,-1,55
 467 112 467 112 467 148 c 0,47,48
EndSplineSet
EndChar

StartChar: percent
Encoding: 37 37 8
Width: 849
VWidth: 960
Flags: W
LayerCount: 2
Fore
SplineSet
378 490 m 0,0,1
 378 453 378 453 366 420.5 c 128,-1,2
 354 388 354 388 332 363.5 c 128,-1,3
 310 339 310 339 279.5 324.5 c 128,-1,4
 249 310 249 310 212 310 c 256,5,6
 175 310 175 310 145 324 c 128,-1,7
 115 338 115 338 93.5 362.5 c 128,-1,8
 72 387 72 387 60 419.5 c 128,-1,9
 48 452 48 452 48 488 c 0,10,11
 48 525 48 525 60 557.5 c 128,-1,12
 72 590 72 590 94 614.5 c 128,-1,13
 116 639 116 639 146.5 653.5 c 128,-1,14
 177 668 177 668 214 668 c 256,15,16
 251 668 251 668 281 654 c 128,-1,17
 311 640 311 640 332.5 615.5 c 128,-1,18
 354 591 354 591 366 558.5 c 128,-1,19
 378 526 378 526 378 490 c 0,0,1
730 660 m 1,20,-1
 218 -40 l 1,21,-1
 119 -40 l 1,22,-1
 631 660 l 1,23,-1
 730 660 l 1,20,-1
801 132 m 0,24,25
 801 95 801 95 789 62.5 c 128,-1,26
 777 30 777 30 755 5.5 c 128,-1,27
 733 -19 733 -19 702.5 -33.5 c 128,-1,28
 672 -48 672 -48 635 -48 c 256,29,30
 598 -48 598 -48 568 -34 c 128,-1,31
 538 -20 538 -20 516.5 4.5 c 128,-1,32
 495 29 495 29 483 61.5 c 128,-1,33
 471 94 471 94 471 130 c 0,34,35
 471 167 471 167 483 199.5 c 128,-1,36
 495 232 495 232 517 256.5 c 128,-1,37
 539 281 539 281 569.5 295.5 c 128,-1,38
 600 310 600 310 637 310 c 256,39,40
 674 310 674 310 704 296 c 128,-1,41
 734 282 734 282 755.5 257.5 c 128,-1,42
 777 233 777 233 789 200.5 c 128,-1,43
 801 168 801 168 801 132 c 0,24,25
289 488 m 0,44,45
 289 532 289 532 267.5 561.5 c 128,-1,46
 246 591 246 591 212 591 c 0,47,48
 177 591 177 591 157 561.5 c 128,-1,49
 137 532 137 532 137 490 c 0,50,51
 137 446 137 446 158.5 416.5 c 128,-1,52
 180 387 180 387 214 387 c 0,53,54
 249 387 249 387 269 416.5 c 128,-1,55
 289 446 289 446 289 488 c 0,44,45
712 130 m 0,56,57
 712 174 712 174 690.5 203.5 c 128,-1,58
 669 233 669 233 635 233 c 0,59,60
 600 233 600 233 580 203.5 c 128,-1,61
 560 174 560 174 560 132 c 0,62,63
 560 88 560 88 581.5 58.5 c 128,-1,64
 603 29 603 29 637 29 c 0,65,66
 672 29 672 29 692 58.5 c 128,-1,67
 712 88 712 88 712 130 c 0,56,57
EndSplineSet
EndChar

StartChar: ampersand
Encoding: 38 38 9
Width: 696
VWidth: 960
Flags: W
LayerCount: 2
Fore
SplineSet
666 11 m 1,0,-1
 575 -54 l 1,1,-1
 482 41 l 1,2,3
 437 -1 437 -1 384 -25.5 c 128,-1,4
 331 -50 331 -50 267 -50 c 0,5,6
 218 -50 218 -50 176.5 -36 c 128,-1,7
 135 -22 135 -22 104.5 4.5 c 128,-1,8
 74 31 74 31 56.5 68 c 128,-1,9
 39 105 39 105 39 151 c 0,10,11
 39 220 39 220 77.5 268.5 c 128,-1,12
 116 317 116 317 188 348 c 1,13,14
 158 387 158 387 144 421.5 c 128,-1,15
 130 456 130 456 130 495 c 0,16,17
 130 531 130 531 144 563 c 128,-1,18
 158 595 158 595 184 619 c 128,-1,19
 210 643 210 643 247 657.5 c 128,-1,20
 284 672 284 672 331 672 c 0,21,22
 373 672 373 672 407 659 c 128,-1,23
 441 646 441 646 465.5 623 c 128,-1,24
 490 600 490 600 503.5 569 c 128,-1,25
 517 538 517 538 517 502 c 0,26,27
 517 432 517 432 475 388.5 c 128,-1,28
 433 345 433 345 363 319 c 1,29,-1
 483 197 l 1,30,31
 503 227 503 227 522 261 c 128,-1,32
 541 295 541 295 558 332 c 1,33,-1
 651 283 l 1,34,35
 630 241 630 241 606.5 200.5 c 128,-1,36
 583 160 583 160 556 123 c 1,37,-1
 666 11 l 1,0,-1
408 495 m 0,38,39
 408 532 408 532 385.5 553.5 c 128,-1,40
 363 575 363 575 328 575 c 0,41,42
 290 575 290 575 267.5 551.5 c 128,-1,43
 245 528 245 528 245 490 c 0,44,45
 245 463 245 463 257 440 c 128,-1,46
 269 417 269 417 298 385 c 1,47,48
 352 405 352 405 380 430.5 c 128,-1,49
 408 456 408 456 408 495 c 0,38,39
412 113 m 1,50,51
 256 272 l 1,52,53
 207 251 207 251 185 220.5 c 128,-1,54
 163 190 163 190 163 155 c 0,55,56
 163 110 163 110 196 81 c 128,-1,57
 229 52 229 52 280 52 c 0,58,59
 316 52 316 52 349 68 c 128,-1,60
 382 84 382 84 412 113 c 1,50,51
EndSplineSet
EndChar

StartChar: quotesingle
Encoding: 39 39 10
Width: 269
VWidth: 960
Flags: W
LayerCount: 2
Fore
SplineSet
60 361 m 1,0,-1
 83 660 l 1,1,-1
 222 660 l 1,2,-1
 222 655 l 1,3,-1
 124 361 l 1,4,-1
 60 361 l 1,0,-1
EndSplineSet
EndChar

StartChar: parenleft
Encoding: 40 40 11
Width: 440
VWidth: 960
Flags: W
LayerCount: 2
Fore
SplineSet
393 594 m 1,0,1
 340 559 340 559 300.5 521 c 128,-1,2
 261 483 261 483 235 441 c 128,-1,3
 209 399 209 399 196.5 351 c 128,-1,4
 184 303 184 303 184 247 c 0,5,6
 184 135 184 135 235 52.5 c 128,-1,7
 286 -30 286 -30 393 -100 c 1,8,9
 340 -181 l 1,10,11
 203 -106 203 -106 133 -1 c 128,-1,12
 63 104 63 104 63 247 c 256,13,14
 63 390 63 390 133 495 c 128,-1,15
 203 600 203 600 340 675 c 1,16,-1
 393 594 l 1,0,1
EndSplineSet
EndChar

StartChar: parenright
Encoding: 41 41 12
Width: 440
VWidth: 960
Flags: W
LayerCount: 2
Fore
SplineSet
48 594 m 1,0,1
 101 675 l 1,2,3
 237 600 237 600 307.5 494.5 c 128,-1,4
 378 389 378 389 378 247 c 256,5,6
 378 105 378 105 307.5 -0.5 c 128,-1,7
 237 -106 237 -106 101 -181 c 1,8,-1
 48 -100 l 1,9,10
 101 -65 101 -65 140.5 -27 c 128,-1,11
 180 11 180 11 206 53 c 128,-1,12
 232 95 232 95 244.5 143 c 128,-1,13
 257 191 257 191 257 247 c 0,14,15
 257 359 257 359 205.5 441 c 128,-1,16
 154 523 154 523 48 594 c 1,0,1
EndSplineSet
EndChar

StartChar: asterisk
Encoding: 42 42 13
Width: 430
VWidth: 960
Flags: W
LayerCount: 2
Fore
SplineSet
372 452 m 1,0,-1
 336 391 l 1,1,-1
 236 464 l 1,2,-1
 250 342 l 1,3,-1
 180 342 l 1,4,-1
 194 464 l 1,5,-1
 94 391 l 1,6,-1
 58 452 l 1,7,-1
 172 502 l 1,8,-1
 58 552 l 1,9,-1
 94 613 l 1,10,-1
 194 540 l 1,11,-1
 180 662 l 1,12,-1
 250 662 l 1,13,-1
 236 540 l 1,14,-1
 336 613 l 1,15,-1
 372 552 l 1,16,-1
 258 502 l 1,17,-1
 372 452 l 1,0,-1
EndSplineSet
EndChar

StartChar: plus
Encoding: 43 43 14
Width: 640
VWidth: 960
Flags: W
LayerCount: 2
Fore
SplineSet
263 367 m 1,0,-1
 263 558 l 1,1,-1
 377 558 l 1,2,-1
 377 367 l 1,3,-1
 569 367 l 1,4,-1
 569 257 l 1,5,-1
 377 257 l 1,6,-1
 377 66 l 1,7,-1
 263 66 l 1,8,-1
 263 257 l 1,9,-1
 71 257 l 1,10,-1
 71 367 l 1,11,-1
 263 367 l 1,0,-1
EndSplineSet
EndChar

StartChar: comma
Encoding: 44 44 15
Width: 269
VWidth: 960
Flags: W
LayerCount: 2
Fore
SplineSet
34 -134 m 1,0,1
 126 -116 126 -116 119 -40 c 1,2,-1
 68 -40 l 1,3,-1
 68 97 l 1,4,-1
 201 97 l 1,5,-1
 201 -19 l 2,6,7
 201 -103 201 -103 162 -141 c 128,-1,8
 123 -179 123 -179 47 -185 c 1,9,-1
 34 -134 l 1,0,1
EndSplineSet
EndChar

StartChar: hyphen
Encoding: 45 45 16
Width: 408
VWidth: 960
Flags: W
LayerCount: 2
Fore
SplineSet
352 207 m 1,0,-1
 56 207 l 1,1,-1
 56 326 l 1,2,-1
 352 326 l 1,3,-1
 352 207 l 1,0,-1
EndSplineSet
EndChar

StartChar: period
Encoding: 46 46 17
Width: 269
VWidth: 960
Flags: W
LayerCount: 2
Fore
SplineSet
201 -40 m 1,0,-1
 68 -40 l 1,1,-1
 68 97 l 1,2,-1
 201 97 l 1,3,-1
 201 -40 l 1,0,-1
EndSplineSet
EndChar

StartChar: slash
Encoding: 47 47 18
Width: 521
VWidth: 960
Flags: W
LayerCount: 2
Fore
SplineSet
427 758 m 1,0,-1
 532 758 l 1,1,-1
 80 -168 l 1,2,-1
 -25 -168 l 1,3,-1
 427 758 l 1,0,-1
EndSplineSet
EndChar

StartChar: zero
Encoding: 48 48 19
Width: 724
VWidth: 960
Flags: W
LayerCount: 2
Fore
SplineSet
667 311 m 256,0,1
 667 236 667 236 645 169.5 c 128,-1,2
 623 103 623 103 583 54 c 128,-1,3
 543 5 543 5 486.5 -23.5 c 128,-1,4
 430 -52 430 -52 361 -52 c 256,5,6
 292 -52 292 -52 236 -24 c 128,-1,7
 180 4 180 4 140 53 c 128,-1,8
 100 102 100 102 78.5 168 c 128,-1,9
 57 234 57 234 57 309 c 256,10,11
 57 384 57 384 79 450.5 c 128,-1,12
 101 517 101 517 141 566 c 128,-1,13
 181 615 181 615 237.5 643.5 c 128,-1,14
 294 672 294 672 363 672 c 256,15,16
 432 672 432 672 488 644 c 128,-1,17
 544 616 544 616 584 567 c 128,-1,18
 624 518 624 518 645.5 452 c 128,-1,19
 667 386 667 386 667 311 c 256,0,1
540 309 m 256,20,21
 540 361 540 361 527.5 407 c 128,-1,22
 515 453 515 453 491.5 487 c 128,-1,23
 468 521 468 521 435 541 c 128,-1,24
 402 561 402 561 361 561 c 256,25,26
 320 561 320 561 287.5 541.5 c 128,-1,27
 255 522 255 522 232 488.5 c 128,-1,28
 209 455 209 455 196.5 409 c 128,-1,29
 184 363 184 363 184 311 c 0,30,31
 184 258 184 258 196.5 212.5 c 128,-1,32
 209 167 209 167 232.5 132.5 c 128,-1,33
 256 98 256 98 289 78.5 c 128,-1,34
 322 59 322 59 363 59 c 256,35,36
 404 59 404 59 436.5 78.5 c 128,-1,37
 469 98 469 98 492 132 c 128,-1,38
 515 166 515 166 527.5 211.5 c 128,-1,39
 540 257 540 257 540 309 c 256,20,21
EndSplineSet
EndChar

StartChar: one
Encoding: 49 49 20
Width: 396
VWidth: 960
Flags: W
LayerCount: 2
Fore
SplineSet
26 605 m 1,0,-1
 214 665 l 1,1,-1
 300 665 l 1,2,-1
 300 -40 l 1,3,-1
 178 -40 l 1,4,-1
 178 540 l 1,5,-1
 52 505 l 1,6,-1
 26 605 l 1,0,-1
EndSplineSet
EndChar

StartChar: two
Encoding: 50 50 21
Width: 613
VWidth: 960
Flags: W
LayerCount: 2
Fore
SplineSet
308 560 m 256,0,1
 260 560 260 560 223.5 534 c 128,-1,2
 187 508 187 508 146 455 c 1,3,-1
 59 523 l 1,4,5
 84 558 84 558 110 585.5 c 128,-1,6
 136 613 136 613 166.5 631.5 c 128,-1,7
 197 650 197 650 233.5 660 c 128,-1,8
 270 670 270 670 317 670 c 0,9,10
 369 670 369 670 412 655 c 128,-1,11
 455 640 455 640 485 612 c 128,-1,12
 515 584 515 584 531.5 545.5 c 128,-1,13
 548 507 548 507 548 460 c 0,14,15
 548 418 548 418 537 385 c 128,-1,16
 526 352 526 352 503.5 321 c 128,-1,17
 481 290 481 290 446.5 258 c 128,-1,18
 412 226 412 226 366 188 c 2,19,-1
 222 68 l 1,20,-1
 555 68 l 1,21,-1
 555 -40 l 1,22,-1
 49 -40 l 1,23,-1
 49 57 l 1,24,-1
 290 262 l 2,25,26
 326 292 326 292 351 316.5 c 128,-1,27
 376 341 376 341 391.5 363 c 128,-1,28
 407 385 407 385 414 406 c 128,-1,29
 421 427 421 427 421 451 c 0,30,31
 421 503 421 503 388.5 531.5 c 128,-1,32
 356 560 356 560 308 560 c 256,0,1
EndSplineSet
EndChar

StartChar: three
Encoding: 51 51 22
Width: 618
VWidth: 960
Flags: W
LayerCount: 2
Fore
SplineSet
385 553 m 1,0,-1
 82 553 l 1,1,-1
 82 660 l 1,2,-1
 545 660 l 1,3,-1
 545 568 l 1,4,-1
 350 368 l 1,5,6
 390 363 390 363 427.5 349.5 c 128,-1,7
 465 336 465 336 493.5 312.5 c 128,-1,8
 522 289 522 289 539 254 c 128,-1,9
 556 219 556 219 556 170 c 256,10,11
 556 121 556 121 538 80.5 c 128,-1,12
 520 40 520 40 488 10.5 c 128,-1,13
 456 -19 456 -19 410.5 -35.5 c 128,-1,14
 365 -52 365 -52 311 -52 c 0,15,16
 219 -52 219 -52 153.5 -17.5 c 128,-1,17
 88 17 88 17 43 71 c 1,18,-1
 129 151 l 1,19,20
 167 106 167 106 210.5 82.5 c 128,-1,21
 254 59 254 59 313 59 c 0,22,23
 365 59 365 59 399.5 88 c 128,-1,24
 434 117 434 117 434 166 c 0,25,26
 434 219 434 219 391 247 c 128,-1,27
 348 275 348 275 273 275 c 2,28,-1
 216 275 l 1,29,-1
 196 352 l 1,30,-1
 385 553 l 1,0,-1
EndSplineSet
EndChar

StartChar: four
Encoding: 52 52 23
Width: 681
VWidth: 960
Flags: W
LayerCount: 2
Fore
SplineSet
425 665 m 1,0,-1
 530 665 l 1,1,-1
 530 218 l 1,2,-1
 630 218 l 1,3,-1
 630 117 l 1,4,-1
 530 117 l 1,5,-1
 530 -40 l 1,6,-1
 412 -40 l 1,7,-1
 412 117 l 1,8,-1
 59 117 l 1,9,-1
 36 205 l 1,10,-1
 425 665 l 1,0,-1
412 218 m 1,11,-1
 412 495 l 1,12,-1
 182 218 l 1,13,-1
 412 218 l 1,11,-1
EndSplineSet
EndChar

StartChar: five
Encoding: 53 53 24
Width: 622
VWidth: 960
Flags: W
LayerCount: 2
Fore
SplineSet
94 317 m 1,0,-1
 114 660 l 1,1,-1
 532 660 l 1,2,-1
 532 551 l 1,3,-1
 220 551 l 1,4,-1
 209 387 l 1,5,6
 234 396 234 396 259.5 401.5 c 128,-1,7
 285 407 285 407 320 407 c 0,8,9
 371 407 371 407 415.5 393.5 c 128,-1,10
 460 380 460 380 493 352.5 c 128,-1,11
 526 325 526 325 544.5 283.5 c 128,-1,12
 563 242 563 242 563 186 c 0,13,14
 563 132 563 132 544.5 88 c 128,-1,15
 526 44 526 44 492 13 c 128,-1,16
 458 -18 458 -18 410 -35 c 128,-1,17
 362 -52 362 -52 304 -52 c 0,18,19
 223 -52 223 -52 160 -22.5 c 128,-1,20
 97 7 97 7 47 55 c 1,21,-1
 123 144 l 1,22,23
 165 105 165 105 209.5 82.5 c 128,-1,24
 254 60 254 60 303 60 c 0,25,26
 366 60 366 60 404 93 c 128,-1,27
 442 126 442 126 442 182 c 0,28,29
 442 236 442 236 402.5 267.5 c 128,-1,30
 363 299 363 299 297 299 c 0,31,32
 259 299 259 299 227 290 c 128,-1,33
 195 281 195 281 168 268 c 1,34,-1
 94 317 l 1,0,-1
EndSplineSet
EndChar

StartChar: six
Encoding: 54 54 25
Width: 656
VWidth: 960
Flags: W
LayerCount: 2
Fore
SplineSet
571 594 m 1,0,1
 505 499 l 1,2,3
 468 528 468 528 433.5 544 c 128,-1,4
 399 560 399 560 353 560 c 0,5,6
 314 560 314 560 283.5 543.5 c 128,-1,7
 253 527 253 527 232 497 c 128,-1,8
 211 467 211 467 199 426.5 c 128,-1,9
 187 386 187 386 185 338 c 1,10,11
 199 351 199 351 215 364 c 128,-1,12
 231 377 231 377 251.5 386.5 c 128,-1,13
 272 396 272 396 296.5 402 c 128,-1,14
 321 408 321 408 352 408 c 0,15,16
 403 408 403 408 447.5 393.5 c 128,-1,17
 492 379 492 379 525.5 350.5 c 128,-1,18
 559 322 559 322 578 281 c 128,-1,19
 597 240 597 240 597 187 c 256,20,21
 597 134 597 134 577 90 c 128,-1,22
 557 46 557 46 522 14.5 c 128,-1,23
 487 -17 487 -17 439.5 -34.5 c 128,-1,24
 392 -52 392 -52 337 -52 c 0,25,26
 272 -52 272 -52 224.5 -33 c 128,-1,27
 177 -14 177 -14 142 21 c 0,28,29
 122 41 122 41 106 65.5 c 128,-1,30
 90 90 90 90 79 122.5 c 128,-1,31
 68 155 68 155 62.5 196 c 128,-1,32
 57 237 57 237 57 290 c 0,33,34
 57 371 57 371 76 440.5 c 128,-1,35
 95 510 95 510 132.5 561.5 c 128,-1,36
 170 613 170 613 226.5 642.5 c 128,-1,37
 283 672 283 672 357 672 c 0,38,39
 425 672 425 672 475 651.5 c 128,-1,40
 525 631 525 631 571 594 c 1,0,1
474 182 m 0,41,42
 474 236 474 236 435.5 270.5 c 128,-1,43
 397 305 397 305 331 305 c 0,44,45
 298 305 298 305 272 295 c 128,-1,46
 246 285 246 285 227.5 268.5 c 128,-1,47
 209 252 209 252 199 229 c 128,-1,48
 189 206 189 206 189 181 c 0,49,50
 189 126 189 126 228.5 90 c 128,-1,51
 268 54 268 54 334 54 c 256,52,53
 400 54 400 54 437 90.5 c 128,-1,54
 474 127 474 127 474 182 c 0,41,42
EndSplineSet
EndChar

StartChar: seven
Encoding: 55 55 26
Width: 609
VWidth: 960
Flags: W
LayerCount: 2
Fore
SplineSet
68 552 m 1,0,-1
 68 660 l 1,1,-1
 560 660 l 1,2,-1
 560 567 l 1,3,-1
 244 -40 l 1,4,-1
 106 -40 l 1,5,-1
 420 552 l 1,6,-1
 68 552 l 1,0,-1
EndSplineSet
EndChar

StartChar: eight
Encoding: 56 56 27
Width: 630
VWidth: 960
Flags: W
LayerCount: 2
Fore
SplineSet
582 154 m 0,0,1
 582 107 582 107 562 69 c 128,-1,2
 542 31 542 31 506 4.5 c 128,-1,3
 470 -22 470 -22 421 -36 c 128,-1,4
 372 -50 372 -50 315 -50 c 256,5,6
 258 -50 258 -50 209 -35.5 c 128,-1,7
 160 -21 160 -21 124 5 c 128,-1,8
 88 31 88 31 68 68.5 c 128,-1,9
 48 106 48 106 48 151 c 0,10,11
 48 216 48 216 81 257 c 128,-1,12
 114 298 114 298 174 323 c 1,13,14
 130 346 130 346 101 383.5 c 128,-1,15
 72 421 72 421 72 480 c 0,16,17
 72 520 72 520 90.5 555 c 128,-1,18
 109 590 109 590 141 615.5 c 128,-1,19
 173 641 173 641 217.5 655.5 c 128,-1,20
 262 670 262 670 315 670 c 0,21,22
 367 670 367 670 412 655.5 c 128,-1,23
 457 641 457 641 489 615.5 c 128,-1,24
 521 590 521 590 539.5 555 c 128,-1,25
 558 520 558 520 558 480 c 0,26,27
 558 421 558 421 529 383.5 c 128,-1,28
 500 346 500 346 456 323 c 1,29,30
 513 297 513 297 547.5 257 c 128,-1,31
 582 217 582 217 582 154 c 0,0,1
440 468 m 0,32,33
 440 510 440 510 406 538.5 c 128,-1,34
 372 567 372 567 315 567 c 256,35,36
 258 567 258 567 224 538.5 c 128,-1,37
 190 510 190 510 190 469 c 0,38,39
 190 422 190 422 225.5 393 c 128,-1,40
 261 364 261 364 315 364 c 256,41,42
 369 364 369 364 404.5 393 c 128,-1,43
 440 422 440 422 440 468 c 0,32,33
462 159 m 0,44,45
 462 183 462 183 450.5 203 c 128,-1,46
 439 223 439 223 419.5 237 c 128,-1,47
 400 251 400 251 373 258.5 c 128,-1,48
 346 266 346 266 315 266 c 256,49,50
 284 266 284 266 257 258.5 c 128,-1,51
 230 251 230 251 210.5 237 c 128,-1,52
 191 223 191 223 179.5 203 c 128,-1,53
 168 183 168 183 168 159 c 0,54,55
 168 114 168 114 207 83.5 c 128,-1,56
 246 53 246 53 315 53 c 256,57,58
 384 53 384 53 423 83.5 c 128,-1,59
 462 114 462 114 462 159 c 0,44,45
EndSplineSet
EndChar

StartChar: nine
Encoding: 57 57 28
Width: 656
VWidth: 960
Flags: W
LayerCount: 2
Fore
SplineSet
599 330 m 0,0,1
 599 245 599 245 578.5 175 c 128,-1,2
 558 105 558 105 519.5 54.5 c 128,-1,3
 481 4 481 4 425 -24 c 128,-1,4
 369 -52 369 -52 299 -52 c 0,5,6
 226 -52 226 -52 173 -28.5 c 128,-1,7
 120 -5 120 -5 75 32 c 1,8,-1
 142 126 l 1,9,10
 182 92 182 92 219.5 76 c 128,-1,11
 257 60 257 60 302 60 c 0,12,13
 341 60 341 60 371.5 76 c 128,-1,14
 402 92 402 92 423.5 121.5 c 128,-1,15
 445 151 445 151 457 191.5 c 128,-1,16
 469 232 469 232 471 280 c 1,17,18
 445 248 445 248 404.5 227 c 128,-1,19
 364 206 364 206 307 206 c 0,20,21
 251 206 251 206 205.5 221.5 c 128,-1,22
 160 237 160 237 127.5 266.5 c 128,-1,23
 95 296 95 296 77 337 c 128,-1,24
 59 378 59 378 59 429 c 0,25,26
 59 481 59 481 78 525.5 c 128,-1,27
 97 570 97 570 131.5 602.5 c 128,-1,28
 166 635 166 635 214 653.5 c 128,-1,29
 262 672 262 672 320 672 c 0,30,31
 386 672 386 672 431.5 653.5 c 128,-1,32
 477 635 477 635 514 598 c 0,33,34
 553 559 553 559 576 496.5 c 128,-1,35
 599 434 599 434 599 330 c 0,0,1
467 436 m 0,36,37
 467 464 467 464 456.5 487.5 c 128,-1,38
 446 511 446 511 427 528.5 c 128,-1,39
 408 546 408 546 381 556 c 128,-1,40
 354 566 354 566 321 566 c 0,41,42
 255 566 255 566 218.5 528 c 128,-1,43
 182 490 182 490 182 435 c 0,44,45
 182 379 182 379 220.5 344 c 128,-1,46
 259 309 259 309 325 309 c 0,47,48
 358 309 358 309 384.5 319 c 128,-1,49
 411 329 411 329 429.5 346.5 c 128,-1,50
 448 364 448 364 457.5 387 c 128,-1,51
 467 410 467 410 467 436 c 0,36,37
EndSplineSet
EndChar

StartChar: colon
Encoding: 58 58 29
Width: 279
VWidth: 960
Flags: W
LayerCount: 2
Fore
SplineSet
206 351 m 1,0,-1
 73 351 l 1,1,-1
 73 488 l 1,2,-1
 206 488 l 1,3,-1
 206 351 l 1,0,-1
206 -40 m 1,4,-1
 73 -40 l 1,5,-1
 73 97 l 1,6,-1
 206 97 l 1,7,-1
 206 -40 l 1,4,-1
EndSplineSet
EndChar

StartChar: semicolon
Encoding: 59 59 30
Width: 279
VWidth: 960
Flags: W
LayerCount: 2
Fore
SplineSet
206 351 m 1,0,-1
 73 351 l 1,1,-1
 73 488 l 1,2,-1
 206 488 l 1,3,-1
 206 351 l 1,0,-1
39 -134 m 1,4,5
 131 -116 131 -116 124 -40 c 1,6,-1
 73 -40 l 1,7,-1
 73 97 l 1,8,-1
 206 97 l 1,9,-1
 206 -19 l 2,10,11
 206 -103 206 -103 167 -141 c 128,-1,12
 128 -179 128 -179 52 -185 c 1,13,-1
 39 -134 l 1,4,5
EndSplineSet
EndChar

StartChar: less
Encoding: 60 60 31
Width: 640
VWidth: 960
Flags: W
LayerCount: 2
Fore
SplineSet
70 366 m 1,0,-1
 547 587 l 1,1,-1
 547 472 l 1,2,-1
 190 313 l 1,3,-1
 547 153 l 1,4,-1
 547 37 l 1,5,-1
 70 258 l 1,6,-1
 70 366 l 1,0,-1
EndSplineSet
EndChar

StartChar: equal
Encoding: 61 61 32
Width: 640
VWidth: 960
Flags: W
LayerCount: 2
Fore
SplineSet
86 493 m 1,0,-1
 554 493 l 1,1,-1
 554 381 l 1,2,-1
 86 381 l 1,3,-1
 86 493 l 1,0,-1
86 243 m 1,4,-1
 554 243 l 1,5,-1
 554 131 l 1,6,-1
 86 131 l 1,7,-1
 86 243 l 1,4,-1
EndSplineSet
EndChar

StartChar: greater
Encoding: 62 62 33
Width: 640
VWidth: 960
Flags: W
LayerCount: 2
Fore
SplineSet
570 258 m 1,0,-1
 93 37 l 1,1,-1
 93 152 l 1,2,-1
 450 311 l 1,3,-1
 93 471 l 1,4,-1
 93 587 l 1,5,-1
 570 366 l 1,6,-1
 570 258 l 1,0,-1
EndSplineSet
EndChar

StartChar: question
Encoding: 63 63 34
Width: 541
VWidth: 960
Flags: W
LayerCount: 2
Fore
SplineSet
192 348 m 1,0,1
 288 352 288 352 332.5 381 c 128,-1,2
 377 410 377 410 377 461 c 0,3,4
 377 504 377 504 346.5 530.5 c 128,-1,5
 316 557 316 557 262 557 c 0,6,7
 214 557 214 557 174.5 536.5 c 128,-1,8
 135 516 135 516 99 478 c 1,9,-1
 24 558 l 1,10,11
 68 608 68 608 126 638.5 c 128,-1,12
 184 669 184 669 265 669 c 0,13,14
 317 669 317 669 360.5 655 c 128,-1,15
 404 641 404 641 434.5 614.5 c 128,-1,16
 465 588 465 588 482 550 c 128,-1,17
 499 512 499 512 499 465 c 0,18,19
 499 417 499 417 483 382 c 128,-1,20
 467 347 467 347 440 323 c 128,-1,21
 413 299 413 299 376.5 284 c 128,-1,22
 340 269 340 269 298 262 c 1,23,-1
 288 181 l 1,24,-1
 207 181 l 1,25,-1
 187 343 l 1,26,-1
 192 348 l 1,0,1
312 -40 m 1,27,-1
 178 -40 l 1,28,-1
 178 97 l 1,29,-1
 312 97 l 1,30,-1
 312 -40 l 1,27,-1
EndSplineSet
EndChar

StartChar: at
Encoding: 64 64 35
Width: 980
VWidth: 960
Flags: W
LayerCount: 2
Fore
SplineSet
927 276 m 0,0,1
 927 213 927 213 911 166 c 128,-1,2
 895 119 895 119 868.5 88.5 c 128,-1,3
 842 58 842 58 807 42.5 c 128,-1,4
 772 27 772 27 733 27 c 0,5,6
 674 27 674 27 638 48 c 128,-1,7
 602 69 602 69 585 97 c 1,8,9
 558 69 558 69 520.5 48 c 128,-1,10
 483 27 483 27 430 27 c 0,11,12
 392 27 392 27 359.5 40.5 c 128,-1,13
 327 54 327 54 302 78.5 c 128,-1,14
 277 103 277 103 263 138 c 128,-1,15
 249 173 249 173 249 216 c 0,16,17
 249 269 249 269 268 314.5 c 128,-1,18
 287 360 287 360 319 394 c 128,-1,19
 351 428 351 428 391.5 447 c 128,-1,20
 432 466 432 466 476 466 c 0,21,22
 530 466 530 466 563.5 444 c 128,-1,23
 597 422 597 422 617 392 c 1,24,-1
 629 452 l 1,25,-1
 726 437 l 1,26,-1
 682 185 l 2,27,28
 680 171 680 171 678.5 160 c 128,-1,29
 677 149 677 149 677 142 c 0,30,31
 677 110 677 110 697.5 90.5 c 128,-1,32
 718 71 718 71 755 71 c 0,33,34
 782 71 782 71 806 84 c 128,-1,35
 830 97 830 97 848 122.5 c 128,-1,36
 866 148 866 148 876.5 186.5 c 128,-1,37
 887 225 887 225 887 276 c 0,38,39
 887 345 887 345 857 409.5 c 128,-1,40
 827 474 827 474 774 524 c 128,-1,41
 721 574 721 574 648.5 604 c 128,-1,42
 576 634 576 634 491 634 c 0,43,44
 405 634 405 634 332.5 602.5 c 128,-1,45
 260 571 260 571 206.5 516.5 c 128,-1,46
 153 462 153 462 123 389 c 128,-1,47
 93 316 93 316 93 234 c 0,48,49
 93 151 93 151 123 78.5 c 128,-1,50
 153 6 153 6 207 -48 c 128,-1,51
 261 -102 261 -102 335.5 -133 c 128,-1,52
 410 -164 410 -164 499 -164 c 0,53,54
 573 -164 573 -164 631 -147 c 128,-1,55
 689 -130 689 -130 746 -97 c 1,56,-1
 764 -127 l 1,57,58
 706 -162 706 -162 641.5 -182 c 128,-1,59
 577 -202 577 -202 499 -202 c 0,60,61
 403 -202 403 -202 321.5 -167.5 c 128,-1,62
 240 -133 240 -133 180 -73.5 c 128,-1,63
 120 -14 120 -14 86.5 65 c 128,-1,64
 53 144 53 144 53 234 c 256,65,66
 53 324 53 324 87 403.5 c 128,-1,67
 121 483 121 483 180 542.5 c 128,-1,68
 239 602 239 602 319 637 c 128,-1,69
 399 672 399 672 491 672 c 256,70,71
 583 672 583 672 662.5 639 c 128,-1,72
 742 606 742 606 801 551.5 c 128,-1,73
 860 497 860 497 893.5 425.5 c 128,-1,74
 927 354 927 354 927 276 c 0,0,1
595 272 m 0,75,76
 595 320 595 320 565 350 c 128,-1,77
 535 380 535 380 490 380 c 0,78,79
 463 380 463 380 437.5 368 c 128,-1,80
 412 356 412 356 393 335 c 128,-1,81
 374 314 374 314 362.5 285 c 128,-1,82
 351 256 351 256 351 222 c 0,83,84
 351 170 351 170 380.5 142 c 128,-1,85
 410 114 410 114 457 114 c 0,86,87
 484 114 484 114 509 126.5 c 128,-1,88
 534 139 534 139 553 160.5 c 128,-1,89
 572 182 572 182 583.5 210.5 c 128,-1,90
 595 239 595 239 595 272 c 0,75,76
EndSplineSet
EndChar

StartChar: A
Encoding: 65 65 36
Width: 790
VWidth: 960
Flags: W
LayerCount: 2
Fore
SplineSet
452 665 m 1,0,-1
 760 -40 l 1,1,-1
 630 -40 l 1,2,-1
 559 129 l 1,3,-1
 228 129 l 1,4,-1
 156 -40 l 1,5,-1
 30 -40 l 1,6,-1
 338 665 l 1,7,-1
 452 665 l 1,0,-1
514 238 m 1,8,-1
 393 518 l 1,9,-1
 273 238 l 1,10,-1
 514 238 l 1,8,-1
EndSplineSet
EndChar

StartChar: B
Encoding: 66 66 37
Width: 722
VWidth: 960
Flags: W
LayerCount: 2
Fore
SplineSet
404 660 m 2,0,1
 510 660 510 660 572 612 c 128,-1,2
 634 564 634 564 634 481 c 0,3,4
 634 449 634 449 625.5 424 c 128,-1,5
 617 399 617 399 603.5 380.5 c 128,-1,6
 590 362 590 362 571.5 348 c 128,-1,7
 553 334 553 334 534 324 c 1,8,9
 565 313 565 313 590.5 298.5 c 128,-1,10
 616 284 616 284 634.5 264 c 128,-1,11
 653 244 653 244 663 216.5 c 128,-1,12
 673 189 673 189 673 153 c 0,13,14
 673 106 673 106 654.5 70 c 128,-1,15
 636 34 636 34 602 9.5 c 128,-1,16
 568 -15 568 -15 520 -27.5 c 128,-1,17
 472 -40 472 -40 414 -40 c 2,18,-1
 90 -40 l 1,19,-1
 90 660 l 1,20,-1
 404 660 l 2,0,1
379 365 m 2,21,22
 439 365 439 365 475 388.5 c 128,-1,23
 511 412 511 412 511 461 c 0,24,25
 511 504 511 504 479.5 527.5 c 128,-1,26
 448 551 448 551 388 551 c 2,27,-1
 211 551 l 1,28,-1
 211 365 l 1,29,-1
 379 365 l 2,21,22
415 69 m 2,30,31
 478 69 478 69 514 93.5 c 128,-1,32
 550 118 550 118 550 166 c 0,33,34
 550 211 550 211 514.5 236 c 128,-1,35
 479 261 479 261 406 261 c 2,36,-1
 211 261 l 1,37,-1
 211 69 l 1,38,-1
 415 69 l 2,30,31
EndSplineSet
EndChar

StartChar: C
Encoding: 67 67 38
Width: 738
VWidth: 960
Flags: W
LayerCount: 2
Fore
SplineSet
699 72 m 1,0,1
 672 43 672 43 642.5 20.5 c 128,-1,2
 613 -2 613 -2 579 -18.5 c 128,-1,3
 545 -35 545 -35 504.5 -43.5 c 128,-1,4
 464 -52 464 -52 415 -52 c 0,5,6
 338 -52 338 -52 273 -24 c 128,-1,7
 208 4 208 4 160.5 52.5 c 128,-1,8
 113 101 113 101 86 167 c 128,-1,9
 59 233 59 233 59 309 c 0,10,11
 59 384 59 384 85.5 450 c 128,-1,12
 112 516 112 516 160 565.5 c 128,-1,13
 208 615 208 615 274 643.5 c 128,-1,14
 340 672 340 672 420 672 c 0,15,16
 468 672 468 672 507.5 664 c 128,-1,17
 547 656 547 656 580 641.5 c 128,-1,18
 613 627 613 627 641 607 c 128,-1,19
 669 587 669 587 694 563 c 1,20,-1
 615 472 l 1,21,22
 573 511 573 511 526 535 c 128,-1,23
 479 559 479 559 419 559 c 0,24,25
 369 559 369 559 326.5 539.5 c 128,-1,26
 284 520 284 520 253 486.5 c 128,-1,27
 222 453 222 453 205 408 c 128,-1,28
 188 363 188 363 188 311 c 256,29,30
 188 259 188 259 205 213.5 c 128,-1,31
 222 168 222 168 253 134 c 128,-1,32
 284 100 284 100 326.5 80.5 c 128,-1,33
 369 61 369 61 419 61 c 0,34,35
 483 61 483 61 529 85.5 c 128,-1,36
 575 110 575 110 620 152 c 1,37,-1
 699 72 l 1,0,1
EndSplineSet
EndChar

StartChar: D
Encoding: 68 68 39
Width: 782
VWidth: 960
Flags: W
LayerCount: 2
Fore
SplineSet
723 311 m 256,0,1
 723 237 723 237 696 172.5 c 128,-1,2
 669 108 669 108 619.5 61 c 128,-1,3
 570 14 570 14 501.5 -13 c 128,-1,4
 433 -40 433 -40 351 -40 c 2,5,-1
 90 -40 l 1,6,-1
 90 660 l 1,7,-1
 351 660 l 2,8,9
 433 660 433 660 501.5 633.5 c 128,-1,10
 570 607 570 607 619.5 560 c 128,-1,11
 669 513 669 513 696 449 c 128,-1,12
 723 385 723 385 723 311 c 256,0,1
594 309 m 256,13,14
 594 361 594 361 576.5 404.5 c 128,-1,15
 559 448 559 448 527.5 480 c 128,-1,16
 496 512 496 512 451 530 c 128,-1,17
 406 548 406 548 351 548 c 2,18,-1
 213 548 l 1,19,-1
 213 72 l 1,20,-1
 351 72 l 2,21,22
 406 72 406 72 451 89.5 c 128,-1,23
 496 107 496 107 527.5 138.5 c 128,-1,24
 559 170 559 170 576.5 213.5 c 128,-1,25
 594 257 594 257 594 309 c 256,13,14
EndSplineSet
EndChar

StartChar: E
Encoding: 69 69 40
Width: 670
VWidth: 960
Flags: W
LayerCount: 2
Fore
SplineSet
609 660 m 1,0,-1
 609 550 l 1,1,-1
 213 550 l 1,2,-1
 213 368 l 1,3,-1
 564 368 l 1,4,-1
 564 258 l 1,5,-1
 213 258 l 1,6,-1
 213 70 l 1,7,-1
 614 70 l 1,8,-1
 614 -40 l 1,9,-1
 90 -40 l 1,10,-1
 90 660 l 1,11,-1
 609 660 l 1,0,-1
EndSplineSet
EndChar

StartChar: F
Encoding: 70 70 41
Width: 656
VWidth: 960
Flags: W
LayerCount: 2
Fore
SplineSet
611 660 m 1,0,-1
 611 548 l 1,1,-1
 213 548 l 1,2,-1
 213 357 l 1,3,-1
 566 357 l 1,4,-1
 566 245 l 1,5,-1
 213 245 l 1,6,-1
 213 -40 l 1,7,-1
 90 -40 l 1,8,-1
 90 660 l 1,9,-1
 611 660 l 1,0,-1
EndSplineSet
EndChar

StartChar: G
Encoding: 71 71 42
Width: 784
VWidth: 960
Flags: W
LayerCount: 2
Fore
SplineSet
714 57 m 1,0,1
 688 35 688 35 656.5 15 c 128,-1,2
 625 -5 625 -5 588.5 -20 c 128,-1,3
 552 -35 552 -35 510 -43.5 c 128,-1,4
 468 -52 468 -52 422 -52 c 0,5,6
 340 -52 340 -52 273 -24.5 c 128,-1,7
 206 3 206 3 158.5 51.5 c 128,-1,8
 111 100 111 100 85 166 c 128,-1,9
 59 232 59 232 59 309 c 0,10,11
 59 383 59 383 85.5 449 c 128,-1,12
 112 515 112 515 160 564.5 c 128,-1,13
 208 614 208 614 274.5 643 c 128,-1,14
 341 672 341 672 420 672 c 0,15,16
 466 672 466 672 503.5 665.5 c 128,-1,17
 541 659 541 659 573 647 c 128,-1,18
 605 635 605 635 633.5 617.5 c 128,-1,19
 662 600 662 600 689 577 c 1,20,-1
 611 484 l 1,21,22
 591 501 591 501 570 515 c 128,-1,23
 549 529 549 529 526 538.5 c 128,-1,24
 503 548 503 548 475.5 553.5 c 128,-1,25
 448 559 448 559 415 559 c 0,26,27
 367 559 367 559 325.5 539.5 c 128,-1,28
 284 520 284 520 253.5 486 c 128,-1,29
 223 452 223 452 205.5 407 c 128,-1,30
 188 362 188 362 188 311 c 0,31,32
 188 257 188 257 205 211 c 128,-1,33
 222 165 222 165 253.5 131.5 c 128,-1,34
 285 98 285 98 328.5 79 c 128,-1,35
 372 60 372 60 426 60 c 0,36,37
 476 60 476 60 519.5 74.5 c 128,-1,38
 563 89 563 89 595 113 c 1,39,-1
 595 244 l 1,40,-1
 416 244 l 1,41,-1
 416 351 l 1,42,-1
 714 351 l 1,43,-1
 714 57 l 1,0,1
EndSplineSet
EndChar

StartChar: H
Encoding: 72 72 43
Width: 760
VWidth: 960
Flags: W
LayerCount: 2
Fore
SplineSet
547 255 m 1,0,-1
 213 255 l 1,1,-1
 213 -40 l 1,2,-1
 90 -40 l 1,3,-1
 90 660 l 1,4,-1
 213 660 l 1,5,-1
 213 369 l 1,6,-1
 547 369 l 1,7,-1
 547 660 l 1,8,-1
 670 660 l 1,9,-1
 670 -40 l 1,10,-1
 547 -40 l 1,11,-1
 547 255 l 1,0,-1
EndSplineSet
EndChar

StartChar: I
Encoding: 73 73 44
Width: 317
VWidth: 960
Flags: W
LayerCount: 2
Fore
SplineSet
97 660 m 1,0,-1
 220 660 l 1,1,-1
 220 -40 l 1,2,-1
 97 -40 l 1,3,-1
 97 660 l 1,0,-1
EndSplineSet
EndChar

StartChar: J
Encoding: 74 74 45
Width: 559
VWidth: 960
Flags: W
LayerCount: 2
Fore
SplineSet
480 198 m 2,0,1
 480 136 480 136 462.5 89.5 c 128,-1,2
 445 43 445 43 414 12 c 128,-1,3
 383 -19 383 -19 340 -34.5 c 128,-1,4
 297 -50 297 -50 245 -50 c 0,5,6
 164 -50 164 -50 110 -17.5 c 128,-1,7
 56 15 56 15 21 63 c 1,8,-1
 102 146 l 1,9,10
 133 107 133 107 165.5 85.5 c 128,-1,11
 198 64 198 64 243 64 c 0,12,13
 293 64 293 64 323.5 97.5 c 128,-1,14
 354 131 354 131 354 201 c 2,15,-1
 354 660 l 1,16,-1
 480 660 l 1,17,-1
 480 198 l 2,0,1
EndSplineSet
EndChar

StartChar: K
Encoding: 75 75 46
Width: 725
VWidth: 960
Flags: W
LayerCount: 2
Fore
SplineSet
406 359 m 1,0,-1
 710 -40 l 1,1,-1
 561 -40 l 1,2,-1
 322 275 l 1,3,-1
 213 163 l 1,4,-1
 213 -40 l 1,5,-1
 90 -40 l 1,6,-1
 90 660 l 1,7,-1
 213 660 l 1,8,-1
 213 308 l 1,9,-1
 546 660 l 1,10,-1
 697 660 l 1,11,-1
 406 359 l 1,0,-1
EndSplineSet
EndChar

StartChar: L
Encoding: 76 76 47
Width: 619
VWidth: 960
Flags: W
LayerCount: 2
Fore
SplineSet
90 -40 m 1,0,-1
 90 660 l 1,1,-1
 213 660 l 1,2,-1
 213 72 l 1,3,-1
 581 72 l 1,4,-1
 581 -40 l 1,5,-1
 90 -40 l 1,0,-1
EndSplineSet
EndChar

StartChar: M
Encoding: 77 77 48
Width: 868
VWidth: 960
Flags: W
LayerCount: 2
Fore
SplineSet
655 462 m 1,0,-1
 434 132 l 1,1,-1
 430 132 l 1,2,-1
 211 460 l 1,3,-1
 211 -40 l 1,4,-1
 90 -40 l 1,5,-1
 90 660 l 1,6,-1
 221 660 l 1,7,-1
 434 329 l 1,8,-1
 647 660 l 1,9,-1
 778 660 l 1,10,-1
 778 -40 l 1,11,-1
 655 -40 l 1,12,-1
 655 462 l 1,0,-1
EndSplineSet
EndChar

StartChar: N
Encoding: 78 78 49
Width: 790
VWidth: 960
Flags: W
LayerCount: 2
Fore
SplineSet
579 176 m 1,0,-1
 579 660 l 1,1,-1
 700 660 l 1,2,-1
 700 -40 l 1,3,-1
 597 -40 l 1,4,-1
 211 458 l 1,5,-1
 211 -40 l 1,6,-1
 90 -40 l 1,7,-1
 90 660 l 1,8,-1
 204 660 l 1,9,-1
 579 176 l 1,0,-1
EndSplineSet
EndChar

StartChar: O
Encoding: 79 79 50
Width: 850
VWidth: 960
Flags: W
LayerCount: 2
Fore
SplineSet
791 311 m 256,0,1
 791 237 791 237 764 171 c 128,-1,2
 737 105 737 105 688 55.5 c 128,-1,3
 639 6 639 6 572 -23 c 128,-1,4
 505 -52 505 -52 424 -52 c 256,5,6
 343 -52 343 -52 276 -23.5 c 128,-1,7
 209 5 209 5 161 54 c 128,-1,8
 113 103 113 103 86 169 c 128,-1,9
 59 235 59 235 59 309 c 256,10,11
 59 383 59 383 86 449 c 128,-1,12
 113 515 113 515 162 564.5 c 128,-1,13
 211 614 211 614 278 643 c 128,-1,14
 345 672 345 672 426 672 c 256,15,16
 507 672 507 672 574 643.5 c 128,-1,17
 641 615 641 615 689 566 c 128,-1,18
 737 517 737 517 764 451 c 128,-1,19
 791 385 791 385 791 311 c 256,0,1
662 309 m 256,20,21
 662 360 662 360 644.5 405.5 c 128,-1,22
 627 451 627 451 595.5 485 c 128,-1,23
 564 519 564 519 520 539 c 128,-1,24
 476 559 476 559 424 559 c 256,25,26
 372 559 372 559 328.5 539.5 c 128,-1,27
 285 520 285 520 254 486.5 c 128,-1,28
 223 453 223 453 205.5 407.5 c 128,-1,29
 188 362 188 362 188 311 c 256,30,31
 188 260 188 260 205.5 214.5 c 128,-1,32
 223 169 223 169 254.5 135 c 128,-1,33
 286 101 286 101 330 81 c 128,-1,34
 374 61 374 61 426 61 c 256,35,36
 478 61 478 61 521.5 80.5 c 128,-1,37
 565 100 565 100 596 133.5 c 128,-1,38
 627 167 627 167 644.5 212.5 c 128,-1,39
 662 258 662 258 662 309 c 256,20,21
EndSplineSet
EndChar

StartChar: P
Encoding: 80 80 51
Width: 668
VWidth: 960
Flags: W
LayerCount: 2
Fore
SplineSet
632 425 m 0,0,1
 632 366 632 366 610 321 c 128,-1,2
 588 276 588 276 550 246 c 128,-1,3
 512 216 512 216 461 200.5 c 128,-1,4
 410 185 410 185 352 185 c 2,5,-1
 213 185 l 1,6,-1
 213 -40 l 1,7,-1
 90 -40 l 1,8,-1
 90 660 l 1,9,-1
 366 660 l 2,10,11
 427 660 427 660 476.5 643.5 c 128,-1,12
 526 627 526 627 560.5 596 c 128,-1,13
 595 565 595 565 613.5 522 c 128,-1,14
 632 479 632 479 632 425 c 0,0,1
507 422 m 0,15,16
 507 485 507 485 466 516.5 c 128,-1,17
 425 548 425 548 356 548 c 2,18,-1
 213 548 l 1,19,-1
 213 296 l 1,20,-1
 356 296 l 2,21,22
 426 296 426 296 466.5 330.5 c 128,-1,23
 507 365 507 365 507 422 c 0,15,16
EndSplineSet
EndChar

StartChar: Q
Encoding: 81 81 52
Width: 850
VWidth: 960
Flags: W
LayerCount: 2
Fore
SplineSet
720 95 m 1,0,1
 800 27 l 1,2,-1
 721 -61 l 1,3,-1
 637 14 l 1,4,5
 592 -17 592 -17 539 -34.5 c 128,-1,6
 486 -52 486 -52 424 -52 c 0,7,8
 343 -52 343 -52 276 -23.5 c 128,-1,9
 209 5 209 5 161 54 c 128,-1,10
 113 103 113 103 86 169 c 128,-1,11
 59 235 59 235 59 309 c 256,12,13
 59 383 59 383 86 449 c 128,-1,14
 113 515 113 515 162 564.5 c 128,-1,15
 211 614 211 614 278 643 c 128,-1,16
 345 672 345 672 426 672 c 256,17,18
 507 672 507 672 574 643.5 c 128,-1,19
 641 615 641 615 689 566 c 128,-1,20
 737 517 737 517 764 451 c 128,-1,21
 791 385 791 385 791 311 c 0,22,23
 791 251 791 251 772.5 196 c 128,-1,24
 754 141 754 141 720 95 c 1,0,1
546 95 m 1,25,-1
 426 197 l 1,26,-1
 505 287 l 1,27,-1
 626 177 l 1,28,29
 644 205 644 205 653 238.5 c 128,-1,30
 662 272 662 272 662 309 c 0,31,32
 662 360 662 360 644.5 405.5 c 128,-1,33
 627 451 627 451 595.5 485 c 128,-1,34
 564 519 564 519 520 539 c 128,-1,35
 476 559 476 559 424 559 c 256,36,37
 372 559 372 559 328.5 539.5 c 128,-1,38
 285 520 285 520 254 486.5 c 128,-1,39
 223 453 223 453 205.5 407.5 c 128,-1,40
 188 362 188 362 188 311 c 256,41,42
 188 260 188 260 205.5 214.5 c 128,-1,43
 223 169 223 169 254.5 135 c 128,-1,44
 286 101 286 101 330 81 c 128,-1,45
 374 61 374 61 426 61 c 0,46,47
 461 61 461 61 491 70 c 128,-1,48
 521 79 521 79 546 95 c 1,25,-1
EndSplineSet
EndChar

StartChar: R
Encoding: 82 82 53
Width: 723
VWidth: 960
Flags: W
LayerCount: 2
Fore
SplineSet
684 -40 m 1,0,-1
 539 -40 l 1,1,-1
 367 204 l 1,2,-1
 213 204 l 1,3,-1
 213 -40 l 1,4,-1
 90 -40 l 1,5,-1
 90 660 l 1,6,-1
 402 660 l 2,7,8
 462 660 462 660 510.5 644.5 c 128,-1,9
 559 629 559 629 592.5 600.5 c 128,-1,10
 626 572 626 572 644 530.5 c 128,-1,11
 662 489 662 489 662 438 c 0,12,13
 662 394 662 394 649.5 359.5 c 128,-1,14
 637 325 637 325 615 298.5 c 128,-1,15
 593 272 593 272 562.5 253.5 c 128,-1,16
 532 235 532 235 495 225 c 1,17,-1
 684 -40 l 1,0,-1
537 431 m 0,18,19
 537 489 537 489 499 518.5 c 128,-1,20
 461 548 461 548 392 548 c 2,21,-1
 213 548 l 1,22,-1
 213 313 l 1,23,-1
 393 313 l 2,24,25
 459 313 459 313 498 345 c 128,-1,26
 537 377 537 377 537 431 c 0,18,19
EndSplineSet
EndChar

StartChar: S
Encoding: 83 83 54
Width: 640
VWidth: 960
Flags: W
LayerCount: 2
Fore
SplineSet
194 477 m 0,0,1
 194 456 194 456 201 441 c 128,-1,2
 208 426 208 426 226.5 413 c 128,-1,3
 245 400 245 400 277.5 389 c 128,-1,4
 310 378 310 378 360 366 c 0,5,6
 415 352 415 352 457.5 335 c 128,-1,7
 500 318 500 318 528 293.5 c 128,-1,8
 556 269 556 269 570.5 236.5 c 128,-1,9
 585 204 585 204 585 160 c 0,10,11
 585 110 585 110 566.5 71 c 128,-1,12
 548 32 548 32 515 5 c 128,-1,13
 482 -22 482 -22 436 -36 c 128,-1,14
 390 -50 390 -50 335 -50 c 0,15,16
 254 -50 254 -50 180 -22.5 c 128,-1,17
 106 5 106 5 43 62 c 1,18,-1
 117 150 l 1,19,20
 168 106 168 106 220 82.5 c 128,-1,21
 272 59 272 59 338 59 c 0,22,23
 395 59 395 59 428.5 83 c 128,-1,24
 462 107 462 107 462 148 c 0,25,26
 462 167 462 167 455.5 182 c 128,-1,27
 449 197 449 197 431.5 209.5 c 128,-1,28
 414 222 414 222 383.5 233 c 128,-1,29
 353 244 353 244 304 256 c 0,30,31
 248 269 248 269 204.5 285 c 128,-1,32
 161 301 161 301 131.5 325 c 128,-1,33
 102 349 102 349 86.5 383 c 128,-1,34
 71 417 71 417 71 466 c 0,35,36
 71 512 71 512 89 549.5 c 128,-1,37
 107 587 107 587 138.5 614 c 128,-1,38
 170 641 170 641 214 655.5 c 128,-1,39
 258 670 258 670 310 670 c 0,40,41
 387 670 387 670 448.5 647.5 c 128,-1,42
 510 625 510 625 564 582 c 1,43,-1
 498 489 l 1,44,45
 450 524 450 524 403 542.5 c 128,-1,46
 356 561 356 561 308 561 c 0,47,48
 254 561 254 561 224 536.5 c 128,-1,49
 194 512 194 512 194 477 c 0,0,1
EndSplineSet
EndChar

StartChar: T
Encoding: 84 84 55
Width: 648
VWidth: 960
Flags: W
LayerCount: 2
Fore
SplineSet
386 546 m 1,0,-1
 386 -40 l 1,1,-1
 262 -40 l 1,2,-1
 262 546 l 1,3,-1
 40 546 l 1,4,-1
 40 660 l 1,5,-1
 608 660 l 1,6,-1
 608 546 l 1,7,-1
 386 546 l 1,0,-1
EndSplineSet
EndChar

StartChar: U
Encoding: 85 85 56
Width: 757
VWidth: 960
Flags: W
LayerCount: 2
Fore
SplineSet
678 660 m 1,0,-1
 678 263 l 2,1,2
 678 185 678 185 656.5 126 c 128,-1,3
 635 67 635 67 596 27.5 c 128,-1,4
 557 -12 557 -12 501.5 -31.5 c 128,-1,5
 446 -51 446 -51 377 -51 c 0,6,7
 309 -51 309 -51 254 -31.5 c 128,-1,8
 199 -12 199 -12 160 27 c 128,-1,9
 121 66 121 66 100 123.5 c 128,-1,10
 79 181 79 181 79 257 c 2,11,12
 79 660 l 1,13,-1
 202 660 l 1,14,-1
 202 262 l 2,15,16
 202 164 202 164 249 113 c 128,-1,17
 296 62 296 62 379 62 c 0,18,19
 461 62 461 62 508 111 c 128,-1,20
 555 160 555 160 555 257 c 2,21,-1
 555 660 l 1,22,-1
 678 660 l 1,0,-1
EndSplineSet
EndChar

StartChar: V
Encoding: 86 86 57
Width: 750
VWidth: 960
Flags: W
LayerCount: 2
Fore
SplineSet
377 122 m 1,0,-1
 587 660 l 1,1,-1
 720 660 l 1,2,-1
 429 -45 l 1,3,-1
 321 -45 l 1,4,-1
 30 660 l 1,5,-1
 166 660 l 1,6,-1
 377 122 l 1,0,-1
EndSplineSet
EndChar

StartChar: W
Encoding: 87 87 58
Width: 1116
VWidth: 960
Flags: W
LayerCount: 2
Fore
SplineSet
336 141 m 1,0,-1
 508 662 l 1,1,-1
 612 662 l 1,2,-1
 784 141 l 1,3,-1
 951 660 l 1,4,-1
 1080 660 l 1,5,-1
 836 -45 l 1,6,-1
 730 -45 l 1,7,-1
 558 458 l 1,8,-1
 386 -45 l 1,9,-1
 280 -45 l 1,10,-1
 36 660 l 1,11,-1
 169 660 l 1,12,-1
 336 141 l 1,0,-1
EndSplineSet
EndChar

StartChar: X
Encoding: 88 88 59
Width: 729
VWidth: 960
Flags: W
LayerCount: 2
Fore
SplineSet
692 -40 m 1,0,-1
 547 -40 l 1,1,-1
 363 225 l 1,2,-1
 178 -40 l 1,3,-1
 37 -40 l 1,4,-1
 292 316 l 1,5,-1
 47 660 l 1,6,-1
 192 660 l 1,7,-1
 366 409 l 1,8,-1
 541 660 l 1,9,-1
 682 660 l 1,10,-1
 438 318 l 1,11,-1
 692 -40 l 1,0,-1
EndSplineSet
EndChar

StartChar: Y
Encoding: 89 89 60
Width: 716
VWidth: 960
Flags: W
LayerCount: 2
Fore
SplineSet
420 239 m 1,0,-1
 420 -40 l 1,1,-1
 296 -40 l 1,2,-1
 296 236 l 1,3,-1
 18 660 l 1,4,-1
 163 660 l 1,5,-1
 359 350 l 1,6,-1
 557 660 l 1,7,-1
 698 660 l 1,8,-1
 420 239 l 1,0,-1
EndSplineSet
EndChar

StartChar: Z
Encoding: 90 90 61
Width: 702
VWidth: 960
Flags: W
LayerCount: 2
Fore
SplineSet
478 551 m 1,0,-1
 78 551 l 1,1,-1
 78 660 l 1,2,-1
 638 660 l 1,3,-1
 638 569 l 1,4,-1
 225 69 l 1,5,-1
 638 69 l 1,6,-1
 638 -40 l 1,7,-1
 65 -40 l 1,8,-1
 65 51 l 1,9,-1
 478 551 l 1,0,-1
EndSplineSet
EndChar

StartChar: bracketleft
Encoding: 91 91 62
Width: 454
VWidth: 960
Flags: W
LayerCount: 2
Fore
SplineSet
395 660 m 1,0,-1
 395 565 l 1,1,-1
 203 565 l 1,2,-1
 203 -75 l 1,3,-1
 395 -75 l 1,4,-1
 395 -170 l 1,5,-1
 88 -170 l 1,6,-1
 88 660 l 1,7,-1
 395 660 l 1,0,-1
EndSplineSet
EndChar

StartChar: backslash
Encoding: 92 92 63
Width: 521
VWidth: 960
Flags: W
LayerCount: 2
Fore
SplineSet
94 758 m 1,0,-1
 546 -168 l 1,1,-1
 441 -168 l 1,2,-1
 -11 758 l 1,3,-1
 94 758 l 1,0,-1
EndSplineSet
EndChar

StartChar: bracketright
Encoding: 93 93 64
Width: 454
VWidth: 960
Flags: W
LayerCount: 2
Fore
SplineSet
59 660 m 1,0,-1
 367 660 l 1,1,-1
 367 -170 l 1,2,-1
 59 -170 l 1,3,-1
 59 -75 l 1,4,-1
 251 -75 l 1,5,-1
 251 565 l 1,6,-1
 59 565 l 1,7,-1
 59 660 l 1,0,-1
EndSplineSet
EndChar

StartChar: asciicircum
Encoding: 94 94 65
Width: 500
VWidth: 960
Flags: W
LayerCount: 2
Fore
SplineSet
249 585 m 1,0,-1
 147 453 l 1,1,-1
 56 453 l 1,2,-1
 207 661 l 1,3,-1
 293 661 l 1,4,-1
 444 453 l 1,5,-1
 351 453 l 1,6,-1
 249 585 l 1,0,-1
EndSplineSet
EndChar

StartChar: underscore
Encoding: 95 95 66
Width: 600
VWidth: 960
Flags: W
LayerCount: 2
Fore
SplineSet
-2 -106 m 1,0,-1
 602 -106 l 1,1,-1
 602 -200 l 1,2,-1
 -2 -200 l 1,3,-1
 -2 -106 l 1,0,-1
EndSplineSet
EndChar

StartChar: grave
Encoding: 96 96 67
Width: 500
VWidth: 960
Flags: W
LayerCount: 2
Fore
SplineSet
246 555 m 1,0,-1
 124 670 l 1,1,-1
 234 719 l 1,2,-1
 340 555 l 1,3,-1
 246 555 l 1,0,-1
EndSplineSet
EndChar

StartChar: a
Encoding: 97 97 68
Width: 587
VWidth: 960
Flags: W
LayerCount: 2
Fore
SplineSet
519 -40 m 1,0,-1
 399 -40 l 1,1,-1
 399 25 l 1,2,3
 372 -7 372 -7 330 -29 c 128,-1,4
 288 -51 288 -51 228 -51 c 0,5,6
 190 -51 190 -51 156 -40.5 c 128,-1,7
 122 -30 122 -30 96.5 -9.5 c 128,-1,8
 71 11 71 11 55.5 41.5 c 128,-1,9
 40 72 40 72 40 112 c 2,10,-1
 40 114 l 2,11,12
 40 157 40 157 56 189 c 128,-1,13
 72 221 72 221 100.5 242 c 128,-1,14
 129 263 129 263 168.5 273.5 c 128,-1,15
 208 284 208 284 254 284 c 0,16,17
 302 284 302 284 335.5 278 c 128,-1,18
 369 272 369 272 400 262 c 1,19,-1
 400 275 l 2,20,21
 400 330 400 330 366.5 359 c 128,-1,22
 333 388 333 388 270 388 c 0,23,24
 225 388 225 388 190 379 c 128,-1,25
 155 370 155 370 119 355 c 1,26,-1
 86 452 l 1,27,28
 130 472 130 472 176 484 c 128,-1,29
 222 496 222 496 287 496 c 0,30,31
 405 496 405 496 462 437.5 c 128,-1,32
 519 379 519 379 519 273 c 2,33,-1
 519 -40 l 1,0,-1
402 151 m 2,34,35
 402 184 l 1,36,37
 379 193 379 193 347.5 199 c 128,-1,38
 316 205 316 205 281 205 c 0,39,40
 224 205 224 205 192 183 c 128,-1,41
 160 161 160 161 160 120 c 2,42,-1
 160 118 l 2,43,44
 160 80 160 80 189.5 60 c 128,-1,45
 219 40 219 40 262 40 c 0,46,47
 292 40 292 40 317.5 48 c 128,-1,48
 343 56 343 56 362 70.5 c 128,-1,49
 381 85 381 85 391.5 105.5 c 128,-1,50
 402 126 402 126 402 151 c 2,34,35
EndSplineSet
EndChar

StartChar: b
Encoding: 98 98 69
Width: 670
VWidth: 960
Flags: W
LayerCount: 2
Fore
SplineSet
622 224 m 256,0,1
 622 158 622 158 601.5 107 c 128,-1,2
 581 56 581 56 546.5 20.5 c 128,-1,3
 512 -15 512 -15 467.5 -33 c 128,-1,4
 423 -51 423 -51 376 -51 c 0,5,6
 311 -51 311 -51 268 -23 c 128,-1,7
 225 5 225 5 197 42 c 1,8,-1
 197 -40 l 1,9,-1
 76 -40 l 1,10,-1
 76 690 l 1,11,-1
 197 690 l 1,12,-1
 197 400 l 1,13,14
 226 442 226 442 269 470.5 c 128,-1,15
 312 499 312 499 376 499 c 0,16,17
 423 499 423 499 467 481 c 128,-1,18
 511 463 511 463 545.5 427.5 c 128,-1,19
 580 392 580 392 601 341 c 128,-1,20
 622 290 622 290 622 224 c 256,0,1
499 224 m 256,21,22
 499 263 499 263 487 294.5 c 128,-1,23
 475 326 475 326 454.5 348 c 128,-1,24
 434 370 434 370 406.5 382 c 128,-1,25
 379 394 379 394 348 394 c 256,26,27
 317 394 317 394 289 382 c 128,-1,28
 261 370 261 370 240 347.5 c 128,-1,29
 219 325 219 325 206.5 294 c 128,-1,30
 194 263 194 263 194 224 c 256,31,32
 194 185 194 185 206.5 154 c 128,-1,33
 219 123 219 123 240 100.5 c 128,-1,34
 261 78 261 78 289 66 c 128,-1,35
 317 54 317 54 348 54 c 256,36,37
 379 54 379 54 406.5 66 c 128,-1,38
 434 78 434 78 454.5 100 c 128,-1,39
 475 122 475 122 487 153.5 c 128,-1,40
 499 185 499 185 499 224 c 256,21,22
EndSplineSet
EndChar

StartChar: c
Encoding: 99 99 70
Width: 571
VWidth: 960
Flags: W
LayerCount: 2
Fore
SplineSet
536 47 m 1,0,1
 497 3 497 3 447 -24.5 c 128,-1,2
 397 -52 397 -52 320 -52 c 0,3,4
 261 -52 261 -52 211 -30.5 c 128,-1,5
 161 -9 161 -9 124.5 28.5 c 128,-1,6
 88 66 88 66 67.5 115.5 c 128,-1,7
 47 165 47 165 47 222 c 256,8,9
 47 279 47 279 67.5 329 c 128,-1,10
 88 379 88 379 124.5 417 c 128,-1,11
 161 455 161 455 211.5 477 c 128,-1,12
 262 499 262 499 321 499 c 0,13,14
 396 499 396 499 445.5 474 c 128,-1,15
 495 449 495 449 532 408 c 1,16,-1
 457 327 l 1,17,18
 429 356 429 356 397.5 374.5 c 128,-1,19
 366 393 366 393 320 393 c 0,20,21
 287 393 287 393 259 379.5 c 128,-1,22
 231 366 231 366 211 343 c 128,-1,23
 191 320 191 320 179.5 289.5 c 128,-1,24
 168 259 168 259 168 224 c 0,25,26
 168 188 168 188 179.5 157 c 128,-1,27
 191 126 191 126 212 103 c 128,-1,28
 233 80 233 80 262 66.5 c 128,-1,29
 291 53 291 53 326 53 c 0,30,31
 369 53 369 53 401.5 71.5 c 128,-1,32
 434 90 434 90 463 119 c 1,33,-1
 536 47 l 1,0,1
EndSplineSet
EndChar

StartChar: d
Encoding: 100 100 71
Width: 670
VWidth: 960
Flags: W
LayerCount: 2
Fore
SplineSet
595 -40 m 1,0,-1
 474 -40 l 1,1,-1
 474 48 l 1,2,3
 445 7 445 7 401.5 -22 c 128,-1,4
 358 -51 358 -51 294 -51 c 0,5,6
 247 -51 247 -51 203 -33 c 128,-1,7
 159 -15 159 -15 125 20.5 c 128,-1,8
 91 56 91 56 70 107 c 128,-1,9
 49 158 49 158 49 224 c 256,10,11
 49 290 49 290 69.5 341 c 128,-1,12
 90 392 90 392 124 427.5 c 128,-1,13
 158 463 158 463 202.5 481 c 128,-1,14
 247 499 247 499 294 499 c 0,15,16
 359 499 359 499 402 471 c 128,-1,17
 445 443 445 443 474 406 c 1,18,-1
 474 690 l 1,19,-1
 595 690 l 1,20,-1
 595 -40 l 1,0,-1
476 224 m 256,21,22
 476 263 476 263 463.5 294 c 128,-1,23
 451 325 451 325 430 347.5 c 128,-1,24
 409 370 409 370 381 382 c 128,-1,25
 353 394 353 394 323 394 c 0,26,27
 292 394 292 394 264.5 382.5 c 128,-1,28
 237 371 237 371 216 349 c 128,-1,29
 195 327 195 327 183 295.5 c 128,-1,30
 171 264 171 264 171 224 c 0,31,32
 171 185 171 185 183 153.5 c 128,-1,33
 195 122 195 122 216 100 c 128,-1,34
 237 78 237 78 264.5 66 c 128,-1,35
 292 54 292 54 323 54 c 0,36,37
 353 54 353 54 381 66 c 128,-1,38
 409 78 409 78 430 100.5 c 128,-1,39
 451 123 451 123 463.5 154 c 128,-1,40
 476 185 476 185 476 224 c 256,21,22
EndSplineSet
EndChar

StartChar: e
Encoding: 101 101 72
Width: 604
VWidth: 960
Flags: W
LayerCount: 2
Fore
SplineSet
168 181 m 1,0,1
 179 116 179 116 220 81.5 c 128,-1,2
 261 47 261 47 320 47 c 0,3,4
 365 47 365 47 398 63 c 128,-1,5
 431 79 431 79 463 110 c 1,6,-1
 534 47 l 1,7,8
 496 2 496 2 443.5 -25 c 128,-1,9
 391 -52 391 -52 318 -52 c 0,10,11
 261 -52 261 -52 211.5 -32 c 128,-1,12
 162 -12 162 -12 125.5 24 c 128,-1,13
 89 60 89 60 68 110.5 c 128,-1,14
 47 161 47 161 47 223 c 0,15,16
 47 280 47 280 66 330 c 128,-1,17
 85 380 85 380 119.5 417.5 c 128,-1,18
 154 455 154 455 201 477 c 128,-1,19
 248 499 248 499 305 499 c 0,20,21
 368 499 368 499 415.5 476 c 128,-1,22
 463 453 463 453 494.5 414 c 128,-1,23
 526 375 526 375 542 323 c 128,-1,24
 558 271 558 271 558 214 c 0,25,26
 558 206 558 206 557.5 198 c 128,-1,27
 557 190 557 190 556 181 c 1,28,-1
 168 181 l 1,0,1
167 261 m 1,29,30
 438 261 l 1,31,32
 435 290 435 290 425 315.5 c 128,-1,33
 415 341 415 341 398 359.5 c 128,-1,34
 381 378 381 378 357.5 389 c 128,-1,35
 334 400 334 400 304 400 c 0,36,37
 248 400 248 400 211.5 361.5 c 128,-1,38
 175 323 175 323 167 261 c 1,29,30
EndSplineSet
EndChar

StartChar: f
Encoding: 102 102 73
Width: 376
VWidth: 960
Flags: W
LayerCount: 2
Fore
SplineSet
222 484 m 1,0,-1
 362 484 l 1,1,-1
 362 384 l 1,2,-1
 224 384 l 1,3,-1
 224 -40 l 1,4,-1
 103 -40 l 1,5,-1
 103 384 l 1,6,-1
 36 384 l 1,7,-1
 36 485 l 1,8,-1
 103 485 l 1,9,-1
 103 523 l 2,10,11
 103 611 103 611 145 653.5 c 128,-1,12
 187 696 187 696 265 696 c 0,13,14
 297 696 297 696 320 692 c 128,-1,15
 343 688 343 688 363 682 c 1,16,-1
 363 580 l 1,17,18
 345 586 345 586 328.5 589.5 c 128,-1,19
 312 593 312 593 292 593 c 0,20,21
 222 593 222 593 222 513 c 2,22,-1
 222 484 l 1,0,-1
EndSplineSet
EndChar

StartChar: g
Encoding: 103 103 74
Width: 670
VWidth: 960
Flags: W
LayerCount: 2
Fore
SplineSet
595 68 m 2,0,1
 595 -72 595 -72 521 -137 c 128,-1,2
 447 -202 447 -202 311 -202 c 0,3,4
 179 -202 179 -202 75 -139 c 1,5,-1
 120 -48 l 1,6,7
 162 -74 162 -74 208 -89 c 128,-1,8
 254 -104 254 -104 308 -104 c 0,9,10
 389 -104 389 -104 432 -63 c 128,-1,11
 475 -22 475 -22 475 58 c 2,12,-1
 475 99 l 1,13,14
 442 56 442 56 398 29 c 128,-1,15
 354 2 354 2 289 2 c 0,16,17
 242 2 242 2 199 18.5 c 128,-1,18
 156 35 156 35 122.5 67 c 128,-1,19
 89 99 89 99 69 145 c 128,-1,20
 49 191 49 191 49 250 c 256,21,22
 49 309 49 309 69 355 c 128,-1,23
 89 401 89 401 122.5 433 c 128,-1,24
 156 465 156 465 199.5 482 c 128,-1,25
 243 499 243 499 289 499 c 0,26,27
 356 499 356 499 399.5 472.5 c 128,-1,28
 443 446 443 446 474 409 c 1,29,-1
 474 488 l 1,30,-1
 595 488 l 1,31,-1
 595 68 l 2,0,1
476 250 m 256,32,33
 476 283 476 283 463.5 310.5 c 128,-1,34
 451 338 451 338 430 357 c 128,-1,35
 409 376 409 376 380.5 386.5 c 128,-1,36
 352 397 352 397 321 397 c 0,37,38
 289 397 289 397 262 386.5 c 128,-1,39
 235 376 235 376 214.5 357 c 128,-1,40
 194 338 194 338 182.5 311 c 128,-1,41
 171 284 171 284 171 251 c 256,42,43
 171 218 171 218 183 191 c 128,-1,44
 195 164 195 164 215 144.5 c 128,-1,45
 235 125 235 125 262.5 114.5 c 128,-1,46
 290 104 290 104 321 104 c 256,47,48
 352 104 352 104 380.5 114.5 c 128,-1,49
 409 125 409 125 430 144.5 c 128,-1,50
 451 164 451 164 463.5 190.5 c 128,-1,51
 476 217 476 217 476 250 c 256,32,33
EndSplineSet
EndChar

StartChar: h
Encoding: 104 104 75
Width: 620
VWidth: 960
Flags: W
LayerCount: 2
Fore
SplineSet
197 258 m 2,0,1
 197 -40 l 1,2,-1
 76 -40 l 1,3,-1
 76 690 l 1,4,-1
 197 690 l 1,5,-1
 197 406 l 1,6,7
 210 425 210 425 225.5 441.5 c 128,-1,8
 241 458 241 458 261.5 471 c 128,-1,9
 282 484 282 484 306.5 491.5 c 128,-1,10
 331 499 331 499 362 499 c 0,11,12
 452 499 452 499 501 444 c 128,-1,13
 550 389 550 389 550 296 c 2,14,-1
 550 -40 l 1,15,-1
 429 -40 l 1,16,-1
 429 260 l 2,17,18
 429 322 429 322 399.5 355.5 c 128,-1,19
 370 389 370 389 316 389 c 0,20,21
 263 389 263 389 230 354.5 c 128,-1,22
 197 320 197 320 197 258 c 2,0,1
EndSplineSet
EndChar

StartChar: i
Encoding: 105 105 76
Width: 286
VWidth: 960
Flags: W
LayerCount: 2
Fore
SplineSet
208 569 m 1,0,-1
 78 569 l 1,1,-1
 78 684 l 1,2,-1
 208 684 l 1,3,-1
 208 569 l 1,0,-1
204 -40 m 1,4,-1
 83 -40 l 1,5,-1
 83 488 l 1,6,-1
 204 488 l 1,7,-1
 204 -40 l 1,4,-1
EndSplineSet
EndChar

StartChar: j
Encoding: 106 106 77
Width: 286
VWidth: 960
Flags: W
LayerCount: 2
Fore
SplineSet
208 569 m 1,0,-1
 78 569 l 1,1,-1
 78 684 l 1,2,-1
 208 684 l 1,3,-1
 208 569 l 1,0,-1
83 488 m 1,4,-1
 204 488 l 1,5,-1
 204 -47 l 2,6,7
 204 -128 204 -128 164.5 -165.5 c 128,-1,8
 125 -203 125 -203 50 -203 c 0,9,10
 33 -203 33 -203 19.5 -201.5 c 128,-1,11
 6 -200 6 -200 -8 -198 c 1,12,-1
 -8 -101 l 1,13,14
 10 -104 10 -104 26 -104 c 0,15,16
 52 -104 52 -104 67.5 -89.5 c 128,-1,17
 83 -75 83 -75 83 -40 c 2,18,-1
 83 488 l 1,4,-1
EndSplineSet
EndChar

StartChar: k
Encoding: 107 107 78
Width: 582
VWidth: 960
Flags: W
LayerCount: 2
Fore
SplineSet
353 273 m 1,0,-1
 570 -40 l 1,1,-1
 430 -40 l 1,2,-1
 271 188 l 1,3,-1
 197 111 l 1,4,-1
 197 -40 l 1,5,-1
 76 -40 l 1,6,-1
 76 690 l 1,7,-1
 197 690 l 1,8,-1
 197 254 l 1,9,-1
 416 488 l 1,10,-1
 563 488 l 1,11,-1
 353 273 l 1,0,-1
EndSplineSet
EndChar

StartChar: l
Encoding: 108 108 79
Width: 286
VWidth: 960
Flags: W
LayerCount: 2
Fore
SplineSet
204 -40 m 1,0,-1
 83 -40 l 1,1,-1
 83 690 l 1,2,-1
 204 690 l 1,3,-1
 204 -40 l 1,0,-1
EndSplineSet
EndChar

StartChar: m
Encoding: 109 109 80
Width: 950
VWidth: 960
Flags: W
LayerCount: 2
Fore
SplineSet
515 406 m 1,0,1
 547 448 547 448 590.5 473.5 c 128,-1,2
 634 499 634 499 694 499 c 0,3,4
 781 499 781 499 830 446.5 c 128,-1,5
 879 394 879 394 879 297 c 2,6,-1
 879 -40 l 1,7,-1
 758 -40 l 1,8,-1
 758 260 l 2,9,10
 758 323 758 323 730 356 c 128,-1,11
 702 389 702 389 651 389 c 0,12,13
 601 389 601 389 569.5 355.5 c 128,-1,14
 538 322 538 322 538 258 c 2,15,-1
 538 -40 l 1,16,-1
 417 -40 l 1,17,-1
 417 261 l 2,18,19
 417 323 417 323 389 356 c 128,-1,20
 361 389 361 389 310 389 c 256,21,22
 259 389 259 389 228 354 c 128,-1,23
 197 319 197 319 197 257 c 2,24,-1
 197 -40 l 1,25,-1
 76 -40 l 1,26,-1
 76 488 l 1,27,-1
 197 488 l 1,28,-1
 197 408 l 1,29,30
 210 426 210 426 225 442 c 128,-1,31
 240 458 240 458 259.5 471 c 128,-1,32
 279 484 279 484 303.5 491.5 c 128,-1,33
 328 499 328 499 358 499 c 0,34,35
 415 499 415 499 454.5 473.5 c 128,-1,36
 494 448 494 448 515 406 c 1,0,1
EndSplineSet
EndChar

StartChar: n
Encoding: 110 110 81
Width: 620
VWidth: 960
Flags: W
LayerCount: 2
Fore
SplineSet
197 258 m 2,0,1
 197 -40 l 1,2,-1
 76 -40 l 1,3,-1
 76 488 l 1,4,-1
 197 488 l 1,5,-1
 197 406 l 1,6,7
 210 425 210 425 225.5 441.5 c 128,-1,8
 241 458 241 458 261.5 471 c 128,-1,9
 282 484 282 484 306.5 491.5 c 128,-1,10
 331 499 331 499 362 499 c 0,11,12
 452 499 452 499 501 444 c 128,-1,13
 550 389 550 389 550 296 c 2,14,-1
 550 -40 l 1,15,-1
 429 -40 l 1,16,-1
 429 260 l 2,17,18
 429 322 429 322 399.5 355.5 c 128,-1,19
 370 389 370 389 316 389 c 0,20,21
 263 389 263 389 230 354.5 c 128,-1,22
 197 320 197 320 197 258 c 2,0,1
EndSplineSet
EndChar

StartChar: o
Encoding: 111 111 82
Width: 657
VWidth: 960
Flags: W
LayerCount: 2
Fore
SplineSet
610 224 m 256,0,1
 610 167 610 167 588.5 117 c 128,-1,2
 567 67 567 67 529.5 29.5 c 128,-1,3
 492 -8 492 -8 440 -30 c 128,-1,4
 388 -52 388 -52 327 -52 c 0,5,6
 267 -52 267 -52 215.5 -30.5 c 128,-1,7
 164 -9 164 -9 126.5 28.5 c 128,-1,8
 89 66 89 66 68 115.5 c 128,-1,9
 47 165 47 165 47 222 c 256,10,11
 47 279 47 279 68.5 329.5 c 128,-1,12
 90 380 90 380 127.5 417.5 c 128,-1,13
 165 455 165 455 216.5 477 c 128,-1,14
 268 499 268 499 329 499 c 256,15,16
 390 499 390 499 441.5 477.5 c 128,-1,17
 493 456 493 456 530.5 418.5 c 128,-1,18
 568 381 568 381 589 331 c 128,-1,19
 610 281 610 281 610 224 c 256,0,1
489 222 m 256,20,21
 489 257 489 257 477 288 c 128,-1,22
 465 319 465 319 443.5 342.5 c 128,-1,23
 422 366 422 366 392.5 379.5 c 128,-1,24
 363 393 363 393 327 393 c 256,25,26
 291 393 291 393 261.5 379.5 c 128,-1,27
 232 366 232 366 211 343 c 128,-1,28
 190 320 190 320 179 289.5 c 128,-1,29
 168 259 168 259 168 224 c 256,30,31
 168 189 168 189 180 157.5 c 128,-1,32
 192 126 192 126 213.5 103 c 128,-1,33
 235 80 235 80 264.5 66.5 c 128,-1,34
 294 53 294 53 329 53 c 0,35,36
 366 53 366 53 395.5 66.5 c 128,-1,37
 425 80 425 80 446 103 c 128,-1,38
 467 126 467 126 478 156.5 c 128,-1,39
 489 187 489 187 489 222 c 256,20,21
EndSplineSet
EndChar

StartChar: p
Encoding: 112 112 83
Width: 670
VWidth: 960
Flags: W
LayerCount: 2
Fore
SplineSet
622 224 m 256,0,1
 622 158 622 158 601.5 107 c 128,-1,2
 581 56 581 56 546.5 20.5 c 128,-1,3
 512 -15 512 -15 467.5 -33 c 128,-1,4
 423 -51 423 -51 376 -51 c 0,5,6
 311 -51 311 -51 268 -23 c 128,-1,7
 225 5 225 5 197 42 c 1,8,-1
 197 -200 l 1,9,-1
 76 -200 l 1,10,-1
 76 488 l 1,11,-1
 197 488 l 1,12,-1
 197 400 l 1,13,14
 226 442 226 442 269 470.5 c 128,-1,15
 312 499 312 499 376 499 c 0,16,17
 423 499 423 499 467 481 c 128,-1,18
 511 463 511 463 545.5 427.5 c 128,-1,19
 580 392 580 392 601 341 c 128,-1,20
 622 290 622 290 622 224 c 256,0,1
499 224 m 256,21,22
 499 263 499 263 487 294.5 c 128,-1,23
 475 326 475 326 454.5 348 c 128,-1,24
 434 370 434 370 406.5 382 c 128,-1,25
 379 394 379 394 348 394 c 256,26,27
 317 394 317 394 289 382 c 128,-1,28
 261 370 261 370 240 347.5 c 128,-1,29
 219 325 219 325 206.5 294 c 128,-1,30
 194 263 194 263 194 224 c 256,31,32
 194 185 194 185 206.5 154 c 128,-1,33
 219 123 219 123 240 100.5 c 128,-1,34
 261 78 261 78 289 66 c 128,-1,35
 317 54 317 54 348 54 c 256,36,37
 379 54 379 54 406.5 66 c 128,-1,38
 434 78 434 78 454.5 100 c 128,-1,39
 475 122 475 122 487 153.5 c 128,-1,40
 499 185 499 185 499 224 c 256,21,22
EndSplineSet
EndChar

StartChar: q
Encoding: 113 113 84
Width: 670
VWidth: 960
Flags: W
LayerCount: 2
Fore
SplineSet
595 -200 m 1,0,-1
 474 -200 l 1,1,-1
 474 48 l 1,2,3
 445 7 445 7 401.5 -22 c 128,-1,4
 358 -51 358 -51 294 -51 c 0,5,6
 247 -51 247 -51 203 -33 c 128,-1,7
 159 -15 159 -15 125 20.5 c 128,-1,8
 91 56 91 56 70 107 c 128,-1,9
 49 158 49 158 49 224 c 256,10,11
 49 290 49 290 69.5 341 c 128,-1,12
 90 392 90 392 124 427.5 c 128,-1,13
 158 463 158 463 202.5 481 c 128,-1,14
 247 499 247 499 294 499 c 0,15,16
 359 499 359 499 402 471 c 128,-1,17
 445 443 445 443 474 406 c 1,18,-1
 474 488 l 1,19,-1
 595 488 l 1,20,-1
 595 -200 l 1,0,-1
476 224 m 256,21,22
 476 263 476 263 463.5 294 c 128,-1,23
 451 325 451 325 430 347.5 c 128,-1,24
 409 370 409 370 381 382 c 128,-1,25
 353 394 353 394 323 394 c 0,26,27
 292 394 292 394 264.5 382.5 c 128,-1,28
 237 371 237 371 216 349 c 128,-1,29
 195 327 195 327 183 295.5 c 128,-1,30
 171 264 171 264 171 224 c 0,31,32
 171 185 171 185 183 153.5 c 128,-1,33
 195 122 195 122 216 100 c 128,-1,34
 237 78 237 78 264.5 66 c 128,-1,35
 292 54 292 54 323 54 c 0,36,37
 353 54 353 54 381 66 c 128,-1,38
 409 78 409 78 430 100.5 c 128,-1,39
 451 123 451 123 463.5 154 c 128,-1,40
 476 185 476 185 476 224 c 256,21,22
EndSplineSet
EndChar

StartChar: r
Encoding: 114 114 85
Width: 413
VWidth: 960
Flags: W
LayerCount: 2
Fore
SplineSet
197 161 m 2,0,1
 197 -40 l 1,2,-1
 76 -40 l 1,3,-1
 76 488 l 1,4,-1
 197 488 l 1,5,-1
 197 369 l 1,6,7
 222 429 222 429 268 465 c 128,-1,8
 314 501 314 501 384 498 c 1,9,-1
 384 370 l 1,10,-1
 377 370 l 2,11,12
 337 370 337 370 304 357 c 128,-1,13
 271 344 271 344 247 318 c 128,-1,14
 223 292 223 292 210 252.5 c 128,-1,15
 197 213 197 213 197 161 c 2,0,1
EndSplineSet
EndChar

StartChar: s
Encoding: 115 115 86
Width: 500
VWidth: 960
Flags: W
LayerCount: 2
Fore
SplineSet
453 116 m 2,0,1
 453 74 453 74 438 43 c 128,-1,2
 423 12 423 12 396.5 -8.5 c 128,-1,3
 370 -29 370 -29 334 -39.5 c 128,-1,4
 298 -50 298 -50 257 -50 c 0,5,6
 200 -50 200 -50 141.5 -30 c 128,-1,7
 83 -10 83 -10 33 29 c 1,8,-1
 87 111 l 1,9,10
 130 79 130 79 174.5 62.5 c 128,-1,11
 219 46 219 46 260 46 c 0,12,13
 299 46 299 46 320.5 61.5 c 128,-1,14
 342 77 342 77 342 103 c 2,15,-1
 342 105 l 2,16,17
 342 120 342 120 332.5 131 c 128,-1,18
 323 142 323 142 306.5 150.5 c 128,-1,19
 290 159 290 159 268.5 165.5 c 128,-1,20
 247 172 247 172 224 179 c 0,21,22
 195 188 195 188 165.5 199 c 128,-1,23
 136 210 136 210 112.5 227.5 c 128,-1,24
 89 245 89 245 74 270.5 c 128,-1,25
 59 296 59 296 59 334 c 2,26,-1
 59 336 l 2,27,28
 59 373 59 373 73.5 403 c 128,-1,29
 88 433 88 433 113.5 454 c 128,-1,30
 139 475 139 475 173.5 486 c 128,-1,31
 208 497 208 497 247 497 c 0,32,33
 297 497 297 497 348 481 c 128,-1,34
 399 465 399 465 441 437 c 1,35,-1
 393 351 l 1,36,37
 355 374 355 374 316 387.5 c 128,-1,38
 277 401 277 401 244 401 c 0,39,40
 209 401 209 401 189.5 386 c 128,-1,41
 170 371 170 371 170 348 c 2,42,-1
 170 346 l 2,43,44
 170 332 170 332 180 321.5 c 128,-1,45
 190 311 190 311 206.5 302.5 c 128,-1,46
 223 294 223 294 244.5 286.5 c 128,-1,47
 266 279 266 279 289 272 c 0,48,49
 318 263 318 263 347 251 c 128,-1,50
 376 239 376 239 399.5 221.5 c 128,-1,51
 423 204 423 204 438 179 c 128,-1,52
 453 154 453 154 453 118 c 2,53,-1
 453 116 l 2,0,1
EndSplineSet
EndChar

StartChar: t
Encoding: 116 116 87
Width: 410
VWidth: 960
Flags: W
LayerCount: 2
Fore
SplineSet
222 384 m 1,0,-1
 222 125 l 2,1,2
 222 90 222 90 239 74.5 c 128,-1,3
 256 59 256 59 287 59 c 0,4,5
 326 59 326 59 362 77 c 1,6,-1
 362 -22 l 1,7,8
 339 -35 339 -35 313 -42 c 128,-1,9
 287 -49 287 -49 253 -49 c 0,10,11
 220 -49 220 -49 192 -41 c 128,-1,12
 164 -33 164 -33 143.5 -15 c 128,-1,13
 123 3 123 3 112 32.5 c 128,-1,14
 101 62 101 62 101 106 c 2,15,-1
 101 384 l 1,16,-1
 34 384 l 1,17,-1
 34 488 l 1,18,-1
 101 488 l 1,19,-1
 101 633 l 1,20,-1
 222 633 l 1,21,-1
 222 488 l 1,22,-1
 364 488 l 1,23,-1
 364 384 l 1,24,-1
 222 384 l 1,0,-1
EndSplineSet
EndChar

StartChar: u
Encoding: 117 117 88
Width: 620
VWidth: 960
Flags: W
LayerCount: 2
Fore
SplineSet
423 190 m 2,0,1
 423 488 l 1,2,-1
 544 488 l 1,3,-1
 544 -40 l 1,4,-1
 423 -40 l 1,5,-1
 423 42 l 1,6,7
 397 4 397 4 358 -23.5 c 128,-1,8
 319 -51 319 -51 258 -51 c 0,9,10
 168 -51 168 -51 119 4 c 128,-1,11
 70 59 70 59 70 152 c 2,12,-1
 70 488 l 1,13,-1
 191 488 l 1,14,-1
 191 188 l 2,15,16
 191 126 191 126 220.5 92.5 c 128,-1,17
 250 59 250 59 304 59 c 0,18,19
 357 59 357 59 390 93.5 c 128,-1,20
 423 128 423 128 423 190 c 2,0,1
EndSplineSet
EndChar

StartChar: v
Encoding: 118 118 89
Width: 595
VWidth: 960
Flags: W
LayerCount: 2
Fore
SplineSet
298 100 m 1,0,-1
 441 488 l 1,1,-1
 568 488 l 1,2,-1
 352 -44 l 1,3,-1
 243 -44 l 1,4,-1
 26 488 l 1,5,-1
 156 488 l 1,6,-1
 298 100 l 1,0,-1
EndSplineSet
EndChar

StartChar: w
Encoding: 119 119 90
Width: 861
VWidth: 960
Flags: W
LayerCount: 2
Fore
SplineSet
482 490 m 1,0,-1
 600 126 l 1,1,-1
 708 488 l 1,2,-1
 829 488 l 1,3,-1
 656 -44 l 1,4,-1
 548 -44 l 1,5,-1
 430 317 l 1,6,-1
 311 -44 l 1,7,-1
 203 -44 l 1,8,-1
 32 488 l 1,9,-1
 156 488 l 1,10,-1
 262 126 l 1,11,-1
 379 490 l 1,12,-1
 482 490 l 1,0,-1
EndSplineSet
EndChar

StartChar: x
Encoding: 120 120 91
Width: 580
VWidth: 960
Flags: W
LayerCount: 2
Fore
SplineSet
355 231 m 1,0,-1
 550 -40 l 1,1,-1
 418 -40 l 1,2,-1
 288 145 l 1,3,-1
 159 -40 l 1,4,-1
 30 -40 l 1,5,-1
 224 228 l 1,6,-1
 37 488 l 1,7,-1
 169 488 l 1,8,-1
 291 314 l 1,9,-1
 413 488 l 1,10,-1
 542 488 l 1,11,-1
 355 231 l 1,0,-1
EndSplineSet
EndChar

StartChar: y
Encoding: 121 121 92
Width: 596
VWidth: 960
Flags: W
LayerCount: 2
Fore
SplineSet
568 488 m 1,0,-1
 358 -55 l 2,1,2
 342 -96 342 -96 325 -124 c 128,-1,3
 308 -152 308 -152 287 -169.5 c 128,-1,4
 266 -187 266 -187 241 -195 c 128,-1,5
 216 -203 216 -203 184 -203 c 0,6,7
 146 -203 146 -203 116.5 -194.5 c 128,-1,8
 87 -186 87 -186 59 -171 c 1,9,-1
 100 -81 l 1,10,11
 117 -90 117 -90 134.5 -95.5 c 128,-1,12
 152 -101 152 -101 171 -101 c 0,13,14
 197 -101 197 -101 214 -88 c 128,-1,15
 231 -75 231 -75 246 -40 c 1,16,-1
 26 488 l 1,17,-1
 155 488 l 1,18,-1
 305 96 l 1,19,-1
 442 488 l 1,20,-1
 568 488 l 1,0,-1
EndSplineSet
EndChar

StartChar: z
Encoding: 122 122 93
Width: 560
VWidth: 960
Flags: W
LayerCount: 2
Fore
SplineSet
357 389 m 1,0,-1
 63 389 l 1,1,-1
 63 488 l 1,2,-1
 511 488 l 1,3,-1
 511 405 l 1,4,-1
 206 59 l 1,5,-1
 511 59 l 1,6,-1
 511 -40 l 1,7,-1
 52 -40 l 1,8,-1
 52 43 l 1,9,-1
 357 389 l 1,0,-1
EndSplineSet
EndChar

StartChar: braceleft
Encoding: 123 123 94
Width: 487
VWidth: 960
Flags: W
LayerCount: 2
Fore
SplineSet
437 595 m 1,0,1
 392 583 392 583 365 570 c 128,-1,2
 338 557 338 557 324 541.5 c 128,-1,3
 310 526 310 526 305.5 505.5 c 128,-1,4
 301 485 301 485 301 458 c 0,5,6
 301 443 301 443 302 421.5 c 128,-1,7
 303 400 303 400 303 384 c 0,8,9
 303 325 303 325 276 294 c 128,-1,10
 249 263 249 263 199 247 c 1,11,12
 250 230 250 230 276.5 199.5 c 128,-1,13
 303 169 303 169 303 110 c 0,14,15
 303 94 303 94 302 72.5 c 128,-1,16
 301 51 301 51 301 36 c 0,17,18
 301 9 301 9 305.5 -11.5 c 128,-1,19
 310 -32 310 -32 324 -47.5 c 128,-1,20
 338 -63 338 -63 365 -76 c 128,-1,21
 392 -89 392 -89 437 -101 c 1,22,-1
 416 -181 l 1,23,24
 348 -169 348 -169 304 -150.5 c 128,-1,25
 260 -132 260 -132 234.5 -107.5 c 128,-1,26
 209 -83 209 -83 199 -51.5 c 128,-1,27
 189 -20 189 -20 189 19 c 0,28,29
 189 25 189 25 189.5 34.5 c 128,-1,30
 190 44 190 44 190 54 c 0,31,32
 190 65 190 65 190.5 75 c 128,-1,33
 191 85 191 85 191 91 c 0,34,35
 191 150 191 150 166 175.5 c 128,-1,36
 141 201 141 201 78 201 c 2,37,-1
 52 201 l 1,38,-1
 52 293 l 1,39,-1
 78 293 l 2,40,41
 141 293 141 293 166 318.5 c 128,-1,42
 191 344 191 344 191 403 c 0,43,44
 191 409 191 409 190.5 419 c 128,-1,45
 190 429 190 429 190 439 c 0,46,47
 190 450 190 450 189.5 459.5 c 128,-1,48
 189 469 189 469 189 475 c 0,49,50
 189 514 189 514 199 545 c 128,-1,51
 209 576 209 576 234.5 601 c 128,-1,52
 260 626 260 626 304 644.5 c 128,-1,53
 348 663 348 663 416 675 c 1,54,-1
 437 595 l 1,0,1
EndSplineSet
EndChar

StartChar: bar
Encoding: 124 124 95
Width: 331
VWidth: 960
Flags: W
LayerCount: 2
Fore
SplineSet
214 -168 m 1,0,-1
 117 -168 l 1,1,-1
 117 758 l 1,2,-1
 214 758 l 1,3,-1
 214 -168 l 1,0,-1
EndSplineSet
EndChar

StartChar: braceright
Encoding: 125 125 96
Width: 487
VWidth: 960
Flags: W
LayerCount: 2
Fore
SplineSet
50 -101 m 1,0,1
 95 -89 95 -89 122 -76 c 128,-1,2
 149 -63 149 -63 163 -47.5 c 128,-1,3
 177 -32 177 -32 181.5 -11.5 c 128,-1,4
 186 9 186 9 186 36 c 0,5,6
 186 51 186 51 185 72.5 c 128,-1,7
 184 94 184 94 184 110 c 0,8,9
 184 169 184 169 211 200 c 128,-1,10
 238 231 238 231 288 247 c 1,11,12
 237 264 237 264 210.5 294.5 c 128,-1,13
 184 325 184 325 184 384 c 0,14,15
 184 400 184 400 185 421.5 c 128,-1,16
 186 443 186 443 186 458 c 0,17,18
 186 485 186 485 181.5 505.5 c 128,-1,19
 177 526 177 526 163 541.5 c 128,-1,20
 149 557 149 557 122 570 c 128,-1,21
 95 583 95 583 50 595 c 1,22,-1
 71 675 l 1,23,24
 139 663 139 663 183 644.5 c 128,-1,25
 227 626 227 626 252.5 601 c 128,-1,26
 278 576 278 576 288 545 c 128,-1,27
 298 514 298 514 298 475 c 0,28,29
 298 469 298 469 297.5 459.5 c 128,-1,30
 297 450 297 450 297 439 c 0,31,32
 297 429 297 429 296.5 419 c 128,-1,33
 296 409 296 409 296 403 c 0,34,35
 296 344 296 344 321 318.5 c 128,-1,36
 346 293 346 293 409 293 c 2,37,-1
 435 293 l 1,38,-1
 435 201 l 1,39,-1
 409 201 l 2,40,41
 346 201 346 201 321 175.5 c 128,-1,42
 296 150 296 150 296 91 c 0,43,44
 296 85 296 85 296.5 75 c 128,-1,45
 297 65 297 65 297 54 c 0,46,47
 297 44 297 44 297.5 34.5 c 128,-1,48
 298 25 298 25 298 19 c 0,49,50
 298 -20 298 -20 288 -51.5 c 128,-1,51
 278 -83 278 -83 252.5 -107.5 c 128,-1,52
 227 -132 227 -132 183 -150.5 c 128,-1,53
 139 -169 139 -169 71 -181 c 1,54,-1
 50 -101 l 1,0,1
EndSplineSet
EndChar

StartChar: asciitilde
Encoding: 126 126 97
Width: 495
VWidth: 960
Flags: W
LayerCount: 2
Fore
SplineSet
436 324 m 1,0,1
 419 263 419 263 394.5 231 c 128,-1,2
 370 199 370 199 324 199 c 0,3,4
 303 199 303 199 283 205 c 128,-1,5
 263 211 263 211 245 218.5 c 128,-1,6
 227 226 227 226 210.5 232.5 c 128,-1,7
 194 239 194 239 181 239 c 0,8,9
 159 239 159 239 148 227 c 128,-1,10
 137 215 137 215 126 189 c 1,11,-1
 59 210 l 1,12,13
 76 270 76 270 100.5 302 c 128,-1,14
 125 334 125 334 171 334 c 0,15,16
 192 334 192 334 212 327.5 c 128,-1,17
 232 321 232 321 250 313.5 c 128,-1,18
 268 306 268 306 284.5 300 c 128,-1,19
 301 294 301 294 314 294 c 0,20,21
 336 294 336 294 347 306 c 128,-1,22
 358 318 358 318 369 344 c 1,23,-1
 436 324 l 1,0,1
EndSplineSet
EndChar

StartChar: Aring
Encoding: 197 197 99
Width: 790
VWidth: 960
Flags: W
LayerCount: 2
Fore
SplineSet
328 644 m 1,0,1
 308 659 308 659 294.5 681.5 c 128,-1,2
 281 704 281 704 281 732 c 0,3,4
 281 754 281 754 290.5 774 c 128,-1,5
 300 794 300 794 315.5 809 c 128,-1,6
 331 824 331 824 351.5 833 c 128,-1,7
 372 842 372 842 395 842 c 0,8,9
 417 842 417 842 438 833 c 128,-1,10
 459 824 459 824 474.5 809 c 128,-1,11
 490 794 490 794 499.5 774 c 128,-1,12
 509 754 509 754 509 732 c 0,13,14
 509 704 509 704 495.5 681.5 c 128,-1,15
 482 659 482 659 462 644 c 1,16,-1
 760 -40 l 1,17,-1
 630 -40 l 1,18,-1
 559 129 l 1,19,-1
 228 129 l 1,20,-1
 156 -40 l 1,21,-1
 30 -40 l 1,22,-1
 328 644 l 1,0,1
457 732 m 256,23,24
 457 758 457 758 439 776 c 128,-1,25
 421 794 421 794 395 794 c 256,26,27
 369 794 369 794 351 776 c 128,-1,28
 333 758 333 758 333 732 c 256,29,30
 333 706 333 706 351 688 c 128,-1,31
 369 670 369 670 395 670 c 256,32,33
 421 670 421 670 439 688 c 128,-1,34
 457 706 457 706 457 732 c 256,23,24
514 238 m 1,35,-1
 393 518 l 1,36,-1
 273 238 l 1,37,-1
 514 238 l 1,35,-1
EndSplineSet
EndChar

StartChar: Ccedilla
Encoding: 199 199 100
Width: 738
VWidth: 960
Flags: W
LayerCount: 2
Fore
SplineSet
345 -45 m 1,0,1
 282 -33 282 -33 229.5 -1.5 c 128,-1,2
 177 30 177 30 139 77 c 128,-1,3
 101 124 101 124 80 183 c 128,-1,4
 59 242 59 242 59 309 c 0,5,6
 59 384 59 384 85.5 450 c 128,-1,7
 112 516 112 516 160 565.5 c 128,-1,8
 208 615 208 615 274 643.5 c 128,-1,9
 340 672 340 672 420 672 c 0,10,11
 468 672 468 672 507.5 664 c 128,-1,12
 547 656 547 656 580 641.5 c 128,-1,13
 613 627 613 627 641 607 c 128,-1,14
 669 587 669 587 694 563 c 1,15,-1
 615 472 l 1,16,17
 573 511 573 511 526 535 c 128,-1,18
 479 559 479 559 419 559 c 0,19,20
 369 559 369 559 326.5 539.5 c 128,-1,21
 284 520 284 520 253 486.5 c 128,-1,22
 222 453 222 453 205 408 c 128,-1,23
 188 363 188 363 188 311 c 256,24,25
 188 259 188 259 205 213.5 c 128,-1,26
 222 168 222 168 253 134 c 128,-1,27
 284 100 284 100 326.5 80.5 c 128,-1,28
 369 61 369 61 419 61 c 0,29,30
 483 61 483 61 529 85.5 c 128,-1,31
 575 110 575 110 620 152 c 1,32,-1
 699 72 l 1,33,34
 673 45 673 45 646 23.5 c 128,-1,35
 619 2 619 2 587.5 -14 c 128,-1,36
 556 -30 556 -30 519 -39.5 c 128,-1,37
 482 -49 482 -49 437 -51 c 1,38,-1
 371 -205 l 1,39,-1
 266 -161 l 1,40,-1
 345 -45 l 1,0,1
EndSplineSet
EndChar

StartChar: ccedilla
Encoding: 231 231 111
Width: 571
VWidth: 960
Flags: W
LayerCount: 2
Fore
SplineSet
250 -43 m 1,0,1
 205 -32 205 -32 167.5 -7 c 128,-1,2
 130 18 130 18 103.5 53 c 128,-1,3
 77 88 77 88 62 131 c 128,-1,4
 47 174 47 174 47 222 c 0,5,6
 47 279 47 279 67.5 329 c 128,-1,7
 88 379 88 379 124.5 417 c 128,-1,8
 161 455 161 455 211.5 477 c 128,-1,9
 262 499 262 499 321 499 c 0,10,11
 396 499 396 499 445.5 474 c 128,-1,12
 495 449 495 449 532 408 c 1,13,-1
 457 327 l 1,14,15
 429 356 429 356 397.5 374.5 c 128,-1,16
 366 393 366 393 320 393 c 0,17,18
 287 393 287 393 259 379.5 c 128,-1,19
 231 366 231 366 211 343 c 128,-1,20
 191 320 191 320 179.5 289.5 c 128,-1,21
 168 259 168 259 168 224 c 0,22,23
 168 188 168 188 179.5 157 c 128,-1,24
 191 126 191 126 212 103 c 128,-1,25
 233 80 233 80 262 66.5 c 128,-1,26
 291 53 291 53 326 53 c 0,27,28
 369 53 369 53 401.5 71.5 c 128,-1,29
 434 90 434 90 463 119 c 1,30,-1
 536 47 l 1,31,32
 499 7 499 7 454 -20 c 128,-1,33
 409 -47 409 -47 341 -51 c 1,34,-1
 276 -205 l 1,35,-1
 170 -161 l 1,36,-1
 250 -43 l 1,0,1
EndSplineSet
EndChar

StartChar: dagger
Encoding: 8224 8224 130
Width: 410
VWidth: 960
Flags: W
LayerCount: 2
Fore
SplineSet
232 473 m 1,0,-1
 241 198 l 1,1,-1
 169 198 l 1,2,-1
 178 473 l 1,3,-1
 56 464 l 1,4,-1
 56 535 l 1,5,-1
 177 526 l 1,6,-1
 165 660 l 1,7,-1
 245 660 l 1,8,-1
 233 526 l 1,9,-1
 354 535 l 1,10,-1
 354 464 l 1,11,-1
 232 473 l 1,0,-1
EndSplineSet
EndChar

StartChar: degree
Encoding: 176 176 131
Width: 471
VWidth: 960
Flags: W
LayerCount: 2
Fore
SplineSet
402 504 m 256,0,1
 402 471 402 471 388.5 441.5 c 128,-1,2
 375 412 375 412 351.5 389.5 c 128,-1,3
 328 367 328 367 298 354 c 128,-1,4
 268 341 268 341 235 341 c 256,5,6
 202 341 202 341 172 354 c 128,-1,7
 142 367 142 367 119 389.5 c 128,-1,8
 96 412 96 412 82.5 441.5 c 128,-1,9
 69 471 69 471 69 504 c 256,10,11
 69 537 69 537 82.5 566 c 128,-1,12
 96 595 96 595 119 617.5 c 128,-1,13
 142 640 142 640 172 653 c 128,-1,14
 202 666 202 666 235 666 c 256,15,16
 268 666 268 666 298 653 c 128,-1,17
 328 640 328 640 351.5 617.5 c 128,-1,18
 375 595 375 595 388.5 566 c 128,-1,19
 402 537 402 537 402 504 c 256,0,1
330 504 m 0,20,21
 330 523 330 523 323 540.5 c 128,-1,22
 316 558 316 558 303 571 c 128,-1,23
 290 584 290 584 273 592 c 128,-1,24
 256 600 256 600 235 600 c 0,25,26
 215 600 215 600 197.5 592 c 128,-1,27
 180 584 180 584 167.5 571 c 128,-1,28
 155 558 155 558 148 540.5 c 128,-1,29
 141 523 141 523 141 504 c 0,30,31
 141 484 141 484 148 466.5 c 128,-1,32
 155 449 155 449 167.5 436 c 128,-1,33
 180 423 180 423 197.5 415 c 128,-1,34
 215 407 215 407 235 407 c 0,35,36
 256 407 256 407 273 415 c 128,-1,37
 290 423 290 423 303 436 c 128,-1,38
 316 449 316 449 323 466.5 c 128,-1,39
 330 484 330 484 330 504 c 0,20,21
EndSplineSet
EndChar

StartChar: cent
Encoding: 162 162 132
Width: 581
VWidth: 960
Flags: W
LayerCount: 2
Fore
SplineSet
538 141 m 1,0,1
 499 96 499 96 448.5 68.5 c 128,-1,2
 398 41 398 41 326 40 c 0,3,4
 318 40 318 40 314 41 c 1,5,-1
 298 -46 l 1,6,-1
 210 -46 l 1,7,-1
 230 55 l 1,8,9
 191 69 191 69 158 94.5 c 128,-1,10
 125 120 125 120 101.5 154 c 128,-1,11
 78 188 78 188 65 228.5 c 128,-1,12
 52 269 52 269 52 314 c 0,13,14
 52 371 52 371 72.5 421 c 128,-1,15
 93 471 93 471 129.5 508.5 c 128,-1,16
 166 546 166 546 216 568 c 128,-1,17
 266 590 266 590 325 590 c 2,18,19
 334 590 l 1,20,-1
 349 666 l 1,21,-1
 437 666 l 1,22,-1
 419 577 l 1,23,24
 457 566 457 566 485 545.5 c 128,-1,25
 513 525 513 525 537 499 c 1,26,-1
 464 421 l 1,27,28
 447 437 447 437 430.5 449.5 c 128,-1,29
 414 462 414 462 394 470 c 1,30,-1
 331 147 l 2,31,32
 334 146 334 146 341 146 c 0,33,34
 379 148 379 148 410.5 166 c 128,-1,35
 442 184 442 184 468 210 c 1,36,-1
 538 141 l 1,0,1
317 485 m 1,37,-1
 315 485 l 2,38,39
 283 483 283 483 256.5 469.5 c 128,-1,40
 230 456 230 456 211 433 c 128,-1,41
 192 410 192 410 181 380 c 128,-1,42
 170 350 170 350 170 316 c 0,43,44
 170 265 170 265 193 224.5 c 128,-1,45
 216 184 216 184 255 163 c 1,46,-1
 317 485 l 1,37,-1
EndSplineSet
EndChar

StartChar: sterling
Encoding: 163 163 133
Width: 644
VWidth: 960
Flags: W
LayerCount: 2
Fore
SplineSet
142 342 m 1,0,-1
 142 434 l 2,1,2
 142 543 142 543 202 606.5 c 128,-1,3
 262 670 262 670 372 670 c 0,4,5
 414 670 414 670 447 661.5 c 128,-1,6
 480 653 480 653 506.5 638 c 128,-1,7
 533 623 533 623 554 602.5 c 128,-1,8
 575 582 575 582 593 558 c 1,9,-1
 499 483 l 1,10,11
 472 518 472 518 443.5 537 c 128,-1,12
 415 556 415 556 373 556 c 0,13,14
 322 556 322 556 294 522.5 c 128,-1,15
 266 489 266 489 266 431 c 2,16,-1
 266 342 l 1,17,-1
 515 342 l 1,18,-1
 515 238 l 1,19,-1
 266 238 l 1,20,-1
 266 67 l 1,21,-1
 591 67 l 1,22,-1
 591 -40 l 1,23,-1
 63 -40 l 1,24,-1
 63 38 l 1,25,-1
 142 62 l 1,26,-1
 142 238 l 1,27,-1
 63 238 l 1,28,-1
 63 342 l 1,29,-1
 142 342 l 1,0,-1
EndSplineSet
EndChar

StartChar: section
Encoding: 167 167 134
Width: 632
VWidth: 960
Flags: W
LayerCount: 2
Fore
SplineSet
574 310 m 0,0,1
 574 262 574 262 544.5 234 c 128,-1,2
 515 206 515 206 467 193 c 1,3,4
 522 158 522 158 522 97 c 0,5,6
 522 30 522 30 470.5 -10 c 128,-1,7
 419 -50 419 -50 326 -50 c 0,8,9
 252 -50 252 -50 194.5 -25 c 128,-1,10
 137 0 137 0 95 45 c 1,11,-1
 164 113 l 1,12,13
 199 81 199 81 238 61.5 c 128,-1,14
 277 42 277 42 325 42 c 0,15,16
 367 42 367 42 386.5 56 c 128,-1,17
 406 70 406 70 406 92 c 0,18,19
 406 103 406 103 400.5 112 c 128,-1,20
 395 121 395 121 380.5 129 c 128,-1,21
 366 137 366 137 340 145.5 c 128,-1,22
 314 154 314 154 274 163 c 0,23,24
 216 176 216 176 175 190.5 c 128,-1,25
 134 205 134 205 108 222 c 128,-1,26
 82 239 82 239 70 260.5 c 128,-1,27
 58 282 58 282 58 310 c 0,28,29
 58 358 58 358 87.5 386 c 128,-1,30
 117 414 117 414 165 427 c 1,31,32
 110 462 110 462 110 523 c 0,33,34
 110 590 110 590 161.5 630 c 128,-1,35
 213 670 213 670 306 670 c 0,36,37
 380 670 380 670 437.5 645 c 128,-1,38
 495 620 495 620 537 575 c 1,39,-1
 468 507 l 1,40,41
 433 539 433 539 394 558.5 c 128,-1,42
 355 578 355 578 307 578 c 0,43,44
 265 578 265 578 245.5 564 c 128,-1,45
 226 550 226 550 226 528 c 0,46,47
 226 517 226 517 231.5 508 c 128,-1,48
 237 499 237 499 251.5 491 c 128,-1,49
 266 483 266 483 291.5 474.5 c 128,-1,50
 317 466 317 466 358 457 c 0,51,52
 474 431 474 431 524 398 c 128,-1,53
 574 365 574 365 574 310 c 0,0,1
465 293 m 256,54,55
 465 316 465 316 438.5 332 c 128,-1,56
 412 348 412 348 348 364 c 0,57,58
 309 374 309 374 285 378 c 128,-1,59
 261 382 261 382 244 382 c 0,60,61
 208 382 208 382 187.5 366 c 128,-1,62
 167 350 167 350 167 327 c 256,63,64
 167 304 167 304 193.5 288 c 128,-1,65
 220 272 220 272 284 256 c 0,66,67
 322 246 322 246 346.5 242 c 128,-1,68
 371 238 371 238 388 238 c 0,69,70
 424 238 424 238 444.5 254 c 128,-1,71
 465 270 465 270 465 293 c 256,54,55
EndSplineSet
EndChar

StartChar: bullet
Encoding: 8226 8226 135
Width: 491
VWidth: 960
Flags: W
LayerCount: 2
Fore
SplineSet
387 312 m 256,0,1
 387 283 387 283 376 257 c 128,-1,2
 365 231 365 231 345.5 212 c 128,-1,3
 326 193 326 193 300 182 c 128,-1,4
 274 171 274 171 245 171 c 256,5,6
 216 171 216 171 190.5 182 c 128,-1,7
 165 193 165 193 145.5 212 c 128,-1,8
 126 231 126 231 115 257 c 128,-1,9
 104 283 104 283 104 312 c 256,10,11
 104 341 104 341 115 367 c 128,-1,12
 126 393 126 393 145.5 412 c 128,-1,13
 165 431 165 431 190.5 442 c 128,-1,14
 216 453 216 453 245 453 c 256,15,16
 274 453 274 453 300 442 c 128,-1,17
 326 431 326 431 345.5 412 c 128,-1,18
 365 393 365 393 376 367 c 128,-1,19
 387 341 387 341 387 312 c 256,0,1
EndSplineSet
EndChar

StartChar: paragraph
Encoding: 182 182 136
Width: 557
VWidth: 960
Flags: W
LayerCount: 2
Fore
SplineSet
311 660 m 2,0,1
 470 660 l 1,2,-1
 470 -40 l 1,3,-1
 346 -40 l 1,4,-1
 346 204 l 1,5,-1
 328 204 l 2,6,7
 266 204 266 204 213.5 218.5 c 128,-1,8
 161 233 161 233 122.5 261.5 c 128,-1,9
 84 290 84 290 62 333 c 128,-1,10
 40 376 40 376 40 432 c 0,11,12
 40 486 40 486 60 528 c 128,-1,13
 80 570 80 570 115.5 599.5 c 128,-1,14
 151 629 151 629 201 644.5 c 128,-1,15
 251 660 251 660 311 660 c 2,0,1
EndSplineSet
EndChar

StartChar: germandbls
Encoding: 223 223 137
Width: 620
VWidth: 960
Flags: W
LayerCount: 2
Fore
SplineSet
529 508 m 0,0,1
 529 474 529 474 520 447.5 c 128,-1,2
 511 421 511 421 496 400 c 128,-1,3
 481 379 481 379 461 363.5 c 128,-1,4
 441 348 441 348 419 336 c 1,5,6
 449 326 449 326 476.5 311 c 128,-1,7
 504 296 504 296 525 274.5 c 128,-1,8
 546 253 546 253 558.5 224 c 128,-1,9
 571 195 571 195 571 157 c 0,10,11
 571 108 571 108 551.5 70 c 128,-1,12
 532 32 532 32 496.5 6.5 c 128,-1,13
 461 -19 461 -19 410 -31.5 c 128,-1,14
 359 -44 359 -44 296 -42 c 1,15,-1
 296 51 l 1,16,17
 369 53 369 53 409.5 80.5 c 128,-1,18
 450 108 450 108 450 160 c 0,19,20
 450 210 450 210 407.5 238.5 c 128,-1,21
 365 267 365 267 296 275 c 1,22,-1
 296 357 l 1,23,24
 344 380 344 380 376.5 413.5 c 128,-1,25
 409 447 409 447 409 497 c 0,26,27
 409 542 409 542 381.5 568 c 128,-1,28
 354 594 354 594 308 594 c 0,29,30
 258 594 258 594 227 559.5 c 128,-1,31
 196 525 196 525 196 466 c 2,32,-1
 196 -40 l 1,33,-1
 76 -40 l 1,34,-1
 76 462 l 2,35,36
 76 516 76 516 92.5 559.5 c 128,-1,37
 109 603 109 603 140 633.5 c 128,-1,38
 171 664 171 664 215 680.5 c 128,-1,39
 259 697 259 697 314 697 c 0,40,41
 365 697 365 697 405 682.5 c 128,-1,42
 445 668 445 668 472.5 642.5 c 128,-1,43
 500 617 500 617 514.5 582.5 c 128,-1,44
 529 548 529 548 529 508 c 0,0,1
EndSplineSet
EndChar

StartChar: registered
Encoding: 174 174 138
Width: 830
VWidth: 960
Flags: W
LayerCount: 2
Fore
SplineSet
777 311 m 256,0,1
 777 237 777 237 749 171 c 128,-1,2
 721 105 721 105 672 55.5 c 128,-1,3
 623 6 623 6 556.5 -23 c 128,-1,4
 490 -52 490 -52 414 -52 c 256,5,6
 338 -52 338 -52 272 -23.5 c 128,-1,7
 206 5 206 5 157.5 54 c 128,-1,8
 109 103 109 103 81 169 c 128,-1,9
 53 235 53 235 53 309 c 256,10,11
 53 383 53 383 81 449 c 128,-1,12
 109 515 109 515 158 564.5 c 128,-1,13
 207 614 207 614 273.5 643 c 128,-1,14
 340 672 340 672 416 672 c 256,15,16
 492 672 492 672 558 643.5 c 128,-1,17
 624 615 624 615 672.5 566 c 128,-1,18
 721 517 721 517 749 451 c 128,-1,19
 777 385 777 385 777 311 c 256,0,1
739 311 m 0,20,21
 739 378 739 378 714.5 437.5 c 128,-1,22
 690 497 690 497 646.5 541 c 128,-1,23
 603 585 603 585 544 610.5 c 128,-1,24
 485 636 485 636 416 636 c 256,25,26
 347 636 347 636 287.5 610 c 128,-1,27
 228 584 228 584 184.5 540 c 128,-1,28
 141 496 141 496 116 436 c 128,-1,29
 91 376 91 376 91 309 c 0,30,31
 91 241 91 241 115.5 182 c 128,-1,32
 140 123 140 123 183.5 79 c 128,-1,33
 227 35 227 35 286 9.5 c 128,-1,34
 345 -16 345 -16 414 -16 c 256,35,36
 483 -16 483 -16 542.5 10 c 128,-1,37
 602 36 602 36 645.5 80 c 128,-1,38
 689 124 689 124 714 183.5 c 128,-1,39
 739 243 739 243 739 311 c 0,20,21
584 389 m 0,40,41
 584 342 584 342 559.5 313.5 c 128,-1,42
 535 285 535 285 496 274 c 1,43,-1
 598 131 l 1,44,-1
 512 131 l 1,45,-1
 420 262 l 1,46,-1
 341 262 l 1,47,-1
 341 131 l 1,48,-1
 269 131 l 1,49,-1
 269 510 l 1,50,-1
 438 510 l 2,51,52
 504 510 504 510 544 478 c 128,-1,53
 584 446 584 446 584 389 c 0,40,41
510 385 m 0,54,55
 510 414 510 414 490 429.5 c 128,-1,56
 470 445 470 445 435 445 c 2,57,-1
 341 445 l 1,58,-1
 341 325 l 1,59,-1
 435 325 l 2,60,61
 470 325 470 325 490 341 c 128,-1,62
 510 357 510 357 510 385 c 0,54,55
EndSplineSet
EndChar

StartChar: copyright
Encoding: 169 169 139
Width: 830
VWidth: 960
Flags: W
LayerCount: 2
Fore
SplineSet
777 311 m 256,0,1
 777 237 777 237 749 171 c 128,-1,2
 721 105 721 105 672 55.5 c 128,-1,3
 623 6 623 6 556.5 -23 c 128,-1,4
 490 -52 490 -52 414 -52 c 256,5,6
 338 -52 338 -52 272 -23.5 c 128,-1,7
 206 5 206 5 157.5 54 c 128,-1,8
 109 103 109 103 81 169 c 128,-1,9
 53 235 53 235 53 309 c 256,10,11
 53 383 53 383 81 449 c 128,-1,12
 109 515 109 515 158 564.5 c 128,-1,13
 207 614 207 614 273.5 643 c 128,-1,14
 340 672 340 672 416 672 c 256,15,16
 492 672 492 672 558 643.5 c 128,-1,17
 624 615 624 615 672.5 566 c 128,-1,18
 721 517 721 517 749 451 c 128,-1,19
 777 385 777 385 777 311 c 256,0,1
739 311 m 0,20,21
 739 378 739 378 714.5 437.5 c 128,-1,22
 690 497 690 497 646.5 541 c 128,-1,23
 603 585 603 585 544 610.5 c 128,-1,24
 485 636 485 636 416 636 c 256,25,26
 347 636 347 636 287.5 610 c 128,-1,27
 228 584 228 584 184.5 540 c 128,-1,28
 141 496 141 496 116 436 c 128,-1,29
 91 376 91 376 91 309 c 0,30,31
 91 241 91 241 115.5 182 c 128,-1,32
 140 123 140 123 183.5 79 c 128,-1,33
 227 35 227 35 286 9.5 c 128,-1,34
 345 -16 345 -16 414 -16 c 256,35,36
 483 -16 483 -16 542.5 10 c 128,-1,37
 602 36 602 36 645.5 80 c 128,-1,38
 689 124 689 124 714 183.5 c 128,-1,39
 739 243 739 243 739 311 c 0,20,21
573 187 m 1,40,41
 543 155 543 155 508 137 c 128,-1,42
 473 119 473 119 419 119 c 0,43,44
 378 119 378 119 342.5 134 c 128,-1,45
 307 149 307 149 281.5 175.5 c 128,-1,46
 256 202 256 202 241.5 237.5 c 128,-1,47
 227 273 227 273 227 314 c 0,48,49
 227 354 227 354 241.5 390 c 128,-1,50
 256 426 256 426 281.5 453 c 128,-1,51
 307 480 307 480 342.5 495.5 c 128,-1,52
 378 511 378 511 421 511 c 0,53,54
 475 511 475 511 509 494.5 c 128,-1,55
 543 478 543 478 570 452 c 1,56,-1
 523 398 l 1,57,58
 501 418 501 418 476 430.5 c 128,-1,59
 451 443 451 443 421 443 c 0,60,61
 395 443 395 443 373.5 433 c 128,-1,62
 352 423 352 423 336 405.5 c 128,-1,63
 320 388 320 388 311.5 365 c 128,-1,64
 303 342 303 342 303 315 c 0,65,66
 303 289 303 289 312 265.5 c 128,-1,67
 321 242 321 242 336.5 224.5 c 128,-1,68
 352 207 352 207 373.5 197 c 128,-1,69
 395 187 395 187 421 187 c 0,70,71
 455 187 455 187 478.5 199.5 c 128,-1,72
 502 212 502 212 525 234 c 1,73,-1
 573 187 l 1,40,41
EndSplineSet
EndChar

StartChar: trademark
Encoding: 8482 8482 140
Width: 690
VWidth: 960
Flags: W
LayerCount: 2
Fore
SplineSet
594 571 m 1,0,-1
 499 423 l 1,1,-1
 493 423 l 1,2,-1
 398 571 l 1,3,-1
 398 352 l 1,4,-1
 341 352 l 1,5,-1
 341 660 l 1,6,-1
 404 660 l 1,7,-1
 497 514 l 1,8,-1
 590 660 l 1,9,-1
 651 660 l 1,10,-1
 651 352 l 1,11,-1
 594 352 l 1,12,-1
 594 571 l 1,0,-1
180 606 m 1,13,-1
 180 352 l 1,14,-1
 121 352 l 1,15,-1
 121 606 l 1,16,-1
 26 606 l 1,17,-1
 26 660 l 1,18,-1
 275 660 l 1,19,-1
 275 606 l 1,20,-1
 180 606 l 1,13,-1
EndSplineSet
EndChar

StartChar: acute
Encoding: 180 180 141
Width: 500
VWidth: 960
Flags: W
LayerCount: 2
Fore
SplineSet
254 555 m 1,0,-1
 160 555 l 1,1,-1
 266 719 l 1,2,-1
 376 670 l 1,3,-1
 254 555 l 1,0,-1
EndSplineSet
EndChar

StartChar: dieresis
Encoding: 168 168 142
Width: 500
VWidth: 960
Flags: W
LayerCount: 2
Fore
SplineSet
411 555 m 1,0,-1
 288 555 l 1,1,-1
 288 673 l 1,2,-1
 411 673 l 1,3,-1
 411 555 l 1,0,-1
212 555 m 1,4,-1
 89 555 l 1,5,-1
 89 673 l 1,6,-1
 212 673 l 1,7,-1
 212 555 l 1,4,-1
EndSplineSet
EndChar

StartChar: AE
Encoding: 198 198 143
Width: 1045
VWidth: 960
Flags: W
LayerCount: 2
Fore
SplineSet
232 129 m 1,0,-1
 139 -40 l 1,1,-1
 12 -40 l 1,2,-1
 403 660 l 1,3,-1
 984 660 l 1,4,-1
 984 550 l 1,5,-1
 610 550 l 1,6,-1
 610 368 l 1,7,-1
 939 368 l 1,8,-1
 939 258 l 1,9,-1
 610 258 l 1,10,-1
 610 70 l 1,11,-1
 989 70 l 1,12,-1
 989 -40 l 1,13,-1
 487 -40 l 1,14,-1
 487 129 l 1,15,-1
 232 129 l 1,0,-1
467 553 m 1,16,-1
 291 238 l 1,17,-1
 487 238 l 1,18,-1
 487 553 l 1,19,-1
 467 553 l 1,16,-1
EndSplineSet
EndChar

StartChar: Oslash
Encoding: 216 216 144
Width: 850
VWidth: 960
Flags: W
LayerCount: 2
Fore
SplineSet
791 311 m 0,0,1
 791 237 791 237 764 171 c 128,-1,2
 737 105 737 105 688 55.5 c 128,-1,3
 639 6 639 6 572 -23 c 128,-1,4
 505 -52 505 -52 424 -52 c 0,5,6
 365 -52 365 -52 314 -36.5 c 128,-1,7
 263 -21 263 -21 220 8 c 1,8,-1
 172 -45 l 1,9,-1
 51 -45 l 1,10,-1
 150 67 l 1,11,12
 106 115 106 115 82.5 177 c 128,-1,13
 59 239 59 239 59 309 c 0,14,15
 59 383 59 383 86 449 c 128,-1,16
 113 515 113 515 162 564.5 c 128,-1,17
 211 614 211 614 278 643 c 128,-1,18
 345 672 345 672 426 672 c 0,19,20
 485 672 485 672 536 656.5 c 128,-1,21
 587 641 587 641 630 612 c 1,22,-1
 678 665 l 1,23,-1
 799 665 l 1,24,-1
 700 553 l 1,25,26
 744 505 744 505 767.5 443 c 128,-1,27
 791 381 791 381 791 311 c 0,0,1
552 522 m 1,28,29
 526 540 526 540 493.5 550.5 c 128,-1,30
 461 561 461 561 424 561 c 0,31,32
 371 561 371 561 327.5 541 c 128,-1,33
 284 521 284 521 252 487 c 128,-1,34
 220 453 220 453 202.5 407.5 c 128,-1,35
 185 362 185 362 185 311 c 0,36,37
 185 269 185 269 197 231 c 128,-1,38
 209 193 209 193 232 161 c 1,39,-1
 552 522 l 1,28,29
665 309 m 0,40,41
 665 351 665 351 653 389 c 128,-1,42
 641 427 641 427 618 459 c 1,43,-1
 298 98 l 1,44,45
 324 80 324 80 356.5 69.5 c 128,-1,46
 389 59 389 59 426 59 c 0,47,48
 478 59 478 59 522 79 c 128,-1,49
 566 99 566 99 598 133 c 128,-1,50
 630 167 630 167 647.5 212.5 c 128,-1,51
 665 258 665 258 665 309 c 0,40,41
EndSplineSet
EndChar

StartChar: plusminus
Encoding: 177 177 145
Width: 610
VWidth: 960
Flags: W
LayerCount: 2
Fore
SplineSet
560 160 m 0,0,1
 560 115 560 115 543 76 c 128,-1,2
 526 37 526 37 494 8.5 c 128,-1,3
 462 -20 462 -20 415.5 -36 c 128,-1,4
 369 -52 369 -52 311 -52 c 0,5,6
 225 -52 225 -52 156 -18.5 c 128,-1,7
 87 15 87 15 39 70 c 1,8,-1
 124 149 l 1,9,10
 161 107 161 107 206.5 83 c 128,-1,11
 252 59 252 59 313 59 c 0,12,13
 371 59 371 59 404.5 86.5 c 128,-1,14
 438 114 438 114 438 161 c 0,15,16
 438 210 438 210 397.5 235.5 c 128,-1,17
 357 261 357 261 284 261 c 2,18,-1
 209 261 l 1,19,-1
 209 365 l 1,20,-1
 287 365 l 2,21,22
 348 365 348 365 383.5 392.5 c 128,-1,23
 419 420 419 420 419 466 c 0,24,25
 419 508 419 508 387 534.5 c 128,-1,26
 355 561 355 561 298 561 c 0,27,28
 247 561 247 561 210.5 537.5 c 128,-1,29
 174 514 174 514 139 473 c 1,30,-1
 53 543 l 1,31,32
 75 572 75 572 100.5 596 c 128,-1,33
 126 620 126 620 155.5 637 c 128,-1,34
 185 654 185 654 220.5 663 c 128,-1,35
 256 672 256 672 300 672 c 0,36,37
 354 672 354 672 398.5 658 c 128,-1,38
 443 644 443 644 474.5 619 c 128,-1,39
 506 594 506 594 523.5 559.5 c 128,-1,40
 541 525 541 525 541 484 c 0,41,42
 541 451 541 451 533 425 c 128,-1,43
 525 399 525 399 510.5 379 c 128,-1,44
 496 359 496 359 477 344 c 128,-1,45
 458 329 458 329 437 319 c 1,46,47
 463 309 463 309 485.5 295 c 128,-1,48
 508 281 508 281 524.5 261.5 c 128,-1,49
 541 242 541 242 550.5 217 c 128,-1,50
 560 192 560 192 560 160 c 0,0,1
EndSplineSet
EndChar

StartChar: yen
Encoding: 165 165 146
Width: 686
VWidth: 960
Flags: W
LayerCount: 2
Fore
SplineSet
402 224 m 1,0,-1
 402 151 l 1,1,-1
 595 151 l 1,2,-1
 595 62 l 1,3,-1
 402 62 l 1,4,-1
 402 -40 l 1,5,-1
 284 -40 l 1,6,-1
 284 62 l 1,7,-1
 91 62 l 1,8,-1
 91 151 l 1,9,-1
 284 151 l 1,10,-1
 284 224 l 1,11,-1
 91 224 l 1,12,-1
 91 313 l 1,13,-1
 250 313 l 1,14,-1
 19 660 l 1,15,-1
 162 660 l 1,16,-1
 345 367 l 1,17,-1
 528 660 l 1,18,-1
 667 660 l 1,19,-1
 435 313 l 1,20,-1
 595 313 l 1,21,-1
 595 224 l 1,22,-1
 402 224 l 1,0,-1
EndSplineSet
EndChar

StartChar: mu
Encoding: 181 181 147
AltUni2: 0003bc.ffffffff.0
Width: 850
VWidth: 960
Flags: W
LayerCount: 2
Fore
SplineSet
791 311 m 0,0,1
 791 231 791 231 759.5 161.5 c 128,-1,2
 728 92 728 92 671 41 c 1,3,-1
 846 -133 l 1,4,-1
 846 -141 l 1,5,-1
 666 -141 l 1,6,-1
 550 -30 l 1,7,8
 489 -52 489 -52 424 -52 c 0,9,10
 343 -52 343 -52 276 -23.5 c 128,-1,11
 209 5 209 5 161 54 c 128,-1,12
 113 103 113 103 86 169 c 128,-1,13
 59 235 59 235 59 309 c 256,14,15
 59 383 59 383 86 449 c 128,-1,16
 113 515 113 515 162 564.5 c 128,-1,17
 211 614 211 614 278 643 c 128,-1,18
 345 672 345 672 426 672 c 256,19,20
 507 672 507 672 574 643.5 c 128,-1,21
 641 615 641 615 689 566 c 128,-1,22
 737 517 737 517 764 451 c 128,-1,23
 791 385 791 385 791 311 c 0,0,1
662 309 m 256,24,25
 662 360 662 360 644.5 405.5 c 128,-1,26
 627 451 627 451 595.5 485 c 128,-1,27
 564 519 564 519 520 539 c 128,-1,28
 476 559 476 559 424 559 c 256,29,30
 372 559 372 559 328.5 539.5 c 128,-1,31
 285 520 285 520 254 486.5 c 128,-1,32
 223 453 223 453 205.5 407.5 c 128,-1,33
 188 362 188 362 188 311 c 256,34,35
 188 260 188 260 205.5 214.5 c 128,-1,36
 223 169 223 169 254.5 135 c 128,-1,37
 286 101 286 101 330 81 c 128,-1,38
 374 61 374 61 426 61 c 256,39,40
 478 61 478 61 521.5 80.5 c 128,-1,41
 565 100 565 100 596 133.5 c 128,-1,42
 627 167 627 167 644.5 212.5 c 128,-1,43
 662 258 662 258 662 309 c 256,24,25
EndSplineSet
EndChar

StartChar: pi
Encoding: 960 960 148
Width: 830
VWidth: 960
Flags: W
LayerCount: 2
Fore
SplineSet
777 311 m 256,0,1
 777 237 777 237 749 171 c 128,-1,2
 721 105 721 105 672 55.5 c 128,-1,3
 623 6 623 6 556.5 -23 c 128,-1,4
 490 -52 490 -52 414 -52 c 256,5,6
 338 -52 338 -52 272 -23.5 c 128,-1,7
 206 5 206 5 157.5 54 c 128,-1,8
 109 103 109 103 81 169 c 128,-1,9
 53 235 53 235 53 309 c 256,10,11
 53 383 53 383 81 449 c 128,-1,12
 109 515 109 515 158 564.5 c 128,-1,13
 207 614 207 614 273.5 643 c 128,-1,14
 340 672 340 672 416 672 c 256,15,16
 492 672 492 672 558 643.5 c 128,-1,17
 624 615 624 615 672.5 566 c 128,-1,18
 721 517 721 517 749 451 c 128,-1,19
 777 385 777 385 777 311 c 256,0,1
739 311 m 0,20,21
 739 378 739 378 714.5 437.5 c 128,-1,22
 690 497 690 497 646.5 541 c 128,-1,23
 603 585 603 585 544 610.5 c 128,-1,24
 485 636 485 636 416 636 c 256,25,26
 347 636 347 636 287.5 610 c 128,-1,27
 228 584 228 584 184.5 540 c 128,-1,28
 141 496 141 496 116 436 c 128,-1,29
 91 376 91 376 91 309 c 0,30,31
 91 241 91 241 115.5 182 c 128,-1,32
 140 123 140 123 183.5 79 c 128,-1,33
 227 35 227 35 286 9.5 c 128,-1,34
 345 -16 345 -16 414 -16 c 256,35,36
 483 -16 483 -16 542.5 10 c 128,-1,37
 602 36 602 36 645.5 80 c 128,-1,38
 689 124 689 124 714 183.5 c 128,-1,39
 739 243 739 243 739 311 c 0,20,21
586 378 m 0,40,41
 586 345 586 345 573.5 320.5 c 128,-1,42
 561 296 561 296 540 279.5 c 128,-1,43
 519 263 519 263 490.5 255 c 128,-1,44
 462 247 462 247 431 247 c 2,45,-1
 360 247 l 1,46,-1
 360 127 l 1,47,-1
 286 127 l 1,48,-1
 286 507 l 1,49,-1
 439 507 l 2,50,51
 507 507 507 507 546.5 472.5 c 128,-1,52
 586 438 586 438 586 378 c 0,40,41
511 377 m 0,53,54
 511 409 511 409 490 425 c 128,-1,55
 469 441 469 441 433 441 c 2,56,-1
 360 441 l 1,57,-1
 360 312 l 1,58,-1
 433 312 l 2,59,60
 469 312 469 312 490 330 c 128,-1,61
 511 348 511 348 511 377 c 0,53,54
EndSplineSet
EndChar

StartChar: ordfeminine
Encoding: 170 170 149
Width: 390
VWidth: 960
Flags: W
LayerCount: 2
Fore
SplineSet
319 369 m 1,0,-1
 251 369 l 1,1,-1
 251 403 l 1,2,3
 235 385 235 385 213 374 c 128,-1,4
 191 363 191 363 159 363 c 0,5,6
 138 363 138 363 119.5 369 c 128,-1,7
 101 375 101 375 87 386 c 128,-1,8
 73 397 73 397 64.5 414 c 128,-1,9
 56 431 56 431 56 454 c 0,10,11
 56 502 56 502 89 525 c 128,-1,12
 122 548 122 548 176 548 c 0,13,14
 200 548 200 548 217.5 545 c 128,-1,15
 235 542 235 542 252 537 c 1,16,-1
 252 542 l 2,17,18
 252 603 252 603 182 603 c 0,19,20
 159 603 159 603 139.5 597.5 c 128,-1,21
 120 592 120 592 99 584 c 1,22,-1
 80 638 l 1,23,24
 106 650 106 650 131 656.5 c 128,-1,25
 156 663 156 663 192 663 c 0,26,27
 256 663 256 663 287.5 631.5 c 128,-1,28
 319 600 319 600 319 541 c 2,29,-1
 319 369 l 1,0,-1
323 242 m 1,30,-1
 53 242 l 1,31,-1
 53 300 l 1,32,-1
 323 300 l 1,33,-1
 323 242 l 1,30,-1
252 474 m 2,34,35
 252 492 l 1,36,37
 239 497 239 497 224 500 c 128,-1,38
 209 503 209 503 189 503 c 0,39,40
 159 503 159 503 142 491 c 128,-1,41
 125 479 125 479 125 457 c 0,42,43
 125 436 125 436 139.5 425 c 128,-1,44
 154 414 154 414 177 414 c 0,45,46
 209 414 209 414 230.5 431 c 128,-1,47
 252 448 252 448 252 474 c 2,34,35
EndSplineSet
EndChar

StartChar: ordmasculine
Encoding: 186 186 150
Width: 390
VWidth: 960
Flags: W
LayerCount: 2
Fore
SplineSet
346 514 m 0,0,1
 346 482 346 482 334.5 454.5 c 128,-1,2
 323 427 323 427 302.5 406.5 c 128,-1,3
 282 386 282 386 254.5 374 c 128,-1,4
 227 362 227 362 194 362 c 0,5,6
 162 362 162 362 134.5 374 c 128,-1,7
 107 386 107 386 87 406 c 128,-1,8
 67 426 67 426 55.5 453.5 c 128,-1,9
 44 481 44 481 44 513 c 0,10,11
 44 544 44 544 55.5 572 c 128,-1,12
 67 600 67 600 87.5 620.5 c 128,-1,13
 108 641 108 641 135.5 653 c 128,-1,14
 163 665 163 665 196 665 c 0,15,16
 228 665 228 665 255.5 653 c 128,-1,17
 283 641 283 641 303 621 c 128,-1,18
 323 601 323 601 334.5 573 c 128,-1,19
 346 545 346 545 346 514 c 0,0,1
339 242 m 1,20,-1
 51 242 l 1,21,-1
 51 300 l 1,22,-1
 339 300 l 1,23,-1
 339 242 l 1,20,-1
276 513 m 256,24,25
 276 550 276 550 253 576.5 c 128,-1,26
 230 603 230 603 194 603 c 0,27,28
 157 603 157 603 135.5 577 c 128,-1,29
 114 551 114 551 114 514 c 256,30,31
 114 477 114 477 137 450.5 c 128,-1,32
 160 424 160 424 196 424 c 0,33,34
 233 424 233 424 254.5 450 c 128,-1,35
 276 476 276 476 276 513 c 256,24,25
EndSplineSet
EndChar

StartChar: ae
Encoding: 230 230 151
Width: 952
VWidth: 960
Flags: W
LayerCount: 2
Fore
SplineSet
461 38 m 1,0,1
 416 1 416 1 361.5 -25 c 128,-1,2
 307 -51 307 -51 240 -51 c 0,3,4
 195 -51 195 -51 158.5 -40 c 128,-1,5
 122 -29 122 -29 95.5 -8 c 128,-1,6
 69 13 69 13 54.5 44 c 128,-1,7
 40 75 40 75 40 115 c 0,8,9
 40 157 40 157 56 189 c 128,-1,10
 72 221 72 221 100.5 242 c 128,-1,11
 129 263 129 263 168.5 273.5 c 128,-1,12
 208 284 208 284 254 284 c 0,13,14
 302 284 302 284 335.5 278 c 128,-1,15
 369 272 369 272 400 262 c 1,16,-1
 400 275 l 2,17,18
 400 330 400 330 366.5 359 c 128,-1,19
 333 388 333 388 270 388 c 0,20,21
 225 388 225 388 190 379 c 128,-1,22
 155 370 155 370 119 355 c 1,23,-1
 86 452 l 1,24,25
 130 472 130 472 175.5 484 c 128,-1,26
 221 496 221 496 284 496 c 0,27,28
 353 496 353 496 399.5 473.5 c 128,-1,29
 446 451 446 451 470 409 c 1,30,31
 502 451 502 451 549 475 c 128,-1,32
 596 499 596 499 655 499 c 0,33,34
 717 499 717 499 764 476 c 128,-1,35
 811 453 811 453 842.5 414 c 128,-1,36
 874 375 874 375 889.5 323 c 128,-1,37
 905 271 905 271 905 214 c 0,38,39
 905 206 905 206 905 198 c 256,40,41
 905 190 905 190 904 181 c 1,42,-1
 516 181 l 1,43,44
 527 116 527 116 568 81.5 c 128,-1,45
 609 47 609 47 667 47 c 0,46,47
 712 47 712 47 745.5 63 c 128,-1,48
 779 79 779 79 811 110 c 1,49,-1
 882 47 l 1,50,51
 844 2 844 2 791.5 -25 c 128,-1,52
 739 -52 739 -52 665 -52 c 0,53,54
 603 -52 603 -52 550 -28 c 128,-1,55
 497 -4 497 -4 461 38 c 1,0,1
514 261 m 1,56,57
 786 261 l 1,58,59
 783 290 783 290 773 315.5 c 128,-1,60
 763 341 763 341 746 359.5 c 128,-1,61
 729 378 729 378 705.5 389 c 128,-1,62
 682 400 682 400 652 400 c 0,63,64
 595 400 595 400 558.5 361.5 c 128,-1,65
 522 323 522 323 514 261 c 1,56,57
397 187 m 1,66,67
 374 195 374 195 345 200 c 128,-1,68
 316 205 316 205 281 205 c 0,69,70
 224 205 224 205 192 183 c 128,-1,71
 160 161 160 161 160 120 c 0,72,73
 160 81 160 81 189.5 60.5 c 128,-1,74
 219 40 219 40 262 40 c 0,75,76
 308 40 308 40 346 57.5 c 128,-1,77
 384 75 384 75 417 106 c 1,78,79
 409 125 409 125 404 144.5 c 128,-1,80
 399 164 399 164 397 187 c 1,66,67
EndSplineSet
EndChar

StartChar: oslash
Encoding: 248 248 152
Width: 657
VWidth: 960
Flags: W
LayerCount: 2
Fore
SplineSet
610 224 m 0,0,1
 610 167 610 167 588.5 117 c 128,-1,2
 567 67 567 67 529.5 29.5 c 128,-1,3
 492 -8 492 -8 440 -30 c 128,-1,4
 388 -52 388 -52 327 -52 c 0,5,6
 285 -52 285 -52 246.5 -40.5 c 128,-1,7
 208 -29 208 -29 176 -9 c 1,8,-1
 142 -45 l 1,9,-1
 32 -45 l 1,10,-1
 112 44 l 1,11,12
 81 80 81 80 64 125.5 c 128,-1,13
 47 171 47 171 47 222 c 0,14,15
 47 279 47 279 68.5 329.5 c 128,-1,16
 90 380 90 380 127.5 417.5 c 128,-1,17
 165 455 165 455 216.5 477 c 128,-1,18
 268 499 268 499 329 499 c 0,19,20
 372 499 372 499 410 487.5 c 128,-1,21
 448 476 448 476 480 456 c 1,22,-1
 515 494 l 1,23,-1
 625 494 l 1,24,-1
 544 403 l 1,25,26
 576 367 576 367 593 321.5 c 128,-1,27
 610 276 610 276 610 224 c 0,0,1
409 372 m 1,28,29
 374 396 374 396 327 396 c 0,30,31
 291 396 291 396 261 382.5 c 128,-1,32
 231 369 231 369 209.5 346 c 128,-1,33
 188 323 188 323 176.5 291.5 c 128,-1,34
 165 260 165 260 165 224 c 0,35,36
 165 173 165 173 190 132 c 1,37,-1
 409 372 l 1,28,29
492 222 m 0,38,39
 492 274 492 274 467 315 c 1,40,-1
 249 74 l 1,41,42
 266 63 266 63 286 56.5 c 128,-1,43
 306 50 306 50 329 50 c 0,44,45
 366 50 366 50 396 63.5 c 128,-1,46
 426 77 426 77 447.5 100.5 c 128,-1,47
 469 124 469 124 480.5 155 c 128,-1,48
 492 186 492 186 492 222 c 0,38,39
EndSplineSet
EndChar

StartChar: questiondown
Encoding: 191 191 153
Width: 541
VWidth: 960
Flags: W
LayerCount: 2
Fore
SplineSet
229 660 m 1,0,-1
 363 660 l 1,1,-1
 363 523 l 1,2,-1
 229 523 l 1,3,-1
 229 660 l 1,0,-1
349 272 m 1,4,5
 253 268 253 268 208.5 239 c 128,-1,6
 164 210 164 210 164 159 c 0,7,8
 164 116 164 116 194.5 89.5 c 128,-1,9
 225 63 225 63 279 63 c 0,10,11
 327 63 327 63 366.5 83.5 c 128,-1,12
 406 104 406 104 442 142 c 1,13,-1
 517 62 l 1,14,15
 473 12 473 12 415 -18.5 c 128,-1,16
 357 -49 357 -49 276 -49 c 0,17,18
 223 -49 223 -49 180 -35 c 128,-1,19
 137 -21 137 -21 106.5 5.5 c 128,-1,20
 76 32 76 32 59 70 c 128,-1,21
 42 108 42 108 42 155 c 0,22,23
 42 203 42 203 58 238 c 128,-1,24
 74 273 74 273 101 297 c 128,-1,25
 128 321 128 321 164.5 336 c 128,-1,26
 201 351 201 351 243 358 c 1,27,-1
 253 439 l 1,28,-1
 334 439 l 1,29,-1
 354 277 l 1,30,-1
 349 272 l 1,4,5
EndSplineSet
EndChar

StartChar: exclamdown
Encoding: 161 161 154
Width: 302
VWidth: 960
Flags: W
LayerCount: 2
Fore
SplineSet
85 660 m 1,0,-1
 218 660 l 1,1,-1
 218 523 l 1,2,-1
 85 523 l 1,3,-1
 85 660 l 1,0,-1
222 -40 m 1,4,-1
 80 -40 l 1,5,-1
 80 -5 l 1,6,-1
 118 439 l 1,7,-1
 185 439 l 1,8,-1
 222 -5 l 1,9,-1
 222 -40 l 1,4,-1
EndSplineSet
EndChar

StartChar: radical
Encoding: 8730 8730 155
Width: 1038
VWidth: 960
Flags: W
LayerCount: 2
Fore
SplineSet
598 484 m 1,0,-1
 738 484 l 1,1,-1
 738 384 l 1,2,-1
 600 384 l 1,3,-1
 600 -40 l 1,4,-1
 479 -40 l 1,5,-1
 479 384 l 1,6,-1
 412 384 l 1,7,-1
 412 485 l 1,8,-1
 479 485 l 1,9,-1
 479 523 l 2,10,11
 479 611 479 611 520.5 653.5 c 128,-1,12
 562 696 562 696 640 696 c 0,13,14
 672 696 672 696 695.5 692 c 128,-1,15
 719 688 719 688 739 682 c 1,16,-1
 739 580 l 1,17,18
 721 586 721 586 704.5 589.5 c 128,-1,19
 688 593 688 593 668 593 c 0,20,21
 598 593 598 593 598 513 c 2,22,-1
 598 484 l 1,0,-1
222 484 m 1,23,-1
 362 484 l 1,24,-1
 362 384 l 1,25,-1
 224 384 l 1,26,-1
 224 -40 l 1,27,-1
 103 -40 l 1,28,-1
 103 384 l 1,29,-1
 36 384 l 1,30,-1
 36 485 l 1,31,-1
 103 485 l 1,32,-1
 103 523 l 2,33,34
 103 611 103 611 145 653.5 c 128,-1,35
 187 696 187 696 265 696 c 0,36,37
 297 696 297 696 320 692 c 128,-1,38
 343 688 343 688 363 682 c 1,39,-1
 363 580 l 1,40,41
 345 586 345 586 328.5 589.5 c 128,-1,42
 312 593 312 593 292 593 c 0,43,44
 222 593 222 593 222 513 c 2,45,-1
 222 484 l 1,23,-1
956 -40 m 1,46,-1
 834 -40 l 1,47,-1
 834 690 l 1,48,-1
 956 690 l 1,49,-1
 956 -40 l 1,46,-1
EndSplineSet
EndChar

StartChar: florin
Encoding: 402 402 156
Width: 527
VWidth: 960
Flags: W
LayerCount: 2
Fore
SplineSet
491 552 m 1,0,1
 473 557 473 557 455.5 559.5 c 128,-1,2
 438 562 438 562 422 562 c 0,3,4
 387 562 387 562 368 544 c 128,-1,5
 349 526 349 526 341 485 c 2,6,-1
 329 417 l 1,7,-1
 456 417 l 1,8,-1
 456 316 l 1,9,-1
 311 316 l 1,10,-1
 273 105 l 2,11,12
 259 24 259 24 217 -10.5 c 128,-1,13
 175 -45 175 -45 97 -45 c 0,14,15
 79 -45 79 -45 66 -44 c 128,-1,16
 53 -43 53 -43 41 -40 c 1,17,-1
 41 59 l 1,18,19
 62 56 62 56 81 56 c 0,20,21
 113 56 113 56 130 71.5 c 128,-1,22
 147 87 147 87 154 123 c 2,23,-1
 189 316 l 1,24,-1
 109 316 l 1,25,-1
 109 417 l 1,26,-1
 206 417 l 1,27,-1
 224 510 l 2,28,29
 239 586 239 586 278.5 625.5 c 128,-1,30
 318 665 318 665 399 665 c 0,31,32
 428 665 428 665 450 662 c 128,-1,33
 472 659 472 659 491 654 c 1,34,-1
 491 552 l 1,0,1
EndSplineSet
EndChar

StartChar: approxequal
Encoding: 8776 8776 157
Width: 1038
VWidth: 960
Flags: W
LayerCount: 2
Fore
SplineSet
960 569 m 1,0,-1
 830 569 l 1,1,-1
 830 684 l 1,2,-1
 960 684 l 1,3,-1
 960 569 l 1,0,-1
598 484 m 1,4,-1
 738 484 l 1,5,-1
 738 384 l 1,6,-1
 600 384 l 1,7,-1
 600 -40 l 1,8,-1
 479 -40 l 1,9,-1
 479 384 l 1,10,-1
 412 384 l 1,11,-1
 412 485 l 1,12,-1
 479 485 l 1,13,-1
 479 523 l 2,14,15
 479 611 479 611 520.5 653.5 c 128,-1,16
 562 696 562 696 640 696 c 0,17,18
 672 696 672 696 695.5 692 c 128,-1,19
 719 688 719 688 739 682 c 1,20,-1
 739 580 l 1,21,22
 721 586 721 586 704.5 589.5 c 128,-1,23
 688 593 688 593 668 593 c 0,24,25
 598 593 598 593 598 513 c 2,26,-1
 598 484 l 1,4,-1
222 484 m 1,27,-1
 362 484 l 1,28,-1
 362 384 l 1,29,-1
 224 384 l 1,30,-1
 224 -40 l 1,31,-1
 103 -40 l 1,32,-1
 103 384 l 1,33,-1
 36 384 l 1,34,-1
 36 485 l 1,35,-1
 103 485 l 1,36,-1
 103 523 l 2,37,38
 103 611 103 611 145 653.5 c 128,-1,39
 187 696 187 696 265 696 c 0,40,41
 297 696 297 696 320 692 c 128,-1,42
 343 688 343 688 363 682 c 1,43,-1
 363 580 l 1,44,45
 345 586 345 586 328.5 589.5 c 128,-1,46
 312 593 312 593 292 593 c 0,47,48
 222 593 222 593 222 513 c 2,49,-1
 222 484 l 1,27,-1
956 -40 m 1,50,-1
 834 -40 l 1,51,-1
 834 488 l 1,52,-1
 956 488 l 1,53,-1
 956 -40 l 1,50,-1
EndSplineSet
EndChar

StartChar: guillemotleft
Encoding: 171 171 158
Width: 606
VWidth: 960
Flags: W
LayerCount: 2
Fore
SplineSet
461 448 m 1,0,-1
 553 401 l 1,1,-1
 421 225 l 1,2,-1
 553 48 l 1,3,-1
 461 1 l 1,4,-1
 296 220 l 1,5,-1
 296 228 l 1,6,-1
 461 448 l 1,0,-1
210 448 m 1,7,-1
 302 401 l 1,8,-1
 170 225 l 1,9,-1
 302 48 l 1,10,-1
 210 1 l 1,11,-1
 44 220 l 1,12,-1
 44 228 l 1,13,-1
 210 448 l 1,7,-1
EndSplineSet
EndChar

StartChar: guillemotright
Encoding: 187 187 159
Width: 606
VWidth: 960
Flags: W
LayerCount: 2
Fore
SplineSet
396 1 m 1,0,-1
 304 47 l 1,1,-1
 436 223 l 1,2,-1
 304 400 l 1,3,-1
 396 448 l 1,4,-1
 562 228 l 1,5,-1
 562 220 l 1,6,-1
 396 1 l 1,0,-1
145 1 m 1,7,-1
 53 47 l 1,8,-1
 185 223 l 1,9,-1
 53 400 l 1,10,-1
 145 448 l 1,11,-1
 310 228 l 1,12,-1
 310 220 l 1,13,-1
 145 1 l 1,7,-1
EndSplineSet
EndChar

StartChar: ellipsis
Encoding: 8230 8230 160
Width: 792
VWidth: 960
Flags: W
LayerCount: 2
Fore
SplineSet
724 -40 m 1,0,-1
 594 -40 l 1,1,-1
 594 94 l 1,2,-1
 724 94 l 1,3,-1
 724 -40 l 1,0,-1
461 -40 m 1,4,-1
 331 -40 l 1,5,-1
 331 94 l 1,6,-1
 461 94 l 1,7,-1
 461 -40 l 1,4,-1
198 -40 m 1,8,-1
 68 -40 l 1,9,-1
 68 94 l 1,10,-1
 198 94 l 1,11,-1
 198 -40 l 1,8,-1
EndSplineSet
EndChar

StartChar: OE
Encoding: 338 338 165
Width: 1098
VWidth: 960
Flags: W
LayerCount: 2
Fore
SplineSet
1042 -40 m 1,0,-1
 431 -40 l 2,1,2
 348 -40 348 -40 280 -13.5 c 128,-1,3
 212 13 212 13 162.5 60 c 128,-1,4
 113 107 113 107 86 171 c 128,-1,5
 59 235 59 235 59 309 c 256,6,7
 59 383 59 383 86 447 c 128,-1,8
 113 511 113 511 162.5 558.5 c 128,-1,9
 212 606 212 606 280 633 c 128,-1,10
 348 660 348 660 431 660 c 2,11,-1
 1037 660 l 1,12,-1
 1037 550 l 1,13,-1
 663 550 l 1,14,-1
 663 368 l 1,15,-1
 992 368 l 1,16,-1
 992 258 l 1,17,-1
 663 258 l 1,18,-1
 663 70 l 1,19,-1
 1042 70 l 1,20,-1
 1042 -40 l 1,0,-1
540 72 m 1,21,-1
 540 548 l 1,22,-1
 431 548 l 2,23,24
 376 548 376 548 331 530.5 c 128,-1,25
 286 513 286 513 254.5 481.5 c 128,-1,26
 223 450 223 450 205.5 406.5 c 128,-1,27
 188 363 188 363 188 311 c 256,28,29
 188 259 188 259 205.5 215.5 c 128,-1,30
 223 172 223 172 254.5 140 c 128,-1,31
 286 108 286 108 331 90 c 128,-1,32
 376 72 376 72 431 72 c 2,33,-1
 540 72 l 1,21,-1
EndSplineSet
EndChar

StartChar: oe
Encoding: 339 339 166
Width: 1040
VWidth: 960
Flags: W
LayerCount: 2
Fore
SplineSet
539 62 m 1,0,1
 504 11 504 11 447.5 -20.5 c 128,-1,2
 391 -52 391 -52 321 -52 c 0,3,4
 264 -52 264 -52 214 -30.5 c 128,-1,5
 164 -9 164 -9 127 28.5 c 128,-1,6
 90 66 90 66 68.5 115.5 c 128,-1,7
 47 165 47 165 47 222 c 256,8,9
 47 279 47 279 68.5 329.5 c 128,-1,10
 90 380 90 380 127.5 417.5 c 128,-1,11
 165 455 165 455 216 477 c 128,-1,12
 267 499 267 499 326 499 c 0,13,14
 395 499 395 499 450.5 468 c 128,-1,15
 506 437 506 437 541 386 c 1,16,17
 573 437 573 437 625 468 c 128,-1,18
 677 499 677 499 743 499 c 0,19,20
 805 499 805 499 851.5 476 c 128,-1,21
 898 453 898 453 929.5 414 c 128,-1,22
 961 375 961 375 977 323 c 128,-1,23
 993 271 993 271 993 214 c 0,24,25
 993 206 993 206 992.5 198 c 128,-1,26
 992 190 992 190 991 181 c 1,27,-1
 603 181 l 1,28,29
 614 116 614 116 655.5 81.5 c 128,-1,30
 697 47 697 47 755 47 c 0,31,32
 800 47 800 47 833.5 63 c 128,-1,33
 867 79 867 79 899 110 c 1,34,-1
 970 47 l 1,35,36
 932 2 932 2 879 -25 c 128,-1,37
 826 -52 826 -52 754 -52 c 0,38,39
 684 -52 684 -52 628 -22 c 128,-1,40
 572 8 572 8 539 62 c 1,0,1
602 261 m 1,41,42
 874 261 l 1,43,44
 871 290 871 290 860.5 315.5 c 128,-1,45
 850 341 850 341 833.5 359.5 c 128,-1,46
 817 378 817 378 793.5 389 c 128,-1,47
 770 400 770 400 740 400 c 0,48,49
 683 400 683 400 646.5 361.5 c 128,-1,50
 610 323 610 323 602 261 c 1,41,42
482 222 m 256,51,52
 482 257 482 257 470 288 c 128,-1,53
 458 319 458 319 437 342.5 c 128,-1,54
 416 366 416 366 387 379.5 c 128,-1,55
 358 393 358 393 324 393 c 0,56,57
 288 393 288 393 259.5 379.5 c 128,-1,58
 231 366 231 366 210.5 343 c 128,-1,59
 190 320 190 320 179 289.5 c 128,-1,60
 168 259 168 259 168 224 c 256,61,62
 168 189 168 189 179.5 157.5 c 128,-1,63
 191 126 191 126 212 103 c 128,-1,64
 233 80 233 80 262 66.5 c 128,-1,65
 291 53 291 53 326 53 c 0,66,67
 362 53 362 53 390.5 66.5 c 128,-1,68
 419 80 419 80 439.5 103 c 128,-1,69
 460 126 460 126 471 156.5 c 128,-1,70
 482 187 482 187 482 222 c 256,51,52
EndSplineSet
EndChar

StartChar: endash
Encoding: 8211 8211 167
Width: 528
VWidth: 960
Flags: W
LayerCount: 2
Fore
SplineSet
472 209 m 1,0,-1
 56 209 l 1,1,-1
 56 324 l 1,2,-1
 472 324 l 1,3,-1
 472 209 l 1,0,-1
EndSplineSet
EndChar

StartChar: emdash
Encoding: 8212 8212 168
Width: 898
VWidth: 960
Flags: W
LayerCount: 2
Fore
SplineSet
842 209 m 1,0,-1
 56 209 l 1,1,-1
 56 324 l 1,2,-1
 842 324 l 1,3,-1
 842 209 l 1,0,-1
EndSplineSet
EndChar

StartChar: quotedblleft
Encoding: 8220 8220 169
Width: 501
VWidth: 960
Flags: W
LayerCount: 2
Fore
SplineSet
462 613 m 1,0,1
 370 596 370 596 376 520 c 1,2,-1
 428 520 l 1,3,-1
 428 382 l 1,4,-1
 295 382 l 1,5,-1
 295 499 l 2,6,7
 295 583 295 583 334 621 c 128,-1,8
 373 659 373 659 449 665 c 1,9,-1
 462 613 l 1,0,1
230 613 m 1,10,11
 138 596 138 596 145 520 c 1,12,-1
 196 520 l 1,13,-1
 196 382 l 1,14,-1
 63 382 l 1,15,-1
 63 499 l 2,16,17
 63 583 63 583 102 621 c 128,-1,18
 141 659 141 659 217 665 c 1,19,-1
 230 613 l 1,10,11
EndSplineSet
EndChar

StartChar: quotedblright
Encoding: 8221 8221 170
Width: 501
VWidth: 960
Flags: W
LayerCount: 2
Fore
SplineSet
271 429 m 1,0,1
 363 446 363 446 356 523 c 1,2,-1
 305 523 l 1,3,-1
 305 660 l 1,4,-1
 438 660 l 1,5,-1
 438 543 l 2,6,7
 438 459 438 459 399 421 c 128,-1,8
 360 383 360 383 284 377 c 1,9,-1
 271 429 l 1,0,1
39 429 m 1,10,11
 131 446 131 446 124 523 c 1,12,-1
 73 523 l 1,13,-1
 73 660 l 1,14,-1
 206 660 l 1,15,-1
 206 543 l 2,16,17
 206 459 206 459 167 421 c 128,-1,18
 128 383 128 383 52 377 c 1,19,-1
 39 429 l 1,10,11
EndSplineSet
EndChar

StartChar: quoteleft
Encoding: 8216 8216 171
Width: 269
VWidth: 960
Flags: W
LayerCount: 2
Fore
SplineSet
230 613 m 1,0,1
 138 596 138 596 145 520 c 1,2,-1
 196 520 l 1,3,-1
 196 382 l 1,4,-1
 63 382 l 1,5,-1
 63 499 l 2,6,7
 63 583 63 583 102 621 c 128,-1,8
 141 659 141 659 217 665 c 1,9,-1
 230 613 l 1,0,1
EndSplineSet
EndChar

StartChar: quoteright
Encoding: 8217 8217 172
Width: 269
VWidth: 960
Flags: W
LayerCount: 2
Fore
SplineSet
39 429 m 1,0,1
 131 446 131 446 124 523 c 1,2,-1
 73 523 l 1,3,-1
 73 660 l 1,4,-1
 206 660 l 1,5,-1
 206 543 l 2,6,7
 206 459 206 459 167 421 c 128,-1,8
 128 383 128 383 52 377 c 1,9,-1
 39 429 l 1,0,1
EndSplineSet
EndChar

StartChar: currency
Encoding: 164 164 175
Width: 720
VWidth: 960
Flags: W
LayerCount: 2
Fore
SplineSet
130 355 m 1,0,1
 52 355 l 1,2,-1
 52 440 l 1,3,-1
 146 440 l 1,4,5
 161 491 161 491 187.5 533.5 c 128,-1,6
 214 576 214 576 250 606.5 c 128,-1,7
 286 637 286 637 331.5 654.5 c 128,-1,8
 377 672 377 672 430 672 c 0,9,10
 476 672 476 672 512.5 662 c 128,-1,11
 549 652 549 652 578 634.5 c 128,-1,12
 607 617 607 617 630.5 592.5 c 128,-1,13
 654 568 654 568 674 540 c 1,14,-1
 581 471 l 1,15,16
 549 515 549 515 514 538.5 c 128,-1,17
 479 562 479 562 427 562 c 0,18,19
 373 562 373 562 333.5 529.5 c 128,-1,20
 294 497 294 497 274 440 c 1,21,-1
 488 440 l 1,22,-1
 488 355 l 1,23,-1
 254 355 l 1,24,25
 253 344 253 344 252.5 333 c 128,-1,26
 252 322 252 322 252 311 c 256,27,28
 252 300 252 300 252.5 290.5 c 128,-1,29
 253 281 253 281 254 270 c 1,30,-1
 488 270 l 1,31,-1
 488 185 l 1,32,-1
 272 185 l 1,33,34
 292 126 292 126 334 92 c 128,-1,35
 376 58 376 58 435 58 c 0,36,37
 460 58 460 58 480.5 64.5 c 128,-1,38
 501 71 501 71 519 83 c 128,-1,39
 537 95 537 95 554 112.5 c 128,-1,40
 571 130 571 130 588 153 c 1,41,-1
 676 89 l 1,42,43
 655 58 655 58 630.5 32 c 128,-1,44
 606 6 606 6 576.5 -12.5 c 128,-1,45
 547 -31 547 -31 512 -41.5 c 128,-1,46
 477 -52 477 -52 434 -52 c 0,47,48
 378 -52 378 -52 331 -35 c 128,-1,49
 284 -18 284 -18 247 13.5 c 128,-1,50
 210 45 210 45 183.5 88.5 c 128,-1,51
 157 132 157 132 143 185 c 1,52,-1
 52 185 l 1,53,-1
 52 270 l 1,54,-1
 129 270 l 1,55,56
 128 280 128 280 128 289 c 0,57,58
 128 299 128 299 128 309 c 0,59,60
 128 320 128 320 128 332 c 256,61,62
 128 344 128 344 130 355 c 1,0,1
EndSplineSet
EndChar

StartChar: guilsinglleft
Encoding: 8249 8249 176
Width: 354
VWidth: 960
Flags: W
LayerCount: 2
Fore
SplineSet
210 448 m 1,0,-1
 302 401 l 1,1,-1
 170 225 l 1,2,-1
 302 48 l 1,3,-1
 210 1 l 1,4,-1
 44 220 l 1,5,-1
 44 228 l 1,6,-1
 210 448 l 1,0,-1
EndSplineSet
EndChar

StartChar: guilsinglright
Encoding: 8250 8250 177
Width: 354
VWidth: 960
Flags: W
LayerCount: 2
Fore
SplineSet
145 1 m 1,0,-1
 53 47 l 1,1,-1
 185 223 l 1,2,-1
 53 400 l 1,3,-1
 145 448 l 1,4,-1
 310 228 l 1,5,-1
 310 220 l 1,6,-1
 145 1 l 1,0,-1
EndSplineSet
EndChar

StartChar: fi
Encoding: 64257 64257 178
Width: 662
VWidth: 960
Flags: W
LayerCount: 2
Fore
SplineSet
584 569 m 1,0,-1
 454 569 l 1,1,-1
 454 684 l 1,2,-1
 584 684 l 1,3,-1
 584 569 l 1,0,-1
222 484 m 1,4,-1
 362 484 l 1,5,-1
 362 384 l 1,6,-1
 224 384 l 1,7,-1
 224 -40 l 1,8,-1
 103 -40 l 1,9,-1
 103 384 l 1,10,-1
 36 384 l 1,11,-1
 36 485 l 1,12,-1
 103 485 l 1,13,-1
 103 523 l 2,14,15
 103 611 103 611 145 653.5 c 128,-1,16
 187 696 187 696 265 696 c 0,17,18
 297 696 297 696 320 692 c 128,-1,19
 343 688 343 688 363 682 c 1,20,-1
 363 580 l 1,21,22
 345 586 345 586 328.5 589.5 c 128,-1,23
 312 593 312 593 292 593 c 0,24,25
 222 593 222 593 222 513 c 2,26,-1
 222 484 l 1,4,-1
580 -40 m 1,27,-1
 459 -40 l 1,28,-1
 459 488 l 1,29,-1
 580 488 l 1,30,-1
 580 -40 l 1,27,-1
EndSplineSet
EndChar

StartChar: fl
Encoding: 64258 64258 179
Width: 662
VWidth: 960
Flags: W
LayerCount: 2
Fore
SplineSet
222 484 m 1,0,-1
 362 484 l 1,1,-1
 362 384 l 1,2,-1
 224 384 l 1,3,-1
 224 -40 l 1,4,-1
 103 -40 l 1,5,-1
 103 384 l 1,6,-1
 36 384 l 1,7,-1
 36 485 l 1,8,-1
 103 485 l 1,9,-1
 103 523 l 2,10,11
 103 611 103 611 145 653.5 c 128,-1,12
 187 696 187 696 265 696 c 0,13,14
 297 696 297 696 320 692 c 128,-1,15
 343 688 343 688 363 682 c 1,16,-1
 363 580 l 1,17,18
 345 586 345 586 328.5 589.5 c 128,-1,19
 312 593 312 593 292 593 c 0,20,21
 222 593 222 593 222 513 c 2,22,-1
 222 484 l 1,0,-1
580 -40 m 1,23,-1
 459 -40 l 1,24,-1
 459 690 l 1,25,-1
 580 690 l 1,26,-1
 580 -40 l 1,23,-1
EndSplineSet
EndChar

StartChar: daggerdbl
Encoding: 8225 8225 180
Width: 430
VWidth: 960
Flags: W
LayerCount: 2
Fore
SplineSet
364 85 m 1,0,-1
 243 94 l 1,1,-1
 255 -40 l 1,2,-1
 175 -40 l 1,3,-1
 187 94 l 1,4,-1
 66 85 l 1,5,-1
 66 156 l 1,6,-1
 187 147 l 1,7,-1
 179 310 l 1,8,-1
 187 473 l 1,9,-1
 66 464 l 1,10,-1
 66 535 l 1,11,-1
 187 526 l 1,12,-1
 175 660 l 1,13,-1
 255 660 l 1,14,-1
 243 526 l 1,15,-1
 364 535 l 1,16,-1
 364 464 l 1,17,-1
 243 473 l 1,18,-1
 251 310 l 1,19,-1
 243 147 l 1,20,-1
 364 156 l 1,21,-1
 364 85 l 1,0,-1
EndSplineSet
EndChar

StartChar: periodcentered
Encoding: 183 183 181
Width: 269
VWidth: 960
Flags: W
LayerCount: 2
Fore
SplineSet
201 198 m 1,0,-1
 68 198 l 1,1,-1
 68 335 l 1,2,-1
 201 335 l 1,3,-1
 201 198 l 1,0,-1
EndSplineSet
EndChar

StartChar: quotesinglbase
Encoding: 8218 8218 182
Width: 269
VWidth: 960
Flags: W
LayerCount: 2
Fore
SplineSet
34 -134 m 1,0,1
 126 -116 126 -116 119 -40 c 1,2,-1
 68 -40 l 1,3,-1
 68 97 l 1,4,-1
 201 97 l 1,5,-1
 201 -19 l 2,6,7
 201 -103 201 -103 162 -141 c 128,-1,8
 123 -179 123 -179 47 -185 c 1,9,-1
 34 -134 l 1,0,1
EndSplineSet
EndChar

StartChar: quotedblbase
Encoding: 8222 8222 183
Width: 501
VWidth: 960
Flags: W
LayerCount: 2
Fore
SplineSet
266 -134 m 1,0,1
 358 -116 358 -116 351 -40 c 1,2,-1
 300 -40 l 1,3,-1
 300 97 l 1,4,-1
 433 97 l 1,5,-1
 433 -19 l 2,6,7
 433 -103 433 -103 394 -141 c 128,-1,8
 355 -179 355 -179 279 -185 c 1,9,-1
 266 -134 l 1,0,1
34 -134 m 1,10,11
 126 -116 126 -116 119 -40 c 1,12,-1
 68 -40 l 1,13,-1
 68 97 l 1,14,-1
 201 97 l 1,15,-1
 201 -19 l 2,16,17
 201 -103 201 -103 162 -141 c 128,-1,18
 123 -179 123 -179 47 -185 c 1,19,-1
 34 -134 l 1,10,11
EndSplineSet
EndChar

StartChar: perthousand
Encoding: 8240 8240 184
Width: 1228
VWidth: 960
Flags: W
LayerCount: 2
Fore
SplineSet
378 490 m 0,0,1
 378 453 378 453 366 420.5 c 128,-1,2
 354 388 354 388 332 363.5 c 128,-1,3
 310 339 310 339 279.5 324.5 c 128,-1,4
 249 310 249 310 212 310 c 256,5,6
 175 310 175 310 145 324 c 128,-1,7
 115 338 115 338 93.5 362.5 c 128,-1,8
 72 387 72 387 60 419.5 c 128,-1,9
 48 452 48 452 48 488 c 0,10,11
 48 525 48 525 60 557.5 c 128,-1,12
 72 590 72 590 94 614.5 c 128,-1,13
 116 639 116 639 146.5 653.5 c 128,-1,14
 177 668 177 668 214 668 c 256,15,16
 251 668 251 668 281 654 c 128,-1,17
 311 640 311 640 332.5 615.5 c 128,-1,18
 354 591 354 591 366 558.5 c 128,-1,19
 378 526 378 526 378 490 c 0,0,1
631 660 m 1,20,-1
 730 660 l 1,21,-1
 218 -40 l 1,22,-1
 119 -40 l 1,23,-1
 631 660 l 1,20,-1
1180 132 m 0,24,25
 1180 95 1180 95 1168 62.5 c 128,-1,26
 1156 30 1156 30 1134 5.5 c 128,-1,27
 1112 -19 1112 -19 1081.5 -33.5 c 128,-1,28
 1051 -48 1051 -48 1014 -48 c 256,29,30
 977 -48 977 -48 946.5 -34 c 128,-1,31
 916 -20 916 -20 894.5 4.5 c 128,-1,32
 873 29 873 29 861.5 61.5 c 128,-1,33
 850 94 850 94 850 130 c 0,34,35
 850 167 850 167 862 199.5 c 128,-1,36
 874 232 874 232 895.5 256.5 c 128,-1,37
 917 281 917 281 947.5 295.5 c 128,-1,38
 978 310 978 310 1016 310 c 0,39,40
 1053 310 1053 310 1083 296 c 128,-1,41
 1113 282 1113 282 1134.5 257.5 c 128,-1,42
 1156 233 1156 233 1168 200.5 c 128,-1,43
 1180 168 1180 168 1180 132 c 0,24,25
801 132 m 0,44,45
 801 95 801 95 789 62.5 c 128,-1,46
 777 30 777 30 755 5.5 c 128,-1,47
 733 -19 733 -19 702.5 -33.5 c 128,-1,48
 672 -48 672 -48 635 -48 c 256,49,50
 598 -48 598 -48 568 -34 c 128,-1,51
 538 -20 538 -20 516.5 4.5 c 128,-1,52
 495 29 495 29 483 61.5 c 128,-1,53
 471 94 471 94 471 130 c 0,54,55
 471 167 471 167 483 199.5 c 128,-1,56
 495 232 495 232 517 256.5 c 128,-1,57
 539 281 539 281 569.5 295.5 c 128,-1,58
 600 310 600 310 637 310 c 256,59,60
 674 310 674 310 704 296 c 128,-1,61
 734 282 734 282 755.5 257.5 c 128,-1,62
 777 233 777 233 789 200.5 c 128,-1,63
 801 168 801 168 801 132 c 0,44,45
289 488 m 0,64,65
 289 532 289 532 267.5 561.5 c 128,-1,66
 246 591 246 591 212 591 c 0,67,68
 177 591 177 591 157 561.5 c 128,-1,69
 137 532 137 532 137 490 c 0,70,71
 137 446 137 446 158.5 416.5 c 128,-1,72
 180 387 180 387 214 387 c 0,73,74
 249 387 249 387 269 416.5 c 128,-1,75
 289 446 289 446 289 488 c 0,64,65
1091 130 m 0,76,77
 1091 174 1091 174 1069.5 203.5 c 128,-1,78
 1048 233 1048 233 1014 233 c 0,79,80
 979 233 979 233 959 203.5 c 128,-1,81
 939 174 939 174 939 132 c 0,82,83
 939 88 939 88 960.5 58.5 c 128,-1,84
 982 29 982 29 1016 29 c 0,85,86
 1051 29 1051 29 1071 58.5 c 128,-1,87
 1091 88 1091 88 1091 130 c 0,76,77
712 130 m 0,88,89
 712 174 712 174 690.5 203.5 c 128,-1,90
 669 233 669 233 635 233 c 0,91,92
 600 233 600 233 580 203.5 c 128,-1,93
 560 174 560 174 560 132 c 0,94,95
 560 88 560 88 581.5 58.5 c 128,-1,96
 603 29 603 29 637 29 c 0,97,98
 672 29 672 29 692 58.5 c 128,-1,99
 712 88 712 88 712 130 c 0,88,89
EndSplineSet
EndChar

StartChar: apple
Encoding: 63743 63743 196
Width: 967
VWidth: 960
Flags: W
LayerCount: 2
Fore
SplineSet
868 -40 m 1,0,-1
 101 -40 l 1,1,-1
 101 710 l 1,2,-1
 868 710 l 1,3,-1
 868 -40 l 1,0,-1
859 -144 m 1,4,-1
 853 -144 l 1,5,-1
 850 -124 l 1,6,-1
 840 -145 l 1,7,-1
 838 -145 l 1,8,-1
 828 -124 l 1,9,-1
 825 -144 l 1,10,-1
 819 -144 l 1,11,-1
 825 -110 l 1,12,-1
 826 -110 l 1,13,-1
 839 -136 l 1,14,-1
 852 -110 l 1,15,-1
 853 -110 l 1,16,-1
 859 -144 l 1,4,-1
806 -127 m 0,17,18
 806 -135 806 -135 801.5 -140 c 128,-1,19
 797 -145 797 -145 789 -145 c 256,20,21
 781 -145 781 -145 776.5 -140 c 128,-1,22
 772 -135 772 -135 772 -128 c 0,23,24
 772 -120 772 -120 777 -115 c 128,-1,25
 782 -110 782 -110 790 -110 c 0,26,27
 797 -110 797 -110 801.5 -115 c 128,-1,28
 806 -120 806 -120 806 -127 c 0,17,18
758 -136 m 1,29,30
 757 -142 l 2,31,32
 754 -145 754 -145 747 -145 c 0,33,34
 729 -145 729 -145 729 -128 c 0,35,36
 729 -120 729 -120 734 -115 c 128,-1,37
 739 -110 739 -110 747 -110 c 0,38,39
 753 -110 753 -110 758 -113 c 1,40,-1
 756 -118 l 1,41,42
 753 -115 753 -115 747 -115 c 0,43,44
 742 -115 742 -115 738.5 -118.5 c 128,-1,45
 735 -122 735 -122 735 -127 c 0,46,47
 735 -140 735 -140 748 -140 c 0,48,49
 752 -140 752 -140 758 -136 c 1,29,30
702 -111 m 1,50,-1
 689 -130 l 1,51,-1
 689 -144 l 1,52,-1
 683 -144 l 1,53,-1
 683 -130 l 1,54,-1
 669 -111 l 1,55,-1
 675 -110 l 1,56,-1
 686 -125 l 1,57,-1
 695 -111 l 1,58,-1
 702 -111 l 1,50,-1
656 -144 m 1,59,-1
 650 -144 l 1,60,-1
 650 -129 l 1,61,-1
 634 -129 l 1,62,-1
 634 -144 l 1,63,-1
 628 -144 l 1,64,-1
 628 -111 l 1,65,-1
 634 -111 l 1,66,-1
 634 -124 l 1,67,-1
 650 -124 l 1,68,-1
 650 -111 l 1,69,-1
 656 -111 l 1,70,-1
 656 -144 l 1,59,-1
612 -122 m 0,71,72
 612 -134 612 -134 595 -134 c 1,73,-1
 595 -144 l 1,74,-1
 589 -144 l 1,75,-1
 589 -111 l 1,76,77
 603 -109 603 -109 607.5 -113 c 128,-1,78
 612 -117 612 -117 612 -122 c 0,71,72
576 -144 m 1,79,-1
 570 -144 l 1,80,-1
 566 -136 l 1,81,-1
 552 -136 l 1,82,-1
 549 -144 l 1,83,-1
 543 -144 l 1,84,-1
 558 -110 l 1,85,-1
 560 -110 l 1,86,-1
 576 -144 l 1,79,-1
534 -144 m 1,87,-1
 527 -144 l 1,88,-1
 519 -133 l 1,89,-1
 514 -133 l 1,90,-1
 514 -144 l 1,91,-1
 508 -144 l 1,92,-1
 508 -111 l 1,93,94
 522 -109 522 -109 526.5 -112.5 c 128,-1,95
 531 -116 531 -116 531 -121 c 0,96,97
 531 -128 531 -128 524 -131 c 1,98,-1
 534 -144 l 1,87,-1
491 -141 m 1,99,100
 485 -145 485 -145 478 -145 c 0,101,102
 470 -145 470 -145 465 -140.5 c 128,-1,103
 460 -136 460 -136 460 -128 c 256,104,105
 460 -120 460 -120 465.5 -115 c 128,-1,106
 471 -110 471 -110 479 -110 c 0,107,108
 485 -110 485 -110 491 -114 c 1,109,-1
 489 -119 l 1,110,111
 485 -115 485 -115 478 -115 c 0,112,113
 466 -115 466 -115 466 -128 c 0,114,115
 466 -140 466 -140 479 -140 c 0,116,117
 481 -140 481 -140 485 -138 c 1,118,-1
 485 -131 l 1,119,-1
 476 -131 l 1,120,-1
 476 -126 l 1,121,-1
 491 -126 l 1,122,-1
 491 -141 l 1,99,100
447 -127 m 0,123,124
 447 -135 447 -135 442.5 -140 c 128,-1,125
 438 -145 438 -145 430 -145 c 256,126,127
 422 -145 422 -145 417.5 -140 c 128,-1,128
 413 -135 413 -135 413 -128 c 0,129,130
 413 -120 413 -120 418 -115 c 128,-1,131
 423 -110 423 -110 431 -110 c 0,132,133
 438 -110 438 -110 442.5 -115 c 128,-1,134
 447 -120 447 -120 447 -127 c 0,123,124
400 -122 m 0,135,136
 400 -134 400 -134 383 -134 c 1,137,-1
 383 -144 l 1,138,-1
 377 -144 l 1,139,-1
 377 -111 l 1,140,141
 391 -109 391 -109 395.5 -113 c 128,-1,142
 400 -117 400 -117 400 -122 c 0,135,136
364 -111 m 1,143,-1
 351 -130 l 1,144,-1
 351 -144 l 1,145,-1
 345 -144 l 1,146,-1
 345 -130 l 1,147,-1
 331 -111 l 1,148,-1
 337 -110 l 1,149,-1
 348 -125 l 1,150,-1
 357 -111 l 1,151,-1
 364 -111 l 1,143,-1
323 -111 m 1,152,-1
 323 -116 l 1,153,-1
 311 -116 l 1,154,-1
 311 -144 l 1,155,-1
 305 -144 l 1,156,-1
 305 -116 l 1,157,-1
 293 -116 l 1,158,-1
 293 -111 l 1,159,-1
 323 -111 l 1,152,-1
267 -111 m 1,160,-1
 255 -145 l 1,161,-1
 254 -145 l 1,162,-1
 243 -122 l 1,163,-1
 233 -145 l 1,164,-1
 232 -145 l 1,165,-1
 220 -111 l 1,166,-1
 226 -110 l 1,167,-1
 233 -133 l 1,168,-1
 243 -110 l 1,169,-1
 244 -110 l 1,170,-1
 254 -133 l 1,171,-1
 261 -111 l 1,172,-1
 267 -111 l 1,160,-1
211 -111 m 1,173,-1
 199 -145 l 1,174,-1
 198 -145 l 1,175,-1
 187 -122 l 1,176,-1
 177 -145 l 1,177,-1
 176 -145 l 1,178,-1
 164 -111 l 1,179,-1
 170 -110 l 1,180,-1
 177 -133 l 1,181,-1
 187 -110 l 1,182,-1
 188 -110 l 1,183,-1
 198 -133 l 1,184,-1
 205 -111 l 1,185,-1
 211 -111 l 1,173,-1
155 -111 m 1,186,-1
 143 -145 l 1,187,-1
 142 -145 l 1,188,-1
 131 -122 l 1,189,-1
 121 -145 l 1,190,-1
 120 -145 l 1,191,-1
 108 -111 l 1,192,-1
 114 -110 l 1,193,-1
 121 -133 l 1,194,-1
 131 -110 l 1,195,-1
 132 -110 l 1,196,-1
 142 -133 l 1,197,-1
 149 -111 l 1,198,-1
 155 -111 l 1,186,-1
716 -141 m 256,199,200
 716 -145 716 -145 712 -145 c 256,201,202
 708 -145 708 -145 708 -141 c 256,203,204
 708 -137 708 -137 712 -137 c 256,205,206
 716 -137 716 -137 716 -141 c 256,199,200
284 -141 m 256,207,208
 284 -145 284 -145 280 -145 c 256,209,210
 276 -145 276 -145 276 -141 c 256,211,212
 276 -137 276 -137 280 -137 c 256,213,214
 284 -137 284 -137 284 -141 c 256,207,208
559 646 m 1,215,-1
 559 650 l 0,216,217
 559 655 559 655 558 658 c 1,218,219
 556 657 556 657 541 657 c 256,220,221
 526 657 526 657 523 658 c 1,222,223
 523 655 523 655 522.5 650.5 c 128,-1,224
 522 646 522 646 522 646 c 1,225,-1
 524 646 l 1,226,-1
 526.5 650.5 l 0,227,228
 529 655 529 655 534 655 c 0,229,230
 537 655 537 655 537 652 c 2,231,-1
 537 629 l 2,232,233
 537 624 537 624 534 624 c 0,234,235
 532 624 532 624 532 624 c 1,236,-1
 532 622 l 1,237,-1
 549 622 l 1,238,-1
 549 624 l 1,239,-1
 546 624 l 0,240,241
 544 624 544 624 544 629 c 2,242,-1
 544 652 l 2,243,244
 544 655 544 655 547 655 c 0,245,246
 552 655 552 655 554.5 650.5 c 128,-1,247
 557 646 557 646 557 646 c 1,248,-1
 559 646 l 1,215,-1
504 622 m 1,249,-1
 504 624 l 1,250,-1
 501 624 l 256,251,252
 498 624 498 624 498 629 c 2,253,-1
 498 650 l 2,254,255
 498 655 498 655 501 655 c 256,256,257
 504 655 504 655 504 655 c 1,258,-1
 504 657 l 1,259,-1
 486 657 l 1,260,-1
 486 656 l 1,261,-1
 486 655 l 1,262,-1
 488 655 l 0,263,264
 491 655 491 655 491 650 c 2,265,-1
 491 641 l 1,266,-1
 474 641 l 1,267,-1
 474 650 l 2,268,269
 474 655 474 655 476 655 c 0,270,271
 479 655 479 655 479 655 c 1,272,-1
 479 656 l 1,273,-1
 479 657 l 1,274,-1
 462 657 l 1,275,-1
 462 655 l 1,276,-1
 464 655 l 0,277,278
 467 655 467 655 467 650 c 2,279,-1
 467 629 l 2,280,281
 467 625 467 625 464.5 624.5 c 128,-1,282
 462 624 462 624 462 624 c 1,283,-1
 462 622 l 1,284,-1
 479 622 l 1,285,-1
 479 624 l 1,286,-1
 476.5 624.5 l 0,287,288
 474 625 474 625 474 629 c 2,289,-1
 474 639 l 1,290,-1
 491 639 l 1,291,-1
 491 629 l 2,292,293
 491 624 491 624 488 624 c 0,294,295
 486 624 486 624 486 624 c 1,296,-1
 486 622 l 1,297,-1
 504 622 l 1,249,-1
439 624 m 1,298,-1
 436 624 l 0,299,300
 434 624 434 624 434 629 c 2,301,-1
 434 650 l 2,302,303
 434 655 434 655 436 655 c 0,304,305
 439 655 439 655 439 655 c 1,306,-1
 439 657 l 1,307,-1
 410 657 l 1,308,-1
 408 647 l 1,309,-1
 410 646 l 1,310,-1
 412 650 l 0,311,312
 414 654 414 654 419 654 c 2,313,-1
 423 654 l 2,314,315
 427 654 427 654 427 651 c 2,316,-1
 427 641 l 1,317,-1
 423 641 l 2,318,319
 418 641 418 641 417.5 643.5 c 128,-1,320
 417 646 417 646 417 646 c 1,321,-1
 415 646 l 1,322,-1
 415 633 l 1,323,-1
 417 633 l 1,324,-1
 417.5 636 l 0,325,326
 418 639 418 639 423 639 c 2,327,-1
 427 639 l 1,328,-1
 427 628 l 2,329,330
 427 625 427 625 423 625 c 2,331,-1
 419 625 l 2,332,333
 414 625 414 625 411.5 629.5 c 128,-1,334
 409 634 409 634 409 634 c 1,335,-1
 407 633 l 1,336,-1
 409 622 l 1,337,-1
 439 622 l 1,338,-1
 439 624 l 1,298,-1
827 578 m 1,339,-1
 827 584 l 1,340,-1
 142 584 l 1,341,-1
 142 578 l 1,342,-1
 827 578 l 1,339,-1
696 500 m 0,343,344
 696 515 696 515 684.5 526.5 c 128,-1,345
 673 538 673 538 659 538 c 0,346,347
 652 538 652 538 644 533 c 128,-1,348
 636 528 636 528 636 516 c 0,349,350
 636 500 636 500 647.5 489 c 128,-1,351
 659 478 659 478 673 478 c 0,352,353
 680 478 680 478 688 483 c 128,-1,354
 696 488 696 488 696 500 c 0,343,344
589 497 m 0,355,356
 589 509 589 509 575 514 c 1,357,358
 580 517 580 517 580 523 c 0,359,360
 580 528 580 528 575 533 c 128,-1,361
 570 538 570 538 559 538 c 0,362,363
 546 538 546 538 546 527 c 0,364,365
 546 521 546 521 551 521 c 0,366,367
 555 521 555 521 555 524 c 256,368,369
 555 527 555 527 553.5 527.5 c 128,-1,370
 552 528 552 528 552 530 c 0,371,372
 552 535 552 535 559 535 c 0,373,374
 569 535 569 535 569 523 c 0,375,376
 569 519 569 519 567 517 c 0,377,378
 551 519 551 519 551 511 c 0,379,380
 551 505 551 505 559 505 c 0,381,382
 565 505 565 505 570 510 c 1,383,384
 576 505 576 505 576 495 c 0,385,386
 576 481 576 481 564 481 c 256,387,388
 552 481 552 481 552 490 c 0,389,390
 552 493 552 493 555 493 c 0,391,392
 556 493 556 493 557 492 c 128,-1,393
 558 491 558 491 560 491 c 0,394,395
 564 491 564 491 564 496 c 256,396,397
 564 501 564 501 557 501 c 0,398,399
 548 501 548 501 548 491 c 0,400,401
 548 478 548 478 564 478 c 0,402,403
 577 478 577 478 583 483.5 c 128,-1,404
 589 489 589 489 589 497 c 0,355,356
295 497 m 0,405,406
 295 509 295 509 281 514 c 1,407,408
 286 517 286 517 286 523 c 0,409,410
 286 528 286 528 281 533 c 128,-1,411
 276 538 276 538 265 538 c 0,412,413
 252 538 252 538 252 527 c 0,414,415
 252 521 252 521 257 521 c 0,416,417
 261 521 261 521 261 524 c 256,418,419
 261 527 261 527 259.5 527.5 c 128,-1,420
 258 528 258 528 258 530 c 0,421,422
 258 535 258 535 265 535 c 0,423,424
 275 535 275 535 275 523 c 0,425,426
 275 519 275 519 273 517 c 0,427,428
 257 519 257 519 257 511 c 0,429,430
 257 505 257 505 265 505 c 0,431,432
 271 505 271 505 276 510 c 1,433,434
 282 505 282 505 282 495 c 0,435,436
 282 481 282 481 270 481 c 256,437,438
 258 481 258 481 258 490 c 0,439,440
 258 493 258 493 261 493 c 0,441,442
 262 493 262 493 263 492 c 128,-1,443
 264 491 264 491 266 491 c 0,444,445
 270 491 270 491 270 496 c 256,446,447
 270 501 270 501 263 501 c 0,448,449
 254 501 254 501 254 491 c 0,450,451
 254 478 254 478 270 478 c 0,452,453
 283 478 283 478 289 483.5 c 128,-1,454
 295 489 295 489 295 497 c 0,405,406
820 482 m 1,455,-1
 816 482.5 l 0,456,457
 812 483 812 483 810 490 c 2,458,-1
 803 525 l 2,459,460
 801 532 801 532 805.5 532.5 c 128,-1,461
 810 533 810 533 810 533 c 1,462,-1
 809 536 l 1,463,-1
 781 536 l 1,464,-1
 782 533 l 1,465,-1
 785.5 532.5 l 0,466,467
 789 532 789 532 791 525 c 2,468,-1
 794 510 l 1,469,-1
 770 510 l 1,470,-1
 767 525 l 2,471,472
 765 532 765 532 769.5 532.5 c 128,-1,473
 774 533 774 533 774 533 c 1,474,-1
 773 536 l 1,475,-1
 744 536 l 1,476,-1
 745 533 l 1,477,-1
 749 532.5 l 0,478,479
 753 532 753 532 755 525 c 2,480,-1
 762 490 l 2,481,482
 764 483 764 483 759.5 482.5 c 128,-1,483
 755 482 755 482 755 482 c 1,484,-1
 756 479 l 1,485,-1
 785 479 l 1,486,-1
 784 482 l 1,487,-1
 780 482.5 l 0,488,489
 776 483 776 483 774 490 c 2,490,-1
 771 506 l 1,491,-1
 795 506 l 1,492,-1
 798 490 l 2,493,494
 800 483 800 483 795.5 482.5 c 128,-1,495
 791 482 791 482 791 482 c 1,496,-1
 792 479 l 1,497,-1
 821 479 l 1,498,-1
 820 482 l 1,455,-1
498 479 m 1,499,-1
 497 482 l 1,500,-1
 493 482.5 l 0,501,502
 489 483 489 483 487 490 c 2,503,-1
 480 525 l 2,504,505
 478 532 478 532 482.5 532.5 c 128,-1,506
 487 533 487 533 487 533 c 1,507,-1
 486 536 l 1,508,-1
 441 536 l 1,509,510
 442 533 442 533 441.5 526 c 128,-1,511
 441 519 441 519 441 519 c 1,512,-1
 445 519 l 1,513,-1
 446 525.5 l 0,514,515
 447 532 447 532 458 532 c 2,516,-1
 462 532 l 2,517,518
 467 532 467 532 468 526 c 2,519,-1
 471 510 l 1,520,-1
 467 510 l 2,521,522
 460 510 460 510 457.5 514.5 c 128,-1,523
 455 519 455 519 455 519 c 1,524,-1
 452 519 l 1,525,-1
 457 496 l 1,526,-1
 460 496 l 1,527,-1
 460.5 501.5 l 0,528,529
 461 507 461 507 468 507 c 2,530,-1
 472 507 l 1,531,-1
 475 490 l 2,532,533
 477 483 477 483 472.5 482.5 c 128,-1,534
 468 482 468 482 468 482 c 1,535,-1
 469 479 l 1,536,-1
 498 479 l 1,499,-1
202 482 m 1,537,-1
 198 482.5 l 0,538,539
 194 483 194 483 192 490 c 2,540,-1
 185 525 l 2,541,542
 183 532 183 532 187.5 532.5 c 128,-1,543
 192 533 192 533 192 533 c 1,544,-1
 191 536 l 1,545,-1
 164 536 l 2,546,547
 144 536 144 536 144 521 c 0,548,549
 144 515 144 515 149.5 511 c 128,-1,550
 155 507 155 507 163 506 c 1,551,-1
 154 490 l 2,552,553
 150 483 150 483 145 482.5 c 128,-1,554
 140 482 140 482 140 482 c 1,555,-1
 141 479 l 1,556,-1
 160 479 l 1,557,-1
 172 502 l 2,558,559
 173 505 173 505 177 505 c 2,560,-1
 180 490 l 2,561,562
 182 483 182 483 177.5 482.5 c 128,-1,563
 173 482 173 482 173 482 c 1,564,-1
 174 479 l 1,565,-1
 203 479 l 1,566,-1
 202 482 l 1,537,-1
400 481 m 0,567,568
 400 483 400 483 397 486 c 128,-1,569
 394 489 394 489 387 490 c 0,570,571
 383 493 383 493 382.5 500.5 c 128,-1,572
 382 508 382 508 380.5 516.5 c 128,-1,573
 379 525 379 525 374.5 531.5 c 128,-1,574
 370 538 370 538 358 538 c 0,575,576
 353 538 353 538 349 534.5 c 128,-1,577
 345 531 345 531 345 528 c 0,578,579
 345 523 345 523 350 523 c 0,580,581
 354 523 354 523 354 529 c 256,582,583
 354 535 354 535 359 535 c 256,584,585
 364 535 364 535 365.5 530 c 128,-1,586
 367 525 367 525 368 518 c 128,-1,587
 369 511 369 511 371.5 503.5 c 128,-1,588
 374 496 374 496 380 490 c 1,589,590
 369 490 369 490 365.5 483.5 c 128,-1,591
 362 477 362 477 357 477 c 256,592,593
 352 477 352 477 352 481 c 0,594,595
 352 483 352 483 353 483.5 c 128,-1,596
 354 484 354 484 354 486 c 0,597,598
 354 491 354 491 349 491 c 256,599,600
 344 491 344 491 344 484 c 0,601,602
 344 479 344 479 349 475.5 c 128,-1,603
 354 472 354 472 359 472 c 0,604,605
 372 472 372 472 374 478.5 c 128,-1,606
 376 485 376 485 384 485 c 1,607,608
 387 478 387 478 396 478 c 0,609,610
 400 478 400 478 400 481 c 0,567,568
827 435 m 1,611,-1
 827 441 l 1,612,-1
 142 441 l 1,613,-1
 142 435 l 1,614,-1
 827 435 l 1,611,-1
827 338 m 1,615,-1
 827 400 l 1,616,-1
 680 400 l 1,617,-1
 680 338 l 1,618,-1
 716 338 l 1,619,-1
 716 366 l 1,620,-1
 727 366 l 1,621,-1
 727 301 l 1,622,-1
 713 301 l 1,623,-1
 713 268 l 1,624,-1
 794 268 l 1,625,-1
 794 301 l 1,626,-1
 780 301 l 1,627,-1
 780 366 l 1,628,-1
 791 366 l 1,629,-1
 791 338 l 1,630,-1
 827 338 l 1,615,-1
648 366 m 1,631,-1
 648 400 l 1,632,-1
 567 400 l 1,633,-1
 567 366 l 1,634,-1
 578 366 l 1,635,-1
 563 343 l 1,636,-1
 548 366 l 1,637,-1
 558 366 l 1,638,-1
 558 400 l 1,639,-1
 496 400 l 1,640,-1
 496 366 l 1,641,-1
 508 366 l 1,642,-1
 545 320 l 1,643,-1
 545 301 l 1,644,-1
 531 301 l 1,645,-1
 531 268 l 1,646,-1
 612 268 l 1,647,-1
 612 301 l 1,648,-1
 597 301 l 1,649,-1
 597 321 l 1,650,-1
 634 366 l 1,651,-1
 648 366 l 1,631,-1
458 268 m 1,652,-1
 458 301 l 1,653,-1
 444 301 l 1,654,-1
 444 366 l 1,655,-1
 458 366 l 1,656,-1
 458 400 l 1,657,-1
 362 400 l 2,658,659
 340 400 340 400 327.5 388.5 c 128,-1,660
 315 377 315 377 315 360 c 256,661,662
 315 343 315 343 327.5 331.5 c 128,-1,663
 340 320 340 320 362 320 c 2,664,-1
 392 320 l 1,665,-1
 392 301 l 1,666,-1
 377 301 l 1,667,-1
 377 268 l 1,668,-1
 458 268 l 1,652,-1
283 268 m 1,669,-1
 283 301 l 1,670,-1
 269 301 l 1,671,-1
 269 366 l 1,672,-1
 283 366 l 1,673,-1
 283 400 l 1,674,-1
 142 400 l 1,675,-1
 142 338 l 1,676,-1
 183 338 l 1,677,-1
 183 366 l 1,678,-1
 216 366 l 1,679,-1
 216 346 l 1,680,-1
 192 346 l 1,681,-1
 192 322 l 1,682,-1
 216 322 l 1,683,-1
 216 301 l 1,684,-1
 183 301 l 1,685,-1
 183 329 l 1,686,-1
 142 329 l 1,687,-1
 142 268 l 1,688,-1
 283 268 l 1,669,-1
827 231 m 1,689,-1
 827 237 l 1,690,-1
 142 237 l 1,691,-1
 142 231 l 1,692,-1
 827 231 l 1,689,-1
728 152 m 0,693,694
 728 167 728 167 716.5 178.5 c 128,-1,695
 705 190 705 190 691 190 c 0,696,697
 684 190 684 190 676 185 c 128,-1,698
 668 180 668 180 668 168 c 0,699,700
 668 152 668 152 679.5 141 c 128,-1,701
 691 130 691 130 705 130 c 0,702,703
 712 130 712 130 720 135 c 128,-1,704
 728 140 728 140 728 152 c 0,693,694
203 177 m 1,705,706
 200 182 200 182 196.5 186 c 128,-1,707
 193 190 193 190 185 190 c 0,708,709
 170 190 170 190 171 167 c 1,710,711
 168 177 168 177 163 183.5 c 128,-1,712
 158 190 158 190 150 190 c 0,713,714
 145 190 145 190 141.5 187 c 128,-1,715
 138 184 138 184 138 178 c 1,716,-1
 141 177 l 1,717,718
 141 183 141 183 149 183 c 0,719,720
 159 183 159 183 164.5 172.5 c 128,-1,721
 170 162 170 162 173 150 c 0,722,723
 176 137 176 137 171.5 136 c 128,-1,724
 167 135 167 135 167 135 c 1,725,-1
 168 131 l 1,726,-1
 196 131 l 1,727,-1
 195 135 l 1,728,-1
 191 135.5 l 0,729,730
 187 136 187 136 185 144 c 0,731,732
 180 161 180 161 180 169 c 0,733,734
 180 182 180 182 189 182 c 0,735,736
 194 182 194 182 196.5 179.5 c 128,-1,737
 199 177 199 177 201 175 c 1,738,-1
 203 177 l 1,705,706
823 131 m 1,739,-1
 822 134 l 1,740,-1
 818 134.5 l 0,741,742
 814 135 814 135 812 142 c 2,743,-1
 805 177 l 2,744,745
 803 184 803 184 807.5 184.5 c 128,-1,746
 812 185 812 185 812 185 c 1,747,-1
 811 188 l 1,748,-1
 766 188 l 1,749,750
 767 185 767 185 766.5 178 c 128,-1,751
 766 171 766 171 766 171 c 1,752,-1
 770 171 l 1,753,-1
 771 177.5 l 0,754,755
 772 184 772 184 783 184 c 2,756,-1
 787 184 l 2,757,758
 792 184 792 184 793 178 c 2,759,-1
 796 162 l 1,760,-1
 792 162 l 2,761,762
 785 162 785 162 782.5 166.5 c 128,-1,763
 780 171 780 171 780 171 c 1,764,-1
 777 171 l 1,765,-1
 782 148 l 1,766,-1
 785 148 l 1,767,-1
 785.5 153.5 l 0,768,769
 786 159 786 159 793 159 c 2,770,-1
 797 159 l 1,771,-1
 800 142 l 2,772,773
 802 135 802 135 797.5 134.5 c 128,-1,774
 793 134 793 134 793 134 c 1,775,-1
 794 131 l 1,776,-1
 823 131 l 1,739,-1
621 185 m 1,777,-1
 620 188 l 1,778,-1
 591 188 l 1,779,-1
 592 185 l 1,780,-1
 596 184.5 l 0,781,782
 600 184 600 184 602 176 c 2,783,-1
 607 155 l 2,784,785
 609 145 609 145 608 140 c 128,-1,786
 607 135 607 135 596 135 c 0,787,788
 588 135 588 135 583 141.5 c 128,-1,789
 578 148 578 148 576 157 c 2,790,-1
 572 176 l 2,791,792
 570 184 570 184 574.5 184.5 c 128,-1,793
 579 185 579 185 579 185 c 1,794,-1
 579 188 l 1,795,-1
 555 188 l 1,796,-1
 556 185 l 1,797,-1
 560.5 184.5 l 0,798,799
 565 184 565 184 567 176 c 2,800,-1
 571 157 l 2,801,802
 573 149 573 149 579 139.5 c 128,-1,803
 585 130 585 130 599 130 c 0,804,805
 616 130 616 130 618 138 c 128,-1,806
 620 146 620 146 618 154 c 2,807,-1
 613 176 l 2,808,809
 611 184 611 184 616 184.5 c 128,-1,810
 621 185 621 185 621 185 c 1,777,-1
522 134 m 1,811,-1
 518.5 135 l 0,812,813
 515 136 515 136 513 144 c 2,814,-1
 506 176 l 2,815,816
 504 184 504 184 509 184.5 c 128,-1,817
 514 185 514 185 514 185 c 1,818,-1
 513 188 l 1,819,-1
 499 188 l 1,820,-1
 470 146 l 1,821,-1
 465 176 l 2,822,823
 463 183 463 183 467.5 184 c 128,-1,824
 472 185 472 185 472 185 c 1,825,-1
 471 188 l 1,826,-1
 450 188 l 1,827,-1
 451 185 l 1,828,-1
 454.5 184 l 0,829,830
 458 183 458 183 460 176 c 2,831,-1
 468 131 l 1,832,-1
 471 130 l 1,833,-1
 501 174 l 1,834,-1
 507 144 l 2,835,836
 509 136 509 136 505 135 c 128,-1,837
 501 134 501 134 501 134 c 1,838,-1
 502 131 l 1,839,-1
 523 131 l 1,840,-1
 522 134 l 1,811,-1
414 131 m 1,841,-1
 413 135 l 1,842,-1
 409 135.5 l 0,843,844
 405 136 405 136 403 144 c 2,845,-1
 395 175 l 2,846,847
 392 184 392 184 403 185 c 1,848,-1
 402 188 l 1,849,-1
 372 188 l 2,850,851
 363 188 363 188 355 182.5 c 128,-1,852
 347 177 347 177 347 166 c 0,853,854
 347 150 347 150 358 140.5 c 128,-1,855
 369 131 369 131 382 131 c 2,856,-1
 414 131 l 1,841,-1
306 134 m 1,857,-1
 302 134.5 l 0,858,859
 298 135 298 135 296 142 c 2,860,-1
 289 177 l 2,861,862
 287 184 287 184 291.5 184.5 c 128,-1,863
 296 185 296 185 296 185 c 1,864,-1
 295 188 l 1,865,-1
 268 188 l 2,866,867
 248 188 248 188 248 173 c 0,868,869
 248 167 248 167 253.5 163 c 128,-1,870
 259 159 259 159 267 158 c 1,871,-1
 258 142 l 2,872,873
 254 135 254 135 249 134.5 c 128,-1,874
 244 134 244 134 244 134 c 1,875,-1
 245 131 l 1,876,-1
 264 131 l 1,877,-1
 276 154 l 2,878,879
 277 157 277 157 281 157 c 2,880,-1
 284 142 l 2,881,882
 286 135 286 135 281.5 134.5 c 128,-1,883
 277 134 277 134 277 134 c 1,884,-1
 278 131 l 1,885,-1
 307 131 l 1,886,-1
 306 134 l 1,857,-1
827 87 m 1,887,-1
 827 93 l 1,888,-1
 142 93 l 1,889,-1
 142 87 l 1,890,-1
 827 87 l 1,887,-1
694 6 m 1,891,-1
 694 8 l 1,892,-1
 691 9 l 0,893,894
 688 10 688 10 688 13 c 2,895,-1
 688 33 l 2,896,897
 688 35 688 35 691 37 c 128,-1,898
 694 39 694 39 694 39 c 1,899,-1
 694 41 l 1,900,-1
 684 41 l 1,901,-1
 660 15 l 1,902,-1
 660 33 l 2,903,904
 660 37 660 37 663 38 c 128,-1,905
 666 39 666 39 666 39 c 1,906,-1
 666 41 l 1,907,-1
 651 41 l 1,908,-1
 651 39 l 1,909,-1
 654 38 l 0,910,911
 657 37 657 37 657 33 c 2,912,-1
 657 5 l 1,913,-1
 660 5 l 1,914,-1
 685 33 l 1,915,-1
 685 13 l 2,916,917
 685 10 685 10 682.5 9 c 128,-1,918
 680 8 680 8 680 8 c 1,919,-1
 680 6 l 1,920,-1
 694 6 l 1,891,-1
633 8 m 1,921,-1
 630 8 l 0,922,923
 628 8 628 8 628 13 c 2,924,-1
 628 34 l 2,925,926
 628 39 628 39 630 39 c 0,927,928
 633 39 633 39 633 39 c 1,929,-1
 633 41 l 1,930,-1
 604 41 l 1,931,-1
 602 31 l 1,932,-1
 604 30 l 1,933,-1
 606 34 l 0,934,935
 608 38 608 38 613 38 c 2,936,-1
 617 38 l 2,937,938
 621 38 621 38 621 35 c 2,939,-1
 621 25 l 1,940,-1
 617 25 l 2,941,942
 612 25 612 25 611.5 27.5 c 128,-1,943
 611 30 611 30 611 30 c 1,944,945
 609 30 l 1,946,-1
 609 17 l 1,947,-1
 611 17 l 1,948,-1
 611.5 20 l 0,949,950
 612 23 612 23 617 23 c 2,951,-1
 621 23 l 1,952,-1
 621 12 l 2,953,954
 621 9 621 9 617 9 c 2,955,-1
 613 9 l 2,956,957
 608 9 608 9 605.5 13.5 c 128,-1,958
 603 18 603 18 603 18 c 1,959,-1
 601 17 l 1,960,-1
 603 6 l 1,961,-1
 633 6 l 1,962,-1
 633 8 l 1,921,-1
583 41 m 1,963,-1
 568 41 l 1,964,-1
 568 39 l 1,965,-1
 570 38 l 0,966,967
 572 37 572 37 570 34 c 2,968,-1
 561 15 l 1,969,-1
 556 25 l 1,970,-1
 560 33 l 2,971,972
 562 36 562 36 564 37.5 c 128,-1,973
 566 39 566 39 566 39 c 1,974,-1
 566 41 l 1,975,-1
 540 41 l 1,976,-1
 541 39 l 1,977,-1
 543 38.5 l 0,978,979
 545 38 545 38 548 33 c 2,980,-1
 551 28 l 1,981,-1
 544 15 l 1,982,-1
 536 33 l 2,983,984
 534 37 534 37 536 38 c 128,-1,985
 538 39 538 39 538 39 c 1,986,-1
 538 41 l 1,987,-1
 525 41 l 1,988,-1
 525 39 l 1,989,-1
 527 38 l 0,990,991
 529 37 529 37 531 33 c 2,992,-1
 544 6 l 1,993,-1
 545 6 l 1,994,-1
 545.5 5.5 l 0,995,996
 546 5 546 5 546 6 c 2,997,-1
 554 22 l 1,998,-1
 563 6 l 1,999,-1
 564 6 l 1,1000,-1
 576 33 l 2,1001,1002
 578 38 578 38 580.5 38.5 c 128,-1,1003
 583 39 583 39 583 39 c 1,1004,-1
 583 41 l 1,963,-1
480 39 m 1,1005,-1
 480 41 l 1,1006,-1
 465 41 l 1,1007,-1
 465 39 l 1,1008,-1
 466.5 38.5 l 0,1009,1010
 468 38 468 38 466 34 c 2,1011,-1
 460 25 l 1,1012,-1
 454 34 l 2,1013,1014
 452 38 452 38 454.5 38.5 c 128,-1,1015
 457 39 457 39 457 39 c 1,1016,-1
 457 41 l 1,1017,-1
 442 41 l 1,1018,-1
 442 39 l 1,1019,-1
 445 38.5 l 0,1020,1021
 448 38 448 38 450 34 c 2,1022,-1
 458 22 l 1,1023,-1
 458 14 l 2,1024,1025
 458 9 458 9 455.5 8.5 c 128,-1,1026
 453 8 453 8 453 8 c 1,1027,-1
 453 6 l 1,1028,-1
 470 6 l 1,1029,-1
 470 8 l 1,1030,-1
 467.5 8.5 l 0,1031,1032
 465 9 465 9 465 14 c 2,1033,-1
 465 22 l 1,1034,-1
 473 34 l 2,1035,1036
 475 38 475 38 477.5 38.5 c 128,-1,1037
 480 39 480 39 480 39 c 1,1005,-1
425 24 m 256,1038,1039
 425 32 425 32 420 37 c 128,-1,1040
 415 42 415 42 405 42 c 256,1041,1042
 395 42 395 42 390 37 c 128,-1,1043
 385 32 385 32 385 24 c 256,1044,1045
 385 16 385 16 390 10.5 c 128,-1,1046
 395 5 395 5 405 5 c 256,1047,1048
 415 5 415 5 420 10.5 c 128,-1,1049
 425 16 425 16 425 24 c 256,1038,1039
364 6 m 1,1050,-1
 364 8 l 1,1051,-1
 361.5 8.5 l 0,1052,1053
 359 9 359 9 359 13 c 2,1054,-1
 359 33 l 2,1055,1056
 359 38 359 38 361.5 38.5 c 128,-1,1057
 364 39 364 39 364 39 c 1,1058,-1
 364 41 l 1,1059,-1
 346 41 l 2,1060,1061
 333 41 333 41 333 32 c 0,1062,1063
 333 27 333 27 342 23 c 1,1064,-1
 335 13 l 2,1065,1066
 332 9 332 9 329.5 8.5 c 128,-1,1067
 327 8 327 8 327 8 c 1,1068,-1
 327 6 l 1,1069,-1
 338 6 l 1,1070,-1
 345 18 l 2,1071,1072
 348 22 348 22 352 22 c 1,1073,-1
 352 13 l 2,1074,1075
 352 9 352 9 349.5 8.5 c 128,-1,1076
 347 8 347 8 347 8 c 1,1077,-1
 347 6 l 1,1078,-1
 364 6 l 1,1050,-1
309 6 m 1,1079,-1
 309 8 l 1,1080,-1
 306 9 l 0,1081,1082
 303 10 303 10 303 14 c 2,1083,-1
 303 34 l 2,1084,1085
 303 38 303 38 306 38.5 c 128,-1,1086
 309 39 309 39 309 39 c 1,1087,-1
 309 41 l 1,1088,-1
 291 41 l 1,1089,-1
 291 39 l 1,1090,-1
 294 38.5 l 0,1091,1092
 297 38 297 38 297 34 c 2,1093,-1
 297 25 l 1,1094,1095
 295 25 295 25 293 27 c 2,1096,-1
 285 35 l 2,1097,1098
 283 37 283 37 284.5 38 c 128,-1,1099
 286 39 286 39 286 39 c 1,1100,-1
 286 41 l 1,1101,-1
 272 41 l 1,1102,-1
 272 39 l 1,1103,-1
 275 38 l 0,1104,1105
 278 37 278 37 280 35 c 2,1106,-1
 290 26 l 1,1107,-1
 277 13 l 2,1108,1109
 275 11 275 11 272.5 9.5 c 128,-1,1110
 270 8 270 8 270 8 c 1,1111,-1
 270 6 l 1,1112,-1
 287 6 l 1,1113,-1
 287 8 l 1,1114,-1
 284.5 8.5 l 0,1115,1116
 282 9 282 9 285 13 c 2,1117,-1
 293 21 l 2,1118,1119
 295 23 295 23 297 23 c 1,1120,-1
 297 14 l 2,1121,1122
 297 9 297 9 294 8.5 c 128,-1,1123
 291 8 291 8 291 8 c 1,1124,-1
 291 6 l 1,1125,-1
 309 6 l 1,1079,-1
606 -123 m 0,1126,1127
 606 -115 606 -115 595 -116 c 1,1128,-1
 595 -129 l 1,1129,1130
 606 -129 606 -129 606 -123 c 0,1126,1127
525 -122 m 0,1131,1132
 525 -114 525 -114 514 -116 c 1,1133,-1
 514 -128 l 1,1134,1135
 525 -129 525 -129 525 -122 c 0,1131,1132
394 -123 m 0,1136,1137
 394 -115 394 -115 383 -116 c 1,1138,-1
 383 -129 l 1,1139,1140
 394 -129 394 -129 394 -123 c 0,1136,1137
564 -132 m 1,1141,-1
 559 -120 l 1,1142,-1
 554 -132 l 1,1143,-1
 564 -132 l 1,1141,-1
800 -128 m 0,1144,1145
 800 -115 800 -115 789 -115 c 256,1146,1147
 778 -115 778 -115 778 -127 c 0,1148,1149
 778 -140 778 -140 789 -140 c 256,1150,1151
 800 -140 800 -140 800 -128 c 0,1144,1145
441 -128 m 0,1152,1153
 441 -115 441 -115 430 -115 c 256,1154,1155
 419 -115 419 -115 419 -127 c 0,1156,1157
 419 -140 419 -140 430 -140 c 256,1158,1159
 441 -140 441 -140 441 -128 c 0,1152,1153
176 508 m 1,1160,-1
 171 508 l 2,1161,1162
 163 508 163 508 159.5 513 c 128,-1,1163
 156 518 156 518 156 523 c 0,1164,1165
 156 532 156 532 164 532 c 256,1166,1167
 172 532 172 532 173 527 c 2,1168,-1
 176 508 l 1,1160,-1
566 513 m 1,1169,1170
 563 509 563 509 559 509 c 256,1171,1172
 555 509 555 509 555 511 c 0,1173,1174
 555 514 555 514 559 514 c 0,1175,1176
 564 514 564 514 566 513 c 1,1169,1170
272 513 m 1,1177,1178
 269 509 269 509 265 509 c 256,1179,1180
 261 509 261 509 261 511 c 0,1181,1182
 261 514 261 514 265 514 c 0,1183,1184
 270 514 270 514 272 513 c 1,1177,1178
684 495 m 0,1185,1186
 684 482 684 482 673 482 c 0,1187,1188
 664 482 664 482 656 493.5 c 128,-1,1189
 648 505 648 505 648 520 c 0,1190,1191
 648 534 648 534 659 534 c 0,1192,1193
 668 534 668 534 676 522.5 c 128,-1,1194
 684 511 684 511 684 495 c 0,1185,1186
392 344 m 1,1195,-1
 381 344 l 2,1196,1197
 368 344 368 344 368 355 c 256,1198,1199
 368 366 368 366 381 366 c 2,1200,-1
 392 366 l 1,1201,-1
 392 344 l 1,1195,-1
280 160 m 1,1202,-1
 275 160 l 2,1203,1204
 267 160 267 160 263.5 165 c 128,-1,1205
 260 170 260 170 260 175 c 0,1206,1207
 260 184 260 184 268 184 c 256,1208,1209
 276 184 276 184 277 179 c 2,1210,-1
 280 160 l 1,1202,-1
716 147 m 0,1211,1212
 716 134 716 134 705 134 c 0,1213,1214
 696 134 696 134 688 145.5 c 128,-1,1215
 680 157 680 157 680 172 c 0,1216,1217
 680 186 680 186 691 186 c 0,1218,1219
 700 186 700 186 708 174.5 c 128,-1,1220
 716 163 716 163 716 147 c 0,1211,1212
393 142 m 2,1221,1222
 393 135 393 135 389 135 c 2,1223,-1
 384 135 l 2,1224,1225
 373 135 373 135 365.5 145 c 128,-1,1226
 358 155 358 155 358 167 c 0,1227,1228
 358 184 358 184 372 184 c 2,1229,-1
 378 184 l 2,1230,1231
 381 183 381 183 381.5 182.5 c 128,-1,1232
 382 182 382 182 384 177 c 2,1233,-1
 393 142 l 2,1221,1222
553 39 m 0,1234,1235
 557 39 557 39 553 30 c 1,1236,1237
 548 39 548 39 553 39 c 0,1234,1235
352 24 m 1,1238,-1
 349 24 l 2,1239,1240
 341 24 341 24 341 32 c 0,1241,1242
 341 38 341 38 348 38 c 0,1243,1244
 352 38 352 38 352 34 c 2,1245,-1
 352 24 l 1,1238,-1
417 24 m 0,1246,1247
 417 17 417 17 414.5 12 c 128,-1,1248
 412 7 412 7 405 7 c 0,1249,1250
 399 7 399 7 396 12 c 128,-1,1251
 393 17 393 17 393 24 c 0,1252,1253
 393 40 393 40 405 40 c 256,1254,1255
 417 40 417 40 417 24 c 0,1246,1247
EndSplineSet
EndChar

StartChar: dotlessi
Encoding: 305 305 201
Width: 286
VWidth: 960
Flags: W
LayerCount: 2
Fore
SplineSet
204 -40 m 1,0,-1
 83 -40 l 1,1,-1
 83 488 l 1,2,-1
 204 488 l 1,3,-1
 204 -40 l 1,0,-1
EndSplineSet
EndChar

StartChar: circumflex
Encoding: 710 710 202
Width: 500
VWidth: 960
Flags: W
LayerCount: 2
Fore
SplineSet
249 622 m 1,0,-1
 172 555 l 1,1,-1
 78 555 l 1,2,-1
 194 701 l 1,3,-1
 306 701 l 1,4,-1
 422 555 l 1,5,-1
 326 555 l 1,6,-1
 249 622 l 1,0,-1
EndSplineSet
EndChar

StartChar: tilde
Encoding: 732 732 203
Width: 500
VWidth: 960
Flags: W
LayerCount: 2
Fore
SplineSet
439 679 m 1,0,1
 422 619 422 619 397.5 587 c 128,-1,2
 373 555 373 555 327 555 c 0,3,4
 306 555 306 555 286 561 c 128,-1,5
 266 567 266 567 247.5 574.5 c 128,-1,6
 229 582 229 582 212.5 588.5 c 128,-1,7
 196 595 196 595 183 595 c 0,8,9
 161 595 161 595 150 583 c 128,-1,10
 139 571 139 571 128 545 c 1,11,-1
 61 565 l 1,12,13
 78 626 78 626 102.5 658 c 128,-1,14
 127 690 127 690 173 690 c 0,15,16
 194 690 194 690 214 683.5 c 128,-1,17
 234 677 234 677 252.5 669.5 c 128,-1,18
 271 662 271 662 287 656 c 128,-1,19
 303 650 303 650 317 650 c 0,20,21
 339 650 339 650 350 662 c 128,-1,22
 361 674 361 674 372 700 c 1,23,-1
 439 679 l 1,0,1
EndSplineSet
EndChar

StartChar: macron
Encoding: 175 175 204
AltUni2: 0002c9.ffffffff.0
Width: 500
VWidth: 960
Flags: W
LayerCount: 2
Fore
SplineSet
421 560 m 1,0,-1
 79 560 l 1,1,-1
 79 649 l 1,2,-1
 421 649 l 1,3,-1
 421 560 l 1,0,-1
EndSplineSet
EndChar

StartChar: breve
Encoding: 728 728 205
Width: 500
VWidth: 960
Flags: W
LayerCount: 2
Fore
SplineSet
421 701 m 1,0,1
 416 630 416 630 369 591.5 c 128,-1,2
 322 553 322 553 250 553 c 256,3,4
 178 553 178 553 131 591.5 c 128,-1,5
 84 630 84 630 79 701 c 1,6,-1
 162 701 l 1,7,8
 171 672 171 672 191.5 655 c 128,-1,9
 212 638 212 638 250 638 c 256,10,11
 288 638 288 638 308.5 655 c 128,-1,12
 329 672 329 672 338 701 c 1,13,-1
 421 701 l 1,0,1
EndSplineSet
EndChar

StartChar: dotaccent
Encoding: 729 729 206
Width: 500
VWidth: 960
Flags: W
LayerCount: 2
Fore
SplineSet
313 555 m 1,0,-1
 187 555 l 1,1,-1
 187 674 l 1,2,-1
 313 674 l 1,3,-1
 313 555 l 1,0,-1
EndSplineSet
EndChar

StartChar: ring
Encoding: 730 730 207
Width: 500
VWidth: 960
Flags: W
LayerCount: 2
Fore
SplineSet
364 663 m 0,0,1
 364 640 364 640 354.5 620 c 128,-1,2
 345 600 345 600 329.5 585 c 128,-1,3
 314 570 314 570 293 561.5 c 128,-1,4
 272 553 272 553 250 553 c 0,5,6
 227 553 227 553 206.5 561.5 c 128,-1,7
 186 570 186 570 170.5 585 c 128,-1,8
 155 600 155 600 145.5 620 c 128,-1,9
 136 640 136 640 136 663 c 0,10,11
 136 685 136 685 145.5 705 c 128,-1,12
 155 725 155 725 170.5 740 c 128,-1,13
 186 755 186 755 206.5 764 c 128,-1,14
 227 773 227 773 250 773 c 0,15,16
 272 773 272 773 293 764 c 128,-1,17
 314 755 314 755 329.5 740 c 128,-1,18
 345 725 345 725 354.5 705 c 128,-1,19
 364 685 364 685 364 663 c 0,0,1
312 663 m 256,20,21
 312 689 312 689 294 707 c 128,-1,22
 276 725 276 725 250 725 c 256,23,24
 224 725 224 725 206 707 c 128,-1,25
 188 689 188 689 188 663 c 256,26,27
 188 637 188 637 206 619 c 128,-1,28
 224 601 224 601 250 601 c 256,29,30
 276 601 276 601 294 619 c 128,-1,31
 312 637 312 637 312 663 c 256,20,21
EndSplineSet
EndChar

StartChar: cedilla
Encoding: 184 184 208
Width: 500
VWidth: 960
Flags: W
LayerCount: 2
Fore
SplineSet
221 -30 m 1,0,-1
 312 -30 l 1,1,-1
 237 -205 l 1,2,-1
 131 -161 l 1,3,-1
 221 -30 l 1,0,-1
EndSplineSet
EndChar

StartChar: hungarumlaut
Encoding: 733 733 209
Width: 500
VWidth: 960
Flags: W
LayerCount: 2
Fore
SplineSet
328 555 m 1,0,-1
 238 555 l 1,1,-1
 344 719 l 1,2,-1
 450 670 l 1,3,-1
 328 555 l 1,0,-1
146 555 m 1,4,-1
 56 555 l 1,5,-1
 160 719 l 1,6,-1
 266 670 l 1,7,-1
 146 555 l 1,4,-1
EndSplineSet
EndChar

StartChar: ogonek
Encoding: 731 731 210
Width: 500
VWidth: 960
Flags: W
LayerCount: 2
Fore
SplineSet
277 -30 m 1,0,1
 271 -53 271 -53 271 -74 c 0,2,3
 271 -108 271 -108 293 -126.5 c 128,-1,4
 315 -145 315 -145 366 -148 c 1,5,-1
 366 -204 l 1,6,7
 273 -210 273 -210 224.5 -181 c 128,-1,8
 176 -152 176 -152 176 -96 c 0,9,10
 176 -79 176 -79 180.5 -61.5 c 128,-1,11
 185 -44 185 -44 191 -30 c 1,12,-1
 277 -30 l 1,0,1
EndSplineSet
EndChar

StartChar: caron
Encoding: 711 711 211
Width: 500
VWidth: 960
Flags: W
LayerCount: 2
Fore
SplineSet
251 635 m 1,0,-1
 328 701 l 1,1,-1
 422 701 l 1,2,-1
 306 555 l 1,3,-1
 194 555 l 1,4,-1
 78 701 l 1,5,-1
 174 701 l 1,6,-1
 251 635 l 1,0,-1
EndSplineSet
EndChar

StartChar: lslash
Encoding: 322 322 212
Width: 346
VWidth: 960
Flags: W
LayerCount: 2
Fore
SplineSet
233 292 m 1,0,-1
 233 -40 l 1,1,-1
 113 -40 l 1,2,-1
 113 257 l 1,3,-1
 37 234 l 1,4,-1
 37 349 l 1,5,-1
 113 372 l 1,6,-1
 113 690 l 1,7,-1
 233 690 l 1,8,-1
 233 407 l 1,9,-1
 309 430 l 1,10,-1
 309 315 l 1,11,-1
 233 292 l 1,0,-1
EndSplineSet
EndChar

StartChar: Thorn
Encoding: 222 222 217
Width: 673
VWidth: 960
Flags: W
LayerCount: 2
Fore
SplineSet
632 316 m 0,0,1
 632 256 632 256 610 211 c 128,-1,2
 588 166 588 166 550 136 c 128,-1,3
 512 106 512 106 461 91 c 128,-1,4
 410 76 410 76 352 76 c 2,5,-1
 213 76 l 1,6,-1
 213 -40 l 1,7,-1
 90 -40 l 1,8,-1
 90 660 l 1,9,-1
 213 660 l 1,10,-1
 213 550 l 1,11,-1
 366 550 l 2,12,13
 427 550 427 550 476.5 533.5 c 128,-1,14
 526 517 526 517 560.5 486.5 c 128,-1,15
 595 456 595 456 613.5 412.5 c 128,-1,16
 632 369 632 369 632 316 c 0,0,1
507 313 m 0,17,18
 507 376 507 376 466 407.5 c 128,-1,19
 425 439 425 439 356 439 c 2,20,-1
 213 439 l 1,21,-1
 213 186 l 1,22,-1
 356 186 l 2,23,24
 426 186 426 186 466.5 221 c 128,-1,25
 507 256 507 256 507 313 c 0,17,18
EndSplineSet
EndChar

StartChar: thorn
Encoding: 254 254 218
Width: 670
VWidth: 960
Flags: W
LayerCount: 2
Fore
SplineSet
622 224 m 256,0,1
 622 158 622 158 601.5 107 c 128,-1,2
 581 56 581 56 546.5 20.5 c 128,-1,3
 512 -15 512 -15 467.5 -33 c 128,-1,4
 423 -51 423 -51 376 -51 c 0,5,6
 311 -51 311 -51 268 -23 c 128,-1,7
 225 5 225 5 197 42 c 1,8,-1
 197 -200 l 1,9,-1
 76 -200 l 1,10,-1
 76 690 l 1,11,-1
 197 690 l 1,12,-1
 197 400 l 1,13,14
 226 442 226 442 269 470.5 c 128,-1,15
 312 499 312 499 376 499 c 0,16,17
 423 499 423 499 467 481 c 128,-1,18
 511 463 511 463 545.5 427.5 c 128,-1,19
 580 392 580 392 601 341 c 128,-1,20
 622 290 622 290 622 224 c 256,0,1
499 224 m 256,21,22
 499 263 499 263 487 294.5 c 128,-1,23
 475 326 475 326 454.5 348 c 128,-1,24
 434 370 434 370 406.5 382 c 128,-1,25
 379 394 379 394 348 394 c 256,26,27
 317 394 317 394 289 382 c 128,-1,28
 261 370 261 370 240 347.5 c 128,-1,29
 219 325 219 325 206.5 294 c 128,-1,30
 194 263 194 263 194 224 c 256,31,32
 194 185 194 185 206.5 154 c 128,-1,33
 219 123 219 123 240 100.5 c 128,-1,34
 261 78 261 78 289 66 c 128,-1,35
 317 54 317 54 348 54 c 256,36,37
 379 54 379 54 406.5 66 c 128,-1,38
 434 78 434 78 454.5 100 c 128,-1,39
 475 122 475 122 487 153.5 c 128,-1,40
 499 185 499 185 499 224 c 256,21,22
EndSplineSet
EndChar

StartChar: Lslash
Encoding: 321 321 221
Width: 649
VWidth: 960
Flags: W
LayerCount: 2
Fore
SplineSet
611 -40 m 1,0,-1
 120 -40 l 1,1,-1
 120 238 l 1,2,-1
 45 216 l 1,3,-1
 45 330 l 1,4,-1
 120 353 l 1,5,-1
 120 660 l 1,6,-1
 242 660 l 1,7,-1
 242 390 l 1,8,-1
 444 450 l 1,9,-1
 444 336 l 1,10,-1
 242 275 l 1,11,-1
 242 72 l 1,12,-1
 611 72 l 1,13,-1
 611 -40 l 1,0,-1
EndSplineSet
EndChar

StartChar: Omega
Encoding: 937 937 222
Width: 752
VWidth: 960
Flags: W
LayerCount: 2
Fore
SplineSet
598 484 m 1,0,-1
 738 484 l 1,1,-1
 738 384 l 1,2,-1
 600 384 l 1,3,-1
 600 -40 l 1,4,-1
 479 -40 l 1,5,-1
 479 384 l 1,6,-1
 412 384 l 1,7,-1
 412 485 l 1,8,-1
 479 485 l 1,9,-1
 479 523 l 2,10,11
 479 611 479 611 520.5 653.5 c 128,-1,12
 562 696 562 696 640 696 c 0,13,14
 672 696 672 696 695.5 692 c 128,-1,15
 719 688 719 688 739 682 c 1,16,-1
 739 580 l 1,17,18
 721 586 721 586 704.5 589.5 c 128,-1,19
 688 593 688 593 668 593 c 0,20,21
 598 593 598 593 598 513 c 2,22,-1
 598 484 l 1,0,-1
222 484 m 1,23,-1
 362 484 l 1,24,-1
 362 384 l 1,25,-1
 224 384 l 1,26,-1
 224 -40 l 1,27,-1
 103 -40 l 1,28,-1
 103 384 l 1,29,-1
 36 384 l 1,30,-1
 36 485 l 1,31,-1
 103 485 l 1,32,-1
 103 523 l 2,33,34
 103 611 103 611 145 653.5 c 128,-1,35
 187 696 187 696 265 696 c 0,36,37
 297 696 297 696 320 692 c 128,-1,38
 343 688 343 688 363 682 c 1,39,-1
 363 580 l 1,40,41
 345 586 345 586 328.5 589.5 c 128,-1,42
 312 593 312 593 292 593 c 0,43,44
 222 593 222 593 222 513 c 2,45,-1
 222 484 l 1,23,-1
EndSplineSet
EndChar

StartChar: fraction
Encoding: 8725 8725 223
Width: 459
VWidth: 960
Flags: W
LayerCount: 2
Fore
SplineSet
397 718 m 1,0,-1
 507 718 l 1,1,-1
 40 -138 l 1,2,-1
 -70 -138 l 1,3,-1
 397 718 l 1,0,-1
EndSplineSet
EndChar

StartChar: Eth
Encoding: 208 208 224
Width: 812
VWidth: 960
Flags: W
LayerCount: 2
Fore
SplineSet
120 257 m 1,0,-1
 45 257 l 1,1,-1
 45 367 l 1,2,-1
 120 367 l 1,3,-1
 120 660 l 1,4,-1
 381 660 l 2,5,6
 463 660 463 660 531.5 633.5 c 128,-1,7
 600 607 600 607 649.5 560 c 128,-1,8
 699 513 699 513 726 449 c 128,-1,9
 753 385 753 385 753 311 c 256,10,11
 753 237 753 237 726 172.5 c 128,-1,12
 699 108 699 108 649.5 61 c 128,-1,13
 600 14 600 14 531.5 -13 c 128,-1,14
 463 -40 463 -40 381 -40 c 2,15,-1
 120 -40 l 1,16,-1
 120 257 l 1,0,-1
242 367 m 1,17,-1
 418 367 l 1,18,-1
 418 257 l 1,19,-1
 242 257 l 1,20,-1
 242 72 l 1,21,-1
 381 72 l 2,22,23
 436 72 436 72 481 89.5 c 128,-1,24
 526 107 526 107 557.5 138.5 c 128,-1,25
 589 170 589 170 606.5 213.5 c 128,-1,26
 624 257 624 257 624 309 c 256,27,28
 624 361 624 361 606.5 404.5 c 128,-1,29
 589 448 589 448 557.5 480 c 128,-1,30
 526 512 526 512 481 530 c 128,-1,31
 436 548 436 548 381 548 c 2,32,-1
 242 548 l 1,33,-1
 242 367 l 1,17,-1
EndSplineSet
EndChar

StartChar: eth
Encoding: 240 240 225
Width: 642
VWidth: 960
Flags: W
LayerCount: 2
Fore
SplineSet
313 548 m 1,0,-1
 194 495 l 1,1,-1
 146 558 l 1,2,-1
 267 611 l 1,3,-1
 209 690 l 1,4,-1
 348 690 l 1,5,-1
 372 655 l 1,6,-1
 471 698 l 1,7,-1
 518 635 l 1,8,-1
 416 591 l 1,9,-1
 505 462 l 2,10,11
 527 430 527 430 543.5 400.5 c 128,-1,12
 560 371 560 371 571 341.5 c 128,-1,13
 582 312 582 312 587.5 282 c 128,-1,14
 593 252 593 252 593 218 c 0,15,16
 593 164 593 164 574 115 c 128,-1,17
 555 66 555 66 519.5 29 c 128,-1,18
 484 -8 484 -8 432.5 -30 c 128,-1,19
 381 -52 381 -52 316 -52 c 0,20,21
 258 -52 258 -52 208.5 -31.5 c 128,-1,22
 159 -11 159 -11 123 24.5 c 128,-1,23
 87 60 87 60 67 107.5 c 128,-1,24
 47 155 47 155 47 209 c 0,25,26
 47 262 47 262 65 305.5 c 128,-1,27
 83 349 83 349 114 380.5 c 128,-1,28
 145 412 145 412 187.5 429 c 128,-1,29
 230 446 230 446 279 446 c 0,30,31
 322 446 322 446 354 435.5 c 128,-1,32
 386 425 386 425 418 405 c 1,33,-1
 313 548 l 1,0,-1
474 206 m 0,34,35
 474 237 474 237 462.5 265 c 128,-1,36
 451 293 451 293 430.5 313 c 128,-1,37
 410 333 410 333 381 345 c 128,-1,38
 352 357 352 357 317 357 c 256,39,40
 282 357 282 357 254.5 345.5 c 128,-1,41
 227 334 227 334 207 313.5 c 128,-1,42
 187 293 187 293 176.5 265.5 c 128,-1,43
 166 238 166 238 166 206 c 0,44,45
 166 175 166 175 177.5 147 c 128,-1,46
 189 119 189 119 209.5 97.5 c 128,-1,47
 230 76 230 76 258.5 63.5 c 128,-1,48
 287 51 287 51 321 51 c 0,49,50
 356 51 356 51 384 63.5 c 128,-1,51
 412 76 412 76 432 97 c 128,-1,52
 452 118 452 118 463 146 c 128,-1,53
 474 174 474 174 474 206 c 0,34,35
EndSplineSet
EndChar
